Dewey-SemiBold.ufo
<glyph name="numbersign" format="1">
  <advance width="607"/>
  <unicode hex="0023"/>
  <outline>
    <contour>
      <point x="197" y="312" type="curve" smooth="yes"/>
      <point x="173" y="109"/>
      <point x="132" y="75"/>
      <point x="134" y="31" type="curve" smooth="yes"/>
      <point x="135" y="3"/>
      <point x="154" y="-16"/>
      <point x="181" y="-16" type="curve" smooth="yes"/>
      <point x="201" y="-16"/>
      <point x="228" y="-6"/>
      <point x="231" y="29" type="curve" smooth="yes"/>
      <point x="236" y="70"/>
      <point x="216" y="107"/>
      <point x="240" y="312" type="curve" smooth="yes"/>
      <point x="262" y="512"/>
      <point x="301" y="548"/>
      <point x="299" y="593" type="curve" smooth="yes"/>
      <point x="298" y="621"/>
      <point x="281" y="639"/>
      <point x="255" y="639" type="curve" smooth="yes"/>
      <point x="226" y="639"/>
      <point x="204" y="626"/>
      <point x="200" y="591" type="curve" smooth="yes"/>
      <point x="194" y="541"/>
      <point x="222" y="538"/>
    </contour>
    <contour>
      <point x="373" y="312" type="curve" smooth="yes"/>
      <point x="352" y="110"/>
      <point x="309" y="75"/>
      <point x="311" y="31" type="curve" smooth="yes"/>
      <point x="312" y="3"/>
      <point x="332" y="-16"/>
      <point x="358" y="-16" type="curve" smooth="yes"/>
      <point x="379" y="-16"/>
      <point x="406" y="-6"/>
      <point x="410" y="29" type="curve" smooth="yes"/>
      <point x="415" y="70"/>
      <point x="394" y="108"/>
      <point x="417" y="312" type="curve" smooth="yes"/>
      <point x="439" y="512"/>
      <point x="479" y="548"/>
      <point x="477" y="593" type="curve" smooth="yes"/>
      <point x="476" y="621"/>
      <point x="458" y="639"/>
      <point x="433" y="639" type="curve" smooth="yes"/>
      <point x="402" y="639"/>
      <point x="383" y="626"/>
      <point x="378" y="591" type="curve" smooth="yes"/>
      <point x="371" y="543"/>
      <point x="397" y="528"/>
    </contour>
    <contour>
      <point x="309" y="374" type="curve" smooth="yes"/>
      <point x="457" y="374"/>
      <point x="487" y="348"/>
      <point x="522" y="348" type="curve" smooth="yes"/>
      <point x="560" y="348"/>
      <point x="578" y="373"/>
      <point x="578" y="398" type="curve" smooth="yes"/>
      <point x="578" y="421"/>
      <point x="561" y="442"/>
      <point x="527" y="442" type="curve" smooth="yes"/>
      <point x="493" y="442"/>
      <point x="460" y="416"/>
      <point x="309" y="416" type="curve" smooth="yes"/>
      <point x="162" y="416"/>
      <point x="130" y="443"/>
      <point x="96" y="443" type="curve" smooth="yes"/>
      <point x="58" y="443"/>
      <point x="42" y="423"/>
      <point x="42" y="399" type="curve" smooth="yes"/>
      <point x="42" y="371"/>
      <point x="59" y="351"/>
      <point x="97" y="350" type="curve" smooth="yes"/>
      <point x="130" y="349"/>
      <point x="162" y="374"/>
    </contour>
    <contour>
      <point x="297" y="204" type="curve" smooth="yes"/>
      <point x="445" y="204"/>
      <point x="475" y="180"/>
      <point x="510" y="180" type="curve" smooth="yes"/>
      <point x="548" y="180"/>
      <point x="566" y="204"/>
      <point x="566" y="230" type="curve" smooth="yes"/>
      <point x="566" y="252"/>
      <point x="549" y="274"/>
      <point x="513" y="274" type="curve" smooth="yes"/>
      <point x="481" y="274"/>
      <point x="449" y="247"/>
      <point x="297" y="248" type="curve" smooth="yes"/>
      <point x="150" y="248"/>
      <point x="118" y="275"/>
      <point x="83" y="275" type="curve" smooth="yes"/>
      <point x="46" y="275"/>
      <point x="30" y="254"/>
      <point x="30" y="231" type="curve" smooth="yes"/>
      <point x="30" y="202"/>
      <point x="47" y="183"/>
      <point x="84" y="182" type="curve" smooth="yes"/>
      <point x="118" y="181"/>
      <point x="149" y="204"/>
    </contour>
  </outline>
</glyph>
<glyph name="dollar" format="1">
  <advance width="521"/>
  <unicode hex="0024"/>
  <outline>
    <contour>
      <point x="267" y="0" type="curve" smooth="yes"/>
      <point x="399" y="0"/>
      <point x="477" y="78"/>
      <point x="477" y="171" type="curve" smooth="yes"/>
      <point x="477" y="238"/>
      <point x="432" y="303"/>
      <point x="302" y="351" type="curve" smooth="yes"/>
      <point x="185" y="389"/>
      <point x="147" y="428"/>
      <point x="147" y="482" type="curve" smooth="yes"/>
      <point x="147" y="546"/>
      <point x="200" y="585"/>
      <point x="265" y="585" type="curve" smooth="yes"/>
      <point x="323" y="585"/>
      <point x="360" y="550"/>
      <point x="360" y="505" type="curve" smooth="yes"/>
      <point x="360" y="479" type="line" smooth="yes"/>
      <point x="360" y="444"/>
      <point x="386" y="420"/>
      <point x="418" y="420" type="curve" smooth="yes"/>
      <point x="448" y="420"/>
      <point x="474" y="447"/>
      <point x="474" y="482" type="curve" smooth="yes"/>
      <point x="474" y="563"/>
      <point x="385" y="629"/>
      <point x="274" y="629" type="curve" smooth="yes"/>
      <point x="141" y="629"/>
      <point x="51" y="547"/>
      <point x="51" y="449" type="curve" smooth="yes"/>
      <point x="51" y="366"/>
      <point x="105" y="309"/>
      <point x="230" y="267" type="curve" smooth="yes"/>
      <point x="345" y="224"/>
      <point x="381" y="186"/>
      <point x="381" y="135" type="curve" smooth="yes"/>
      <point x="381" y="79"/>
      <point x="336" y="45"/>
      <point x="270" y="45" type="curve" smooth="yes"/>
      <point x="203" y="45"/>
      <point x="163" y="83"/>
      <point x="163" y="135" type="curve" smooth="yes"/>
      <point x="163" y="161" type="line" smooth="yes"/>
      <point x="163" y="196"/>
      <point x="137" y="219"/>
      <point x="106" y="219" type="curve" smooth="yes"/>
      <point x="75" y="219"/>
      <point x="50" y="193"/>
      <point x="50" y="158" type="curve" smooth="yes"/>
      <point x="50" y="71"/>
      <point x="148" y="0"/>
    </contour>
    <contour>
      <point x="249" y="284" type="line"/>
      <point x="249" y="68"/>
      <point x="219" y="23"/>
      <point x="219" y="-20" type="curve" smooth="yes"/>
      <point x="219" y="-57"/>
      <point x="243" y="-74"/>
      <point x="268" y="-74" type="curve" smooth="yes"/>
      <point x="295" y="-74"/>
      <point x="313" y="-56"/>
      <point x="314" y="-20" type="curve" smooth="yes"/>
      <point x="315" y="23"/>
      <point x="285" y="68"/>
      <point x="285" y="284" type="curve"/>
    </contour>
    <contour>
      <point x="283" y="343" type="line"/>
      <point x="283" y="565"/>
      <point x="313" y="608"/>
      <point x="313" y="654" type="curve" smooth="yes"/>
      <point x="313" y="690"/>
      <point x="288" y="708"/>
      <point x="265" y="708" type="curve" smooth="yes"/>
      <point x="239" y="708"/>
      <point x="217" y="691"/>
      <point x="217" y="656" type="curve" smooth="yes"/>
      <point x="217" y="614"/>
      <point x="249" y="569"/>
      <point x="248" y="343" type="curve"/>
    </contour>
  </outline>
</glyph>
<glyph name="ampersand" format="1">
  <advance width="675"/>
  <unicode hex="0026"/>
  <outline>
    <contour>
      <point x="286" y="629" type="curve" smooth="yes"/>
      <point x="235" y="629"/>
      <point x="201" y="583"/>
      <point x="201" y="522" type="curve" smooth="yes"/>
      <point x="201" y="457"/>
      <point x="232" y="404"/>
      <point x="280" y="383" type="curve" smooth="yes"/>
      <point x="342" y="357"/>
      <point x="372" y="333"/>
      <point x="419" y="279" type="curve" smooth="yes"/>
      <point x="580" y="95" type="line" smooth="yes"/>
      <point x="598" y="75"/>
      <point x="612" y="57"/>
      <point x="640" y="52" type="curve" smooth="yes"/>
      <point x="666" y="46"/>
      <point x="676" y="40"/>
      <point x="676" y="24" type="curve" smooth="yes"/>
      <point x="676" y="8"/>
      <point x="663" y="-1"/>
      <point x="641" y="-1" type="curve" smooth="yes"/>
      <point x="554" y="-1" type="line" smooth="yes"/>
      <point x="522" y="-1"/>
      <point x="503" y="11"/>
      <point x="484" y="34" type="curve" smooth="yes"/>
      <point x="315" y="230" type="line" smooth="yes"/>
      <point x="275" y="277"/>
      <point x="251" y="301"/>
      <point x="197" y="324" type="curve" smooth="yes"/>
      <point x="134" y="350"/>
      <point x="92" y="411"/>
      <point x="92" y="487" type="curve" smooth="yes"/>
      <point x="92" y="594"/>
      <point x="185" y="679"/>
      <point x="307" y="679" type="curve" smooth="yes"/>
      <point x="416" y="679"/>
      <point x="481" y="618"/>
      <point x="481" y="529" type="curve" smooth="yes"/>
      <point x="481" y="441"/>
      <point x="419" y="383"/>
      <point x="287" y="340" type="curve"/>
      <point x="267" y="366" type="line"/>
      <point x="339" y="403"/>
      <point x="370" y="449"/>
      <point x="370" y="517" type="curve" smooth="yes"/>
      <point x="370" y="588"/>
      <point x="329" y="629"/>
    </contour>
    <contour>
      <point x="246" y="316" type="line"/>
      <point x="188" y="313"/>
      <point x="134" y="253"/>
      <point x="134" y="190" type="curve" smooth="yes"/>
      <point x="134" y="113"/>
      <point x="197" y="64"/>
      <point x="299" y="64" type="curve" smooth="yes"/>
      <point x="352" y="64"/>
      <point x="401" y="84"/>
      <point x="431" y="128" type="curve"/>
      <point x="466" y="99" type="line"/>
      <point x="397" y="14"/>
      <point x="326" y="-15"/>
      <point x="230" y="-15" type="curve" smooth="yes"/>
      <point x="98" y="-15"/>
      <point x="27" y="65"/>
      <point x="27" y="159" type="curve" smooth="yes"/>
      <point x="27" y="260"/>
      <point x="123" y="341"/>
      <point x="246" y="341" type="curve"/>
    </contour>
    <contour>
      <point x="481" y="182" type="line"/>
      <point x="516" y="238" type="line" smooth="yes"/>
      <point x="527" y="254"/>
      <point x="535" y="270"/>
      <point x="535" y="286" type="curve" smooth="yes"/>
      <point x="535" y="303"/>
      <point x="528" y="310"/>
      <point x="515" y="317" type="curve" smooth="yes"/>
      <point x="501" y="324" type="line" smooth="yes"/>
      <point x="484" y="334"/>
      <point x="475" y="339"/>
      <point x="475" y="352" type="curve" smooth="yes"/>
      <point x="475" y="368"/>
      <point x="486" y="373"/>
      <point x="505" y="373" type="curve" smooth="yes"/>
      <point x="645" y="373" type="line" smooth="yes"/>
      <point x="664" y="373"/>
      <point x="676" y="365"/>
      <point x="676" y="349" type="curve" smooth="yes"/>
      <point x="676" y="336"/>
      <point x="664" y="329"/>
      <point x="646" y="321" type="curve" smooth="yes"/>
      <point x="622" y="312"/>
      <point x="605" y="292"/>
      <point x="582" y="258" type="curve" smooth="yes"/>
      <point x="514" y="156" type="line"/>
    </contour>
  </outline>
</glyph>
<glyph name="parenleft" format="1">
  <advance width="403"/>
  <unicode hex="0028"/>
  <outline>
    <contour>
      <point x="84" y="288" type="curve" smooth="yes"/>
      <point x="84" y="55"/>
      <point x="210" y="-118"/>
      <point x="351" y="-168" type="curve" smooth="yes"/>
      <point x="359" y="-171"/>
      <point x="367" y="-172"/>
      <point x="373" y="-172" type="curve" smooth="yes"/>
      <point x="384" y="-172"/>
      <point x="392" y="-162"/>
      <point x="392" y="-150" type="curve" smooth="yes"/>
      <point x="392" y="-143"/>
      <point x="388" y="-134"/>
      <point x="376" y="-129" type="curve" smooth="yes"/>
      <point x="264" y="-77"/>
      <point x="194" y="74"/>
      <point x="194" y="288" type="curve" smooth="yes"/>
      <point x="194" y="502"/>
      <point x="264" y="654"/>
      <point x="376" y="706" type="curve" smooth="yes"/>
      <point x="388" y="711"/>
      <point x="392" y="719"/>
      <point x="392" y="728" type="curve" smooth="yes"/>
      <point x="392" y="739"/>
      <point x="384" y="749"/>
      <point x="373" y="749" type="curve" smooth="yes"/>
      <point x="368" y="749"/>
      <point x="362" y="747"/>
      <point x="352" y="744" type="curve" smooth="yes"/>
      <point x="206" y="689"/>
      <point x="84" y="513"/>
    </contour>
  </outline>
</glyph>
<glyph name="asterisk" format="1">
  <advance width="506"/>
  <unicode hex="002A"/>
  <outline>
    <contour>
      <point x="268" y="516" type="line"/>
      <point x="268" y="593"/>
      <point x="311" y="613"/>
      <point x="311" y="668" type="curve" smooth="yes"/>
      <point x="311" y="711"/>
      <point x="282" y="731"/>
      <point x="252" y="731" type="curve" smooth="yes"/>
      <point x="225" y="731"/>
      <point x="199" y="711"/>
      <point x="198" y="672" type="curve" smooth="yes"/>
      <point x="197" y="617"/>
      <point x="240" y="595"/>
      <point x="240" y="516" type="curve"/>
    </contour>
    <contour>
      <point x="258" y="529" type="line"/>
      <point x="185" y="553"/>
      <point x="179" y="600"/>
      <point x="127" y="617" type="curve" smooth="yes"/>
      <point x="86" y="631"/>
      <point x="58" y="609"/>
      <point x="49" y="581" type="curve" smooth="yes"/>
      <point x="41" y="555"/>
      <point x="51" y="524"/>
      <point x="88" y="511" type="curve" smooth="yes"/>
      <point x="140" y="493"/>
      <point x="175" y="528"/>
      <point x="250" y="504" type="curve"/>
    </contour>
    <contour>
      <point x="242" y="524" type="line"/>
      <point x="197" y="462"/>
      <point x="150" y="471"/>
      <point x="118" y="427" type="curve" smooth="yes"/>
      <point x="93" y="392"/>
      <point x="105" y="359"/>
      <point x="128" y="341" type="curve" smooth="yes"/>
      <point x="150" y="326"/>
      <point x="184" y="326"/>
      <point x="207" y="357" type="curve" smooth="yes"/>
      <point x="240" y="401"/>
      <point x="218" y="445"/>
      <point x="264" y="509" type="curve"/>
    </contour>
    <contour>
      <point x="242" y="508" type="line"/>
      <point x="287" y="446"/>
      <point x="264" y="404"/>
      <point x="296" y="360" type="curve" smooth="yes"/>
      <point x="322" y="324"/>
      <point x="357" y="326"/>
      <point x="381" y="343" type="curve" smooth="yes"/>
      <point x="402" y="359"/>
      <point x="412" y="390"/>
      <point x="390" y="423" type="curve" smooth="yes"/>
      <point x="359" y="468"/>
      <point x="311" y="460"/>
      <point x="264" y="524" type="curve"/>
    </contour>
    <contour>
      <point x="258" y="503" type="line"/>
      <point x="330" y="526"/>
      <point x="364" y="492"/>
      <point x="415" y="509" type="curve" smooth="yes"/>
      <point x="457" y="522"/>
      <point x="466" y="555"/>
      <point x="457" y="583" type="curve" smooth="yes"/>
      <point x="449" y="610"/>
      <point x="422" y="628"/>
      <point x="384" y="617" type="curve" smooth="yes"/>
      <point x="332" y="601"/>
      <point x="325" y="553"/>
      <point x="250" y="528" type="curve"/>
    </contour>
  </outline>
</glyph>
<glyph name="plus" format="1">
  <advance width="498"/>
  <unicode hex="002B"/>
  <outline>
    <contour>
      <point x="43" y="303" type="curve" smooth="yes"/>
      <point x="43" y="281"/>
      <point x="63" y="264"/>
      <point x="86" y="264" type="curve" smooth="yes"/>
      <point x="143" y="264"/>
      <point x="210" y="278"/>
      <point x="252" y="278" type="curve" smooth="yes"/>
      <point x="295" y="278"/>
      <point x="359" y="264"/>
      <point x="412" y="264" type="curve" smooth="yes"/>
      <point x="439" y="264"/>
      <point x="456" y="281"/>
      <point x="456" y="303" type="curve" smooth="yes"/>
      <point x="456" y="326"/>
      <point x="437" y="345"/>
      <point x="412" y="345" type="curve" smooth="yes"/>
      <point x="359" y="345"/>
      <point x="295" y="331"/>
      <point x="252" y="331" type="curve" smooth="yes"/>
      <point x="203" y="331"/>
      <point x="143" y="345"/>
      <point x="87" y="345" type="curve" smooth="yes"/>
      <point x="65" y="345"/>
      <point x="43" y="326"/>
    </contour>
    <contour>
      <point x="253" y="96" type="curve" smooth="yes"/>
      <point x="275" y="96"/>
      <point x="293" y="116"/>
      <point x="293" y="139" type="curve" smooth="yes"/>
      <point x="293" y="196"/>
      <point x="279" y="263"/>
      <point x="279" y="305" type="curve" smooth="yes"/>
      <point x="279" y="348"/>
      <point x="293" y="412"/>
      <point x="293" y="465" type="curve" smooth="yes"/>
      <point x="293" y="492"/>
      <point x="275" y="509"/>
      <point x="253" y="509" type="curve" smooth="yes"/>
      <point x="230" y="509"/>
      <point x="212" y="490"/>
      <point x="212" y="465" type="curve" smooth="yes"/>
      <point x="212" y="412"/>
      <point x="226" y="348"/>
      <point x="226" y="305" type="curve" smooth="yes"/>
      <point x="226" y="256"/>
      <point x="212" y="196"/>
      <point x="212" y="140" type="curve" smooth="yes"/>
      <point x="212" y="118"/>
      <point x="230" y="96"/>
    </contour>
  </outline>
</glyph>
<glyph name="comma" format="1">
  <advance width="289"/>
  <unicode hex="002C"/>
  <outline>
    <contour>
      <point x="120" y="-14" type="curve" smooth="yes"/>
      <point x="142" y="-18" type="line" smooth="yes"/>
      <point x="160" y="-20"/>
      <point x="166" y="-31"/>
      <point x="166" y="-50" type="curve" smooth="yes"/>
      <point x="166" y="-105"/>
      <point x="138" y="-136"/>
      <point x="92" y="-146" type="curve" smooth="yes"/>
      <point x="69" y="-151"/>
      <point x="61" y="-162"/>
      <point x="61" y="-176" type="curve" smooth="yes"/>
      <point x="61" y="-192"/>
      <point x="73" y="-205"/>
      <point x="94" y="-205" type="curve" smooth="yes"/>
      <point x="163" y="-205"/>
      <point x="239" y="-132"/>
      <point x="239" y="-4" type="curve" smooth="yes"/>
      <point x="239" y="90"/>
      <point x="194" y="134"/>
      <point x="135" y="134" type="curve" smooth="yes"/>
      <point x="92" y="134"/>
      <point x="57" y="101"/>
      <point x="57" y="61" type="curve" smooth="yes"/>
      <point x="57" y="21"/>
      <point x="82" y="-9"/>
    </contour>
  </outline>
</glyph>
<glyph name="hyphen" format="1">
  <advance width="400"/>
  <unicode hex="002D"/>
  <outline>
    <contour>
      <point x="329" y="287" type="curve" smooth="yes"/>
      <point x="98" y="287" type="line" smooth="yes"/>
      <point x="77" y="287"/>
      <point x="65" y="280"/>
      <point x="55" y="257" type="curve" smooth="yes"/>
      <point x="48" y="244" type="line" smooth="yes"/>
      <point x="44" y="235"/>
      <point x="43" y="228"/>
      <point x="43" y="223" type="curve" smooth="yes"/>
      <point x="43" y="208"/>
      <point x="52" y="200"/>
      <point x="70" y="200" type="curve" smooth="yes"/>
      <point x="301" y="200" type="line" smooth="yes"/>
      <point x="325" y="200"/>
      <point x="337" y="208"/>
      <point x="346" y="229" type="curve" smooth="yes"/>
      <point x="353" y="243" type="line" smooth="yes"/>
      <point x="357" y="252"/>
      <point x="358" y="258"/>
      <point x="358" y="264" type="curve" smooth="yes"/>
      <point x="358" y="278"/>
      <point x="345" y="287"/>
    </contour>
  </outline>
</glyph>
<glyph name="period" format="1">
  <advance width="277"/>
  <unicode hex="002E"/>
  <outline>
    <contour>
      <point x="137" y="-15" type="curve" smooth="yes"/>
      <point x="181" y="-15"/>
      <point x="216" y="21"/>
      <point x="216" y="65" type="curve" smooth="yes"/>
      <point x="216" y="108"/>
      <point x="181" y="143"/>
      <point x="137" y="143" type="curve" smooth="yes"/>
      <point x="94" y="143"/>
      <point x="59" y="108"/>
      <point x="59" y="65" type="curve" smooth="yes"/>
      <point x="59" y="21"/>
      <point x="94" y="-15"/>
    </contour>
  </outline>
</glyph>
<glyph name="zero" format="1">
  <advance width="602"/>
  <unicode hex="0030"/>
  <outline>
    <contour>
      <point x="297" y="656" type="curve" smooth="yes"/>
      <point x="140" y="656"/>
      <point x="39" y="530"/>
      <point x="39" y="330" type="curve" smooth="yes"/>
      <point x="39" y="108"/>
      <point x="133" y="-15"/>
      <point x="297" y="-15" type="curve" smooth="yes"/>
      <point x="450" y="-15"/>
      <point x="562" y="105"/>
      <point x="562" y="330" type="curve" smooth="yes"/>
      <point x="562" y="533"/>
      <point x="456" y="656"/>
    </contour>
    <contour>
      <point x="429" y="289" type="curve" smooth="yes"/>
      <point x="429" y="110"/>
      <point x="379" y="44"/>
      <point x="312" y="44" type="curve" smooth="yes"/>
      <point x="220" y="44"/>
      <point x="171" y="137"/>
      <point x="171" y="364" type="curve" smooth="yes"/>
      <point x="171" y="514"/>
      <point x="210" y="597"/>
      <point x="285" y="597" type="curve" smooth="yes"/>
      <point x="376" y="597"/>
      <point x="429" y="502"/>
    </contour>
  </outline>
</glyph>
<glyph name="one" format="1">
  <advance width="450"/>
  <unicode hex="0031"/>
  <outline>
    <contour>
      <point x="77" y="550" type="line" smooth="yes"/>
      <point x="55" y="550"/>
      <point x="45" y="562"/>
      <point x="45" y="578" type="curve" smooth="yes"/>
      <point x="45" y="594"/>
      <point x="58" y="607"/>
      <point x="81" y="607" type="curve" smooth="yes"/>
      <point x="120" y="607" type="line" smooth="yes"/>
      <point x="163" y="607"/>
      <point x="195" y="610"/>
      <point x="224" y="637" type="curve" smooth="yes"/>
      <point x="236" y="650"/>
      <point x="248" y="656"/>
      <point x="266" y="656" type="curve" smooth="yes"/>
      <point x="285" y="656"/>
      <point x="296" y="646"/>
      <point x="296" y="620" type="curve" smooth="yes"/>
      <point x="296" y="118" type="line" smooth="yes"/>
      <point x="296" y="86"/>
      <point x="317" y="62"/>
      <point x="345" y="60" type="curve" smooth="yes"/>
      <point x="393" y="56" type="line" smooth="yes"/>
      <point x="412" y="54"/>
      <point x="426" y="45"/>
      <point x="426" y="30" type="curve" smooth="yes"/>
      <point x="426" y="9"/>
      <point x="414" y="0"/>
      <point x="393" y="0" type="curve" smooth="yes"/>
      <point x="70" y="0" type="line" smooth="yes"/>
      <point x="49" y="0"/>
      <point x="36" y="9"/>
      <point x="36" y="30" type="curve" smooth="yes"/>
      <point x="36" y="47"/>
      <point x="49" y="56"/>
      <point x="71" y="59" type="curve" smooth="yes"/>
      <point x="116" y="63" type="line" smooth="yes"/>
      <point x="148" y="66"/>
      <point x="175" y="85"/>
      <point x="175" y="118" type="curve" smooth="yes"/>
      <point x="175" y="486" type="line" smooth="yes"/>
      <point x="175" y="531"/>
      <point x="153" y="550"/>
      <point x="118" y="550" type="curve" smooth="yes"/>
    </contour>
  </outline>
</glyph>
<glyph name="two" format="1">
  <advance width="536"/>
  <unicode hex="0032"/>
  <outline>
    <contour>
      <point x="214" y="279" type="curve" smooth="yes"/>
      <point x="83" y="200"/>
      <point x="36" y="115"/>
      <point x="36" y="36" type="curve" smooth="yes"/>
      <point x="36" y="4"/>
      <point x="52" y="-15"/>
      <point x="82" y="-15" type="curve" smooth="yes"/>
      <point x="137" y="-15"/>
      <point x="130" y="61"/>
      <point x="189" y="61" type="curve" smooth="yes"/>
      <point x="247" y="61"/>
      <point x="289" y="-15"/>
      <point x="368" y="-15" type="curve" smooth="yes"/>
      <point x="460" y="-15"/>
      <point x="503" y="48"/>
      <point x="503" y="137" type="curve" smooth="yes"/>
      <point x="503" y="157"/>
      <point x="497" y="174"/>
      <point x="479" y="174" type="curve" smooth="yes"/>
      <point x="468" y="174"/>
      <point x="458" y="169"/>
      <point x="451" y="148" type="curve" smooth="yes"/>
      <point x="440" y="115"/>
      <point x="425" y="103"/>
      <point x="389" y="103" type="curve" smooth="yes"/>
      <point x="336" y="103"/>
      <point x="285" y="150"/>
      <point x="212" y="150" type="curve" smooth="yes"/>
      <point x="135" y="150"/>
      <point x="99" y="100"/>
      <point x="99" y="49" type="curve"/>
      <point x="107" y="50" type="line"/>
      <point x="107" y="123"/>
      <point x="150" y="173"/>
      <point x="283" y="244" type="curve" smooth="yes"/>
      <point x="420" y="315"/>
      <point x="478" y="380"/>
      <point x="478" y="483" type="curve" smooth="yes"/>
      <point x="478" y="581"/>
      <point x="402" y="655"/>
      <point x="276" y="655" type="curve" smooth="yes"/>
      <point x="137" y="655"/>
      <point x="50" y="561"/>
      <point x="50" y="485" type="curve" smooth="yes"/>
      <point x="50" y="438"/>
      <point x="75" y="411"/>
      <point x="115" y="411" type="curve" smooth="yes"/>
      <point x="149" y="411"/>
      <point x="183" y="442"/>
      <point x="183" y="486" type="curve" smooth="yes"/>
      <point x="183" y="523" type="line" smooth="yes"/>
      <point x="183" y="569"/>
      <point x="206" y="602"/>
      <point x="264" y="602" type="curve" smooth="yes"/>
      <point x="311" y="602"/>
      <point x="353" y="559"/>
      <point x="353" y="476" type="curve" smooth="yes"/>
      <point x="353" y="392"/>
      <point x="315" y="341"/>
    </contour>
  </outline>
</glyph>
<glyph name="three" format="1">
  <advance width="519"/>
  <unicode hex="0033"/>
  <outline>
    <contour>
      <point x="254" y="332" type="line"/>
      <point x="459" y="562" type="line" smooth="yes"/>
      <point x="476" y="580"/>
      <point x="481" y="594"/>
      <point x="481" y="606" type="curve" smooth="yes"/>
      <point x="481" y="626"/>
      <point x="462" y="640"/>
      <point x="442" y="640" type="curve" smooth="yes"/>
      <point x="119" y="640" type="line" smooth="yes"/>
      <point x="89" y="640"/>
      <point x="72" y="620"/>
      <point x="69" y="590" type="curve" smooth="yes"/>
      <point x="59" y="483" type="line" smooth="yes"/>
      <point x="57" y="463"/>
      <point x="69" y="453"/>
      <point x="84" y="453" type="curve" smooth="yes"/>
      <point x="101" y="453"/>
      <point x="112" y="466"/>
      <point x="120" y="481" type="curve" smooth="yes"/>
      <point x="136" y="510" type="line" smooth="yes"/>
      <point x="149" y="535"/>
      <point x="168" y="544"/>
      <point x="199" y="544" type="curve" smooth="yes"/>
      <point x="396" y="544" type="line"/>
      <point x="386" y="577" type="line"/>
      <point x="188" y="355" type="line" smooth="yes"/>
      <point x="179" y="345"/>
      <point x="173" y="335"/>
      <point x="173" y="323" type="curve" smooth="yes"/>
      <point x="173" y="307"/>
      <point x="186" y="296"/>
      <point x="204" y="296" type="curve" smooth="yes"/>
      <point x="239" y="296" type="line" smooth="yes"/>
      <point x="315" y="296"/>
      <point x="366" y="251"/>
      <point x="366" y="161" type="curve" smooth="yes"/>
      <point x="366" y="89"/>
      <point x="327" y="41"/>
      <point x="270" y="40" type="curve" smooth="yes"/>
      <point x="216" y="39"/>
      <point x="179" y="69"/>
      <point x="179" y="107" type="curve" smooth="yes"/>
      <point x="179" y="137" type="line" smooth="yes"/>
      <point x="179" y="179"/>
      <point x="149" y="208"/>
      <point x="113" y="208" type="curve" smooth="yes"/>
      <point x="75" y="208"/>
      <point x="43" y="178"/>
      <point x="43" y="137" type="curve" smooth="yes"/>
      <point x="43" y="53"/>
      <point x="117" y="-15"/>
      <point x="247" y="-15" type="curve" smooth="yes"/>
      <point x="382" y="-15"/>
      <point x="481" y="65"/>
      <point x="481" y="191" type="curve" smooth="yes"/>
      <point x="481" y="303"/>
      <point x="395" y="356"/>
      <point x="259" y="356" type="curve" smooth="yes"/>
      <point x="256" y="356"/>
      <point x="240" y="356"/>
      <point x="236" y="356" type="curve"/>
    </contour>
  </outline>
</glyph>
<glyph name="four" format="1">
  <advance width="529"/>
  <unicode hex="0034"/>
  <outline>
    <contour>
      <point x="289" y="331" type="curve" smooth="yes"/>
      <point x="290" y="111" type="line" smooth="yes"/>
      <point x="290" y="83"/>
      <point x="278" y="69"/>
      <point x="252" y="63" type="curve" smooth="yes"/>
      <point x="213" y="55" type="line" smooth="yes"/>
      <point x="189" y="50"/>
      <point x="176" y="44"/>
      <point x="176" y="26" type="curve" smooth="yes"/>
      <point x="176" y="8"/>
      <point x="187" y="0"/>
      <point x="212" y="0" type="curve" smooth="yes"/>
      <point x="467" y="0" type="line" smooth="yes"/>
      <point x="491" y="0"/>
      <point x="503" y="8"/>
      <point x="503" y="26" type="curve" smooth="yes"/>
      <point x="503" y="44"/>
      <point x="490" y="53"/>
      <point x="469" y="56" type="curve" smooth="yes"/>
      <point x="442" y="61" type="line" smooth="yes"/>
      <point x="417" y="64"/>
      <point x="404" y="80"/>
      <point x="404" y="108" type="curve" smooth="yes"/>
      <point x="403" y="424" type="line" smooth="yes"/>
      <point x="403" y="440"/>
      <point x="395" y="446"/>
      <point x="383" y="446" type="curve" smooth="yes"/>
      <point x="372" y="446"/>
      <point x="361" y="443"/>
      <point x="348" y="426" type="curve" smooth="yes"/>
      <point x="311" y="377" type="line" smooth="yes"/>
      <point x="299" y="362"/>
      <point x="289" y="349"/>
    </contour>
    <contour>
      <point x="165" y="405" type="curve" smooth="yes"/>
      <point x="42" y="253" type="line" smooth="yes"/>
      <point x="22" y="228"/>
      <point x="18" y="211"/>
      <point x="18" y="198" type="curve" smooth="yes"/>
      <point x="18" y="174"/>
      <point x="32" y="160"/>
      <point x="59" y="160" type="curve" smooth="yes"/>
      <point x="469" y="160" type="line" smooth="yes"/>
      <point x="494" y="160"/>
      <point x="506" y="171"/>
      <point x="505" y="195" type="curve" smooth="yes"/>
      <point x="505" y="214"/>
      <point x="490" y="222"/>
      <point x="469" y="222" type="curve" smooth="yes"/>
      <point x="64" y="222" type="line"/>
      <point x="75" y="193" type="line"/>
      <point x="274" y="444" type="line" smooth="yes"/>
      <point x="322" y="503"/>
      <point x="340" y="537"/>
      <point x="340" y="576" type="curve" smooth="yes"/>
      <point x="340" y="623"/>
      <point x="308" y="656"/>
      <point x="265" y="656" type="curve" smooth="yes"/>
      <point x="212" y="656"/>
      <point x="181" y="620"/>
      <point x="181" y="582" type="curve" smooth="yes"/>
      <point x="181" y="545"/>
      <point x="204" y="533"/>
      <point x="204" y="498" type="curve" smooth="yes"/>
      <point x="204" y="462"/>
      <point x="188" y="434"/>
    </contour>
  </outline>
</glyph>
<glyph name="five" format="1">
  <advance width="527"/>
  <unicode hex="0035"/>
  <outline>
    <contour>
      <point x="47" y="129" type="curve" smooth="yes"/>
      <point x="47" y="50"/>
      <point x="127" y="-15"/>
      <point x="232" y="-15" type="curve" smooth="yes"/>
      <point x="375" y="-15"/>
      <point x="485" y="74"/>
      <point x="485" y="208" type="curve" smooth="yes"/>
      <point x="485" y="321"/>
      <point x="399" y="397"/>
      <point x="271" y="397" type="curve" smooth="yes"/>
      <point x="204" y="397"/>
      <point x="147" y="370"/>
      <point x="108" y="311" type="curve"/>
      <point x="145" y="308" type="line"/>
      <point x="145" y="586" type="line"/>
      <point x="108" y="566" type="line"/>
      <point x="141" y="516"/>
      <point x="211" y="475"/>
      <point x="299" y="475" type="curve" smooth="yes"/>
      <point x="415" y="475"/>
      <point x="483" y="544"/>
      <point x="483" y="632" type="curve" smooth="yes"/>
      <point x="483" y="648"/>
      <point x="472" y="656"/>
      <point x="458" y="656" type="curve" smooth="yes"/>
      <point x="444" y="656"/>
      <point x="433" y="646"/>
      <point x="424" y="628" type="curve" smooth="yes"/>
      <point x="408" y="595"/>
      <point x="382" y="578"/>
      <point x="344" y="578" type="curve" smooth="yes"/>
      <point x="270" y="578"/>
      <point x="201" y="655"/>
      <point x="137" y="655" type="curve" smooth="yes"/>
      <point x="96" y="655"/>
      <point x="79" y="632"/>
      <point x="79" y="595" type="curve" smooth="yes"/>
      <point x="79" y="295" type="line" smooth="yes"/>
      <point x="79" y="277"/>
      <point x="94" y="261"/>
      <point x="111" y="261" type="curve" smooth="yes"/>
      <point x="127" y="261"/>
      <point x="141" y="270"/>
      <point x="155" y="289" type="curve" smooth="yes"/>
      <point x="180" y="320"/>
      <point x="207" y="332"/>
      <point x="239" y="332" type="curve" smooth="yes"/>
      <point x="315" y="332"/>
      <point x="359" y="278"/>
      <point x="359" y="179" type="curve" smooth="yes"/>
      <point x="359" y="93"/>
      <point x="314" y="44"/>
      <point x="252" y="44" type="curve" smooth="yes"/>
      <point x="209" y="44"/>
      <point x="184" y="70"/>
      <point x="184" y="99" type="curve" smooth="yes"/>
      <point x="184" y="128" type="line" smooth="yes"/>
      <point x="184" y="173"/>
      <point x="154" y="202"/>
      <point x="118" y="202" type="curve" smooth="yes"/>
      <point x="79" y="202"/>
      <point x="47" y="171"/>
    </contour>
  </outline>
</glyph>
<glyph name="six" format="1">
  <advance width="562"/>
  <unicode hex="0036"/>
  <outline>
    <contour>
      <point x="330" y="655" type="curve" smooth="yes"/>
      <point x="169" y="655"/>
      <point x="48" y="549"/>
      <point x="48" y="290" type="curve" smooth="yes"/>
      <point x="48" y="80"/>
      <point x="145" y="-15"/>
      <point x="274" y="-15" type="curve" smooth="yes"/>
      <point x="417" y="-15"/>
      <point x="523" y="86"/>
      <point x="523" y="218" type="curve" smooth="yes"/>
      <point x="523" y="340"/>
      <point x="451" y="408"/>
      <point x="348" y="408" type="curve" smooth="yes"/>
      <point x="232" y="408"/>
      <point x="138" y="325"/>
      <point x="138" y="224" type="curve"/>
      <point x="176" y="210" type="line"/>
      <point x="176" y="283"/>
      <point x="231" y="335"/>
      <point x="300" y="335" type="curve" smooth="yes"/>
      <point x="359" y="335"/>
      <point x="408" y="284"/>
      <point x="408" y="184" type="curve" smooth="yes"/>
      <point x="408" y="99"/>
      <point x="366" y="52"/>
      <point x="298" y="52" type="curve" smooth="yes"/>
      <point x="230" y="52"/>
      <point x="172" y="111"/>
      <point x="172" y="308" type="curve" smooth="yes"/>
      <point x="172" y="527"/>
      <point x="236" y="598"/>
      <point x="304" y="598" type="curve" smooth="yes"/>
      <point x="347" y="598"/>
      <point x="371" y="572"/>
      <point x="371" y="545" type="curve" smooth="yes"/>
      <point x="371" y="528" type="line" smooth="yes"/>
      <point x="371" y="482"/>
      <point x="404" y="455"/>
      <point x="441" y="455" type="curve" smooth="yes"/>
      <point x="483" y="455"/>
      <point x="510" y="481"/>
      <point x="510" y="526" type="curve" smooth="yes"/>
      <point x="510" y="593"/>
      <point x="446" y="655"/>
    </contour>
  </outline>
</glyph>
<glyph name="seven" format="1">
  <advance width="467"/>
  <unicode hex="0037"/>
  <outline>
    <contour>
      <point x="376" y="547" type="curve" smooth="yes"/>
      <point x="307" y="456" type="line" smooth="yes"/>
      <point x="166" y="270"/>
      <point x="142" y="184"/>
      <point x="142" y="97" type="curve" smooth="yes"/>
      <point x="142" y="28"/>
      <point x="176" y="-15"/>
      <point x="228" y="-15" type="curve" smooth="yes"/>
      <point x="286" y="-15"/>
      <point x="315" y="22"/>
      <point x="315" y="64" type="curve" smooth="yes"/>
      <point x="315" y="115"/>
      <point x="263" y="146"/>
      <point x="263" y="208" type="curve" smooth="yes"/>
      <point x="263" y="273"/>
      <point x="286" y="334"/>
      <point x="349" y="420" type="curve" smooth="yes"/>
      <point x="425" y="523" type="line" smooth="yes"/>
      <point x="453" y="560"/>
      <point x="457" y="579"/>
      <point x="457" y="601" type="curve" smooth="yes"/>
      <point x="457" y="624"/>
      <point x="440" y="640"/>
      <point x="413" y="640" type="curve" smooth="yes"/>
      <point x="84" y="640" type="line" smooth="yes"/>
      <point x="56" y="640"/>
      <point x="41" y="620"/>
      <point x="38" y="590" type="curve" smooth="yes"/>
      <point x="27" y="479" type="line" smooth="yes"/>
      <point x="25" y="456"/>
      <point x="38" y="444"/>
      <point x="53" y="444" type="curve" smooth="yes"/>
      <point x="71" y="444"/>
      <point x="83" y="458"/>
      <point x="91" y="475" type="curve" smooth="yes"/>
      <point x="107" y="508" type="line" smooth="yes"/>
      <point x="119" y="534"/>
      <point x="138" y="543"/>
      <point x="166" y="543" type="curve" smooth="yes"/>
      <point x="406" y="543" type="line"/>
      <point x="397" y="607" type="line"/>
      <point x="397" y="589"/>
      <point x="393" y="570"/>
    </contour>
  </outline>
</glyph>
<glyph name="eight" format="1">
  <advance width="538"/>
  <unicode hex="0038"/>
  <outline>
    <contour>
      <point x="258" y="-15" type="curve" smooth="yes"/>
      <point x="390" y="-15"/>
      <point x="488" y="56"/>
      <point x="488" y="158" type="curve" smooth="yes"/>
      <point x="488" y="231"/>
      <point x="440" y="296"/>
      <point x="312" y="343" type="curve" smooth="yes"/>
      <point x="191" y="385"/>
      <point x="157" y="434"/>
      <point x="157" y="495" type="curve" smooth="yes"/>
      <point x="157" y="550"/>
      <point x="197" y="590"/>
      <point x="264" y="590" type="curve" smooth="yes"/>
      <point x="329" y="590"/>
      <point x="373" y="548"/>
      <point x="373" y="479" type="curve" smooth="yes"/>
      <point x="373" y="423"/>
      <point x="342" y="360"/>
      <point x="293" y="330" type="curve"/>
      <point x="311" y="308" type="line"/>
      <point x="412" y="332"/>
      <point x="488" y="413"/>
      <point x="488" y="493" type="curve" smooth="yes"/>
      <point x="488" y="582"/>
      <point x="412" y="656"/>
      <point x="288" y="656" type="curve" smooth="yes"/>
      <point x="142" y="656"/>
      <point x="46" y="567"/>
      <point x="46" y="463" type="curve" smooth="yes"/>
      <point x="46" y="368"/>
      <point x="106" y="305"/>
      <point x="237" y="257" type="curve" smooth="yes"/>
      <point x="344" y="217"/>
      <point x="374" y="184"/>
      <point x="374" y="130" type="curve" smooth="yes"/>
      <point x="374" y="77"/>
      <point x="342" y="46"/>
      <point x="276" y="46" type="curve" smooth="yes"/>
      <point x="206" y="46"/>
      <point x="166" y="90"/>
      <point x="166" y="157" type="curve" smooth="yes"/>
      <point x="166" y="201"/>
      <point x="185" y="246"/>
      <point x="235" y="282" type="curve"/>
      <point x="221" y="296" type="line"/>
      <point x="121" y="277"/>
      <point x="55" y="222"/>
      <point x="55" y="140" type="curve" smooth="yes"/>
      <point x="55" y="48"/>
      <point x="123" y="-15"/>
    </contour>
  </outline>
</glyph>
<glyph name="less" format="1">
  <advance width="522"/>
  <unicode hex="003C"/>
  <outline>
    <contour>
      <point x="470" y="119" type="curve" smooth="yes"/>
      <point x="470" y="144"/>
      <point x="452" y="167"/>
      <point x="411" y="188" type="curve" smooth="yes"/>
      <point x="331" y="228"/>
      <point x="211" y="274"/>
      <point x="83" y="311" type="curve"/>
      <point x="83" y="295" type="line"/>
      <point x="212" y="331"/>
      <point x="331" y="376"/>
      <point x="414" y="420" type="curve" smooth="yes"/>
      <point x="453" y="440"/>
      <point x="470" y="462"/>
      <point x="470" y="485" type="curve" smooth="yes"/>
      <point x="470" y="506"/>
      <point x="458" y="522"/>
      <point x="439" y="522" type="curve" smooth="yes"/>
      <point x="423" y="522"/>
      <point x="403" y="515"/>
      <point x="383" y="500" type="curve" smooth="yes"/>
      <point x="327" y="459"/>
      <point x="187" y="388"/>
      <point x="69" y="344" type="curve" smooth="yes"/>
      <point x="42" y="334"/>
      <point x="33" y="318"/>
      <point x="33" y="303" type="curve" smooth="yes"/>
      <point x="33" y="288"/>
      <point x="42" y="272"/>
      <point x="69" y="262" type="curve" smooth="yes"/>
      <point x="187" y="218"/>
      <point x="329" y="148"/>
      <point x="383" y="107" type="curve" smooth="yes"/>
      <point x="403" y="90"/>
      <point x="423" y="84"/>
      <point x="436" y="84" type="curve" smooth="yes"/>
      <point x="457" y="84"/>
      <point x="470" y="99"/>
    </contour>
  </outline>
</glyph>
<glyph name="question" format="1">
  <advance width="467"/>
  <unicode hex="003F"/>
  <outline>
    <contour>
      <point x="162" y="290" type="line" smooth="yes"/>
      <point x="161" y="297"/>
      <point x="161" y="299"/>
      <point x="161" y="303" type="curve" smooth="yes"/>
      <point x="161" y="320"/>
      <point x="170" y="336"/>
      <point x="192" y="348" type="curve" smooth="yes"/>
      <point x="241" y="375" type="line" smooth="yes"/>
      <point x="297" y="407"/>
      <point x="323" y="455"/>
      <point x="323" y="525" type="curve" smooth="yes"/>
      <point x="323" y="618"/>
      <point x="284" y="663"/>
      <point x="224" y="663" type="curve" smooth="yes"/>
      <point x="179" y="663"/>
      <point x="153" y="643"/>
      <point x="153" y="598" type="curve" smooth="yes"/>
      <point x="153" y="566" type="line" smooth="yes"/>
      <point x="153" y="529"/>
      <point x="123" y="501"/>
      <point x="87" y="501" type="curve" smooth="yes"/>
      <point x="52" y="501"/>
      <point x="29" y="526"/>
      <point x="29" y="569" type="curve" smooth="yes"/>
      <point x="29" y="640"/>
      <point x="115" y="715"/>
      <point x="235" y="715" type="curve" smooth="yes"/>
      <point x="369" y="715"/>
      <point x="445" y="648"/>
      <point x="445" y="533" type="curve" smooth="yes"/>
      <point x="445" y="435"/>
      <point x="387" y="369"/>
      <point x="289" y="330" type="curve" smooth="yes"/>
      <point x="268" y="322" type="line" smooth="yes"/>
      <point x="248" y="314"/>
      <point x="239" y="298"/>
      <point x="235" y="274" type="curve" smooth="yes"/>
      <point x="230" y="229" type="line" smooth="yes"/>
      <point x="227" y="208"/>
      <point x="217" y="197"/>
      <point x="199" y="197" type="curve" smooth="yes"/>
      <point x="181" y="197"/>
      <point x="172" y="212"/>
      <point x="169" y="233" type="curve" smooth="yes"/>
    </contour>
    <component base="period" xScale="0.958125" yScale="0.958125" xOffset="70" yOffset="1"/>
  </outline>
</glyph>
<glyph name="at" format="1">
  <advance width="778"/>
  <unicode hex="0040"/>
  <outline>
    <contour>
      <point x="482" y="236" type="curve"/>
      <point x="481" y="269" type="line"/>
      <point x="457" y="278"/>
      <point x="434" y="286"/>
      <point x="397" y="286" type="curve" smooth="yes"/>
      <point x="293" y="286"/>
      <point x="239" y="243"/>
      <point x="239" y="185" type="curve" smooth="yes"/>
      <point x="239" y="127"/>
      <point x="287" y="89"/>
      <point x="358" y="89" type="curve" smooth="yes"/>
      <point x="412" y="89"/>
      <point x="463" y="113"/>
      <point x="494" y="154" type="curve"/>
      <point x="472" y="186" type="line"/>
      <point x="456" y="158"/>
      <point x="426" y="146"/>
      <point x="394" y="146" type="curve" smooth="yes"/>
      <point x="358" y="146"/>
      <point x="334" y="165"/>
      <point x="334" y="196" type="curve" smooth="yes"/>
      <point x="334" y="224"/>
      <point x="355" y="247"/>
      <point x="396" y="247" type="curve" smooth="yes"/>
      <point x="431" y="247"/>
      <point x="456" y="243"/>
    </contour>
    <contour>
      <point x="261" y="364" type="curve" smooth="yes"/>
      <point x="261" y="335"/>
      <point x="280" y="316"/>
      <point x="305" y="316" type="curve" smooth="yes"/>
      <point x="337" y="316"/>
      <point x="358" y="339"/>
      <point x="358" y="369" type="curve" smooth="yes"/>
      <point x="358" y="389" type="line" smooth="yes"/>
      <point x="358" y="413"/>
      <point x="374" y="423"/>
      <point x="398" y="423" type="curve" smooth="yes"/>
      <point x="433" y="423"/>
      <point x="457" y="400"/>
      <point x="457" y="338" type="curve" smooth="yes"/>
      <point x="457" y="193" type="line" smooth="yes"/>
      <point x="457" y="118"/>
      <point x="508" y="89"/>
      <point x="564" y="89" type="curve" smooth="yes"/>
      <point x="658" y="89"/>
      <point x="731" y="167"/>
      <point x="731" y="301" type="curve" smooth="yes"/>
      <point x="731" y="487"/>
      <point x="598" y="614"/>
      <point x="415" y="614" type="curve" smooth="yes"/>
      <point x="201" y="614"/>
      <point x="44" y="468"/>
      <point x="44" y="267" type="curve" smooth="yes"/>
      <point x="44" y="56"/>
      <point x="189" y="-83"/>
      <point x="406" y="-83" type="curve" smooth="yes"/>
      <point x="532" y="-83"/>
      <point x="641" y="-36"/>
      <point x="704" y="32" type="curve" smooth="yes"/>
      <point x="716" y="44"/>
      <point x="720" y="54"/>
      <point x="720" y="63" type="curve" smooth="yes"/>
      <point x="720" y="74"/>
      <point x="712" y="82"/>
      <point x="700" y="82" type="curve" smooth="yes"/>
      <point x="691" y="82"/>
      <point x="682" y="79"/>
      <point x="669" y="65" type="curve" smooth="yes"/>
      <point x="624" y="21"/>
      <point x="527" y="-24"/>
      <point x="407" y="-24" type="curve" smooth="yes"/>
      <point x="231" y="-24"/>
      <point x="106" y="98"/>
      <point x="106" y="267" type="curve" smooth="yes"/>
      <point x="106" y="436"/>
      <point x="235" y="560"/>
      <point x="409" y="560" type="curve" smooth="yes"/>
      <point x="560" y="560"/>
      <point x="672" y="454"/>
      <point x="672" y="300" type="curve" smooth="yes"/>
      <point x="672" y="197"/>
      <point x="637" y="147"/>
      <point x="588" y="147" type="curve" smooth="yes"/>
      <point x="553" y="147"/>
      <point x="536" y="168"/>
      <point x="536" y="206" type="curve" smooth="yes"/>
      <point x="536" y="355" type="line" smooth="yes"/>
      <point x="536" y="426"/>
      <point x="488" y="459"/>
      <point x="421" y="459" type="curve" smooth="yes"/>
      <point x="320" y="459"/>
      <point x="261" y="409"/>
    </contour>
  </outline>
</glyph>
<glyph name="A" format="1">
  <advance width="721"/>
  <unicode hex="0041"/>
  <outline>
    <contour>
      <point x="179" y="293" type="line"/>
      <point x="182" y="235" type="line"/>
      <point x="500" y="235" type="line"/>
      <point x="494" y="293" type="line"/>
    </contour>
    <contour>
      <point x="258" y="27" type="curve" smooth="yes"/>
      <point x="258" y="40"/>
      <point x="246" y="51"/>
      <point x="218" y="64" type="curve" smooth="yes"/>
      <point x="198" y="75" type="line" smooth="yes"/>
      <point x="177" y="85"/>
      <point x="168" y="105"/>
      <point x="186" y="160" type="curve" smooth="yes"/>
      <point x="322" y="578" type="line" smooth="yes"/>
      <point x="327" y="592"/>
      <point x="332" y="597"/>
      <point x="341" y="597" type="curve" smooth="yes"/>
      <point x="350" y="597"/>
      <point x="356" y="592"/>
      <point x="360" y="578" type="curve" smooth="yes"/>
      <point x="501" y="124" type="line" smooth="yes"/>
      <point x="511" y="90"/>
      <point x="498" y="67"/>
      <point x="479" y="61" type="curve" smooth="yes"/>
      <point x="462" y="57" type="line" smooth="yes"/>
      <point x="446" y="52"/>
      <point x="435" y="44"/>
      <point x="435" y="27" type="curve" smooth="yes"/>
      <point x="435" y="9"/>
      <point x="446" y="0"/>
      <point x="463" y="0" type="curve" smooth="yes"/>
      <point x="682" y="0" type="line" smooth="yes"/>
      <point x="703" y="0"/>
      <point x="718" y="9"/>
      <point x="718" y="26" type="curve" smooth="yes"/>
      <point x="718" y="40"/>
      <point x="711" y="48"/>
      <point x="684" y="60" type="curve" smooth="yes"/>
      <point x="657" y="72"/>
      <point x="645" y="93"/>
      <point x="634" y="128" type="curve" smooth="yes"/>
      <point x="483" y="600" type="line" smooth="yes"/>
      <point x="477" y="619"/>
      <point x="482" y="632"/>
      <point x="493" y="642" type="curve" smooth="yes"/>
      <point x="502" y="649"/>
      <point x="508" y="658"/>
      <point x="508" y="672" type="curve" smooth="yes"/>
      <point x="508" y="688"/>
      <point x="493" y="700"/>
      <point x="473" y="700" type="curve" smooth="yes"/>
      <point x="255" y="700" type="line" smooth="yes"/>
      <point x="237" y="700"/>
      <point x="221" y="688"/>
      <point x="221" y="671" type="curve" smooth="yes"/>
      <point x="221" y="660"/>
      <point x="229" y="650"/>
      <point x="239" y="640" type="curve" smooth="yes"/>
      <point x="251" y="628"/>
      <point x="256" y="613"/>
      <point x="250" y="594" type="curve" smooth="yes"/>
      <point x="109" y="160" type="line" smooth="yes"/>
      <point x="91" y="103"/>
      <point x="63" y="81"/>
      <point x="37" y="64" type="curve" smooth="yes"/>
      <point x="13" y="52"/>
      <point x="3" y="40"/>
      <point x="3" y="25" type="curve" smooth="yes"/>
      <point x="3" y="7"/>
      <point x="14" y="0"/>
      <point x="41" y="0" type="curve" smooth="yes"/>
      <point x="226" y="0" type="line" smooth="yes"/>
      <point x="246" y="0"/>
      <point x="258" y="10"/>
    </contour>
    <contour>
      <point x="370" y="731" type="move" name="center"/>
    </contour>
  </outline>
</glyph>
<glyph name="B" format="1">
  <advance width="672"/>
  <unicode hex="0042"/>
  <outline>
    <contour>
      <point x="641" y="172" type="curve" smooth="yes"/>
      <point x="641" y="277"/>
      <point x="543" y="347"/>
      <point x="396" y="347" type="curve" smooth="yes"/>
      <point x="385" y="347"/>
      <point x="378" y="346"/>
      <point x="367" y="342" type="curve"/>
      <point x="373" y="331" type="line"/>
      <point x="510" y="331"/>
      <point x="601" y="398"/>
      <point x="601" y="498" type="curve" smooth="yes"/>
      <point x="601" y="621"/>
      <point x="491" y="700"/>
      <point x="316" y="700" type="curve" smooth="yes"/>
      <point x="72" y="700" type="line" smooth="yes"/>
      <point x="49" y="700"/>
      <point x="37" y="691"/>
      <point x="37" y="675" type="curve" smooth="yes"/>
      <point x="37" y="662"/>
      <point x="47" y="651"/>
      <point x="65" y="647" type="curve" smooth="yes"/>
      <point x="85" y="641" type="line" smooth="yes"/>
      <point x="111" y="634"/>
      <point x="127" y="615"/>
      <point x="127" y="588" type="curve" smooth="yes"/>
      <point x="127" y="107" type="line" smooth="yes"/>
      <point x="127" y="83"/>
      <point x="111" y="66"/>
      <point x="85" y="59" type="curve" smooth="yes"/>
      <point x="64" y="53" type="line" smooth="yes"/>
      <point x="46" y="48"/>
      <point x="36" y="38"/>
      <point x="36" y="25" type="curve" smooth="yes"/>
      <point x="36" y="9"/>
      <point x="48" y="0"/>
      <point x="71" y="0" type="curve" smooth="yes"/>
      <point x="373" y="0" type="line" smooth="yes"/>
      <point x="536" y="0"/>
      <point x="641" y="67"/>
    </contour>
    <contour>
      <point x="351" y="302" type="line" smooth="yes"/>
      <point x="448" y="302"/>
      <point x="513" y="254"/>
      <point x="513" y="180" type="curve" smooth="yes"/>
      <point x="513" y="108"/>
      <point x="456" y="57"/>
      <point x="378" y="57" type="curve" smooth="yes"/>
      <point x="317" y="57" type="line" smooth="yes"/>
      <point x="279" y="57"/>
      <point x="253" y="78"/>
      <point x="253" y="111" type="curve" smooth="yes"/>
      <point x="253" y="639" type="line"/>
      <point x="311" y="639" type="line" smooth="yes"/>
      <point x="410" y="639"/>
      <point x="474" y="586"/>
      <point x="474" y="506" type="curve" smooth="yes"/>
      <point x="474" y="415"/>
      <point x="412" y="357"/>
      <point x="316" y="357" type="curve" smooth="yes"/>
      <point x="240" y="357" type="line"/>
      <point x="229" y="302" type="line"/>
    </contour>
  </outline>
</glyph>
<glyph name="C" format="1">
  <advance width="667"/>
  <unicode hex="0043"/>
  <outline>
    <contour>
      <point x="645" y="165" type="curve" smooth="yes"/>
      <point x="645" y="177"/>
      <point x="639" y="186"/>
      <point x="629" y="186" type="curve" smooth="yes"/>
      <point x="620" y="186"/>
      <point x="612" y="181"/>
      <point x="599" y="164" type="curve" smooth="yes"/>
      <point x="561" y="119"/>
      <point x="488" y="89"/>
      <point x="416" y="89" type="curve" smooth="yes"/>
      <point x="261" y="89"/>
      <point x="154" y="208"/>
      <point x="154" y="378" type="curve" smooth="yes"/>
      <point x="154" y="548"/>
      <point x="248" y="648"/>
      <point x="377" y="648" type="curve" smooth="yes"/>
      <point x="446" y="648"/>
      <point x="498" y="617"/>
      <point x="564" y="529" type="curve" smooth="yes"/>
      <point x="584" y="503"/>
      <point x="598" y="494"/>
      <point x="614" y="494" type="curve" smooth="yes"/>
      <point x="631" y="494"/>
      <point x="642" y="506"/>
      <point x="642" y="520" type="curve" smooth="yes"/>
      <point x="642" y="530"/>
      <point x="641" y="537"/>
      <point x="633" y="561" type="curve" smooth="yes"/>
      <point x="598" y="671" type="line" smooth="yes"/>
      <point x="587" y="704"/>
      <point x="578" y="715"/>
      <point x="561" y="715" type="curve" smooth="yes"/>
      <point x="539" y="715"/>
      <point x="536" y="688"/>
      <point x="512" y="688" type="curve" smooth="yes"/>
      <point x="490" y="688"/>
      <point x="451" y="713"/>
      <point x="383" y="713" type="curve" smooth="yes"/>
      <point x="182" y="713"/>
      <point x="34" y="558"/>
      <point x="34" y="338" type="curve" smooth="yes"/>
      <point x="34" y="130"/>
      <point x="164" y="-15"/>
      <point x="364" y="-15" type="curve" smooth="yes"/>
      <point x="524" y="-15"/>
      <point x="645" y="80"/>
    </contour>
    <contour>
      <point x="359" y="775" type="move" name="center"/>
    </contour>
  </outline>
</glyph>
<glyph name="D" format="1">
  <advance width="777"/>
  <unicode hex="0044"/>
  <outline>
    <contour>
      <point x="37" y="25" type="curve" smooth="yes"/>
      <point x="37" y="8"/>
      <point x="47" y="0"/>
      <point x="72" y="0" type="curve" smooth="yes"/>
      <point x="376" y="0" type="line" smooth="yes"/>
      <point x="584" y="0"/>
      <point x="742" y="136"/>
      <point x="742" y="320" type="curve" smooth="yes"/>
      <point x="742" y="543"/>
      <point x="563" y="700"/>
      <point x="334" y="700" type="curve" smooth="yes"/>
      <point x="72" y="700" type="line" smooth="yes"/>
      <point x="47" y="700"/>
      <point x="37" y="692"/>
      <point x="37" y="675" type="curve" smooth="yes"/>
      <point x="37" y="658"/>
      <point x="47" y="650"/>
      <point x="65" y="647" type="curve" smooth="yes"/>
      <point x="90" y="641" type="line" smooth="yes"/>
      <point x="114" y="635"/>
      <point x="127" y="623"/>
      <point x="127" y="596" type="curve" smooth="yes"/>
      <point x="127" y="104" type="line" smooth="yes"/>
      <point x="127" y="78"/>
      <point x="114" y="65"/>
      <point x="90" y="60" type="curve" smooth="yes"/>
      <point x="68" y="54" type="line" smooth="yes"/>
      <point x="48" y="50"/>
      <point x="37" y="42"/>
    </contour>
    <contour>
      <point x="379" y="64" type="curve" smooth="yes"/>
      <point x="330" y="64" type="line" smooth="yes"/>
      <point x="281" y="64"/>
      <point x="253" y="93"/>
      <point x="253" y="146" type="curve" smooth="yes"/>
      <point x="253" y="586" type="line" smooth="yes"/>
      <point x="253" y="621"/>
      <point x="266" y="637"/>
      <point x="301" y="637" type="curve" smooth="yes"/>
      <point x="351" y="637" type="line" smooth="yes"/>
      <point x="494" y="637"/>
      <point x="612" y="510"/>
      <point x="612" y="338" type="curve" smooth="yes"/>
      <point x="612" y="178"/>
      <point x="509" y="64"/>
    </contour>
  </outline>
</glyph>
<glyph name="E" format="1">
  <advance width="644"/>
  <unicode hex="0045"/>
  <outline>
    <contour>
      <point x="219" y="374" type="line"/>
      <point x="210" y="319" type="line"/>
      <point x="370" y="319" type="line" smooth="yes"/>
      <point x="415" y="319"/>
      <point x="440" y="307"/>
      <point x="459" y="283" type="curve" smooth="yes"/>
      <point x="477" y="259"/>
      <point x="487" y="248"/>
      <point x="504" y="248" type="curve" smooth="yes"/>
      <point x="518" y="248"/>
      <point x="528" y="256"/>
      <point x="528" y="271" type="curve" smooth="yes"/>
      <point x="528" y="275"/>
      <point x="528" y="280"/>
      <point x="525" y="291" type="curve" smooth="yes"/>
      <point x="492" y="418" type="line" smooth="yes"/>
      <point x="488" y="436"/>
      <point x="480" y="445"/>
      <point x="464" y="445" type="curve" smooth="yes"/>
      <point x="450" y="445"/>
      <point x="442" y="436"/>
      <point x="434" y="419" type="curve" smooth="yes"/>
      <point x="418" y="386"/>
      <point x="399" y="374"/>
      <point x="368" y="374" type="curve" smooth="yes"/>
    </contour>
    <contour>
      <point x="36" y="673" type="curve" smooth="yes"/>
      <point x="36" y="658"/>
      <point x="46" y="649"/>
      <point x="63" y="645" type="curve" smooth="yes"/>
      <point x="98" y="637" type="line" smooth="yes"/>
      <point x="115" y="633"/>
      <point x="126" y="620"/>
      <point x="126" y="601" type="curve" smooth="yes"/>
      <point x="126" y="115" type="line" smooth="yes"/>
      <point x="126" y="85"/>
      <point x="114" y="71"/>
      <point x="88" y="63" type="curve" smooth="yes"/>
      <point x="68" y="57" type="line" smooth="yes"/>
      <point x="46" y="51"/>
      <point x="36" y="42"/>
      <point x="36" y="25" type="curve" smooth="yes"/>
      <point x="36" y="8"/>
      <point x="48" y="0"/>
      <point x="68" y="0" type="curve" smooth="yes"/>
      <point x="458" y="0" type="line" smooth="yes"/>
      <point x="485" y="0"/>
      <point x="501" y="-27"/>
      <point x="527" y="-27" type="curve" smooth="yes"/>
      <point x="547" y="-27"/>
      <point x="561" y="-16"/>
      <point x="567" y="7" type="curve" smooth="yes"/>
      <point x="601" y="140" type="line" smooth="yes"/>
      <point x="605" y="155"/>
      <point x="605" y="165"/>
      <point x="605" y="173" type="curve" smooth="yes"/>
      <point x="605" y="189"/>
      <point x="597" y="199"/>
      <point x="579" y="199" type="curve" smooth="yes"/>
      <point x="562" y="199"/>
      <point x="548" y="187"/>
      <point x="528" y="153" type="curve" smooth="yes"/>
      <point x="486" y="83"/>
      <point x="457" y="63"/>
      <point x="407" y="63" type="curve" smooth="yes"/>
      <point x="330" y="63" type="line" smooth="yes"/>
      <point x="280" y="63"/>
      <point x="253" y="90"/>
      <point x="253" y="133" type="curve" smooth="yes"/>
      <point x="253" y="643" type="line"/>
      <point x="379" y="643" type="line" smooth="yes"/>
      <point x="432" y="643"/>
      <point x="469" y="616"/>
      <point x="517" y="547" type="curve" smooth="yes"/>
      <point x="534" y="521"/>
      <point x="550" y="512"/>
      <point x="566" y="512" type="curve" smooth="yes"/>
      <point x="580" y="512"/>
      <point x="591" y="521"/>
      <point x="591" y="536" type="curve" smooth="yes"/>
      <point x="591" y="541"/>
      <point x="590" y="550"/>
      <point x="587" y="561" type="curve" smooth="yes"/>
      <point x="553" y="699" type="line" smooth="yes"/>
      <point x="548" y="720"/>
      <point x="539" y="729"/>
      <point x="520" y="729" type="curve" smooth="yes"/>
      <point x="508" y="729"/>
      <point x="498" y="724"/>
      <point x="487" y="714" type="curve" smooth="yes"/>
      <point x="477" y="705"/>
      <point x="465" y="700"/>
      <point x="453" y="700" type="curve" smooth="yes"/>
      <point x="64" y="700" type="line" smooth="yes"/>
      <point x="46" y="700"/>
      <point x="36" y="690"/>
    </contour>
  </outline>
</glyph>
<glyph name="F" format="1">
  <advance width="582"/>
  <unicode hex="0046"/>
  <outline>
    <contour>
      <point x="419" y="700" type="curve" smooth="yes"/>
      <point x="69" y="700" type="line" smooth="yes"/>
      <point x="47" y="700"/>
      <point x="34" y="691"/>
      <point x="34" y="673" type="curve" smooth="yes"/>
      <point x="34" y="655"/>
      <point x="47" y="648"/>
      <point x="70" y="642" type="curve" smooth="yes"/>
      <point x="93" y="637" type="line" smooth="yes"/>
      <point x="112" y="634"/>
      <point x="124" y="618"/>
      <point x="124" y="595" type="curve" smooth="yes"/>
      <point x="124" y="116" type="line" smooth="yes"/>
      <point x="124" y="86"/>
      <point x="112" y="72"/>
      <point x="86" y="64" type="curve" smooth="yes"/>
      <point x="71" y="59" type="line" smooth="yes"/>
      <point x="46" y="52"/>
      <point x="34" y="44"/>
      <point x="34" y="27" type="curve" smooth="yes"/>
      <point x="34" y="9"/>
      <point x="48" y="0"/>
      <point x="69" y="0" type="curve" smooth="yes"/>
      <point x="327" y="0" type="line" smooth="yes"/>
      <point x="346" y="0"/>
      <point x="363" y="9"/>
      <point x="363" y="27" type="curve" smooth="yes"/>
      <point x="363" y="39"/>
      <point x="353" y="50"/>
      <point x="335" y="55" type="curve" smooth="yes"/>
      <point x="295" y="65" type="line" smooth="yes"/>
      <point x="266" y="72"/>
      <point x="251" y="89"/>
      <point x="251" y="124" type="curve" smooth="yes"/>
      <point x="251" y="642" type="line"/>
      <point x="371" y="642" type="line" smooth="yes"/>
      <point x="413" y="642"/>
      <point x="442" y="617"/>
      <point x="487" y="554" type="curve" smooth="yes"/>
      <point x="505" y="527"/>
      <point x="518" y="518"/>
      <point x="534" y="518" type="curve" smooth="yes"/>
      <point x="548" y="518"/>
      <point x="557" y="527"/>
      <point x="557" y="543" type="curve" smooth="yes"/>
      <point x="557" y="547"/>
      <point x="556" y="556"/>
      <point x="553" y="568" type="curve" smooth="yes"/>
      <point x="522" y="698" type="line" smooth="yes"/>
      <point x="516" y="718"/>
      <point x="510" y="728"/>
      <point x="492" y="728" type="curve" smooth="yes"/>
      <point x="479" y="728"/>
      <point x="471" y="723"/>
      <point x="459" y="713" type="curve" smooth="yes"/>
      <point x="447" y="703"/>
      <point x="433" y="700"/>
    </contour>
    <contour>
      <point x="221" y="356" type="line"/>
      <point x="215" y="302" type="line"/>
      <point x="365" y="302" type="line" smooth="yes"/>
      <point x="411" y="302"/>
      <point x="437" y="287"/>
      <point x="457" y="261" type="curve" smooth="yes"/>
      <point x="473" y="240"/>
      <point x="483" y="230"/>
      <point x="499" y="230" type="curve" smooth="yes"/>
      <point x="511" y="230"/>
      <point x="520" y="238"/>
      <point x="520" y="251" type="curve" smooth="yes"/>
      <point x="520" y="256"/>
      <point x="520" y="262"/>
      <point x="517" y="274" type="curve" smooth="yes"/>
      <point x="485" y="402" type="line" smooth="yes"/>
      <point x="481" y="418"/>
      <point x="474" y="427"/>
      <point x="459" y="427" type="curve" smooth="yes"/>
      <point x="446" y="427"/>
      <point x="439" y="418"/>
      <point x="432" y="403" type="curve" smooth="yes"/>
      <point x="415" y="367"/>
      <point x="393" y="356"/>
      <point x="363" y="356" type="curve" smooth="yes"/>
    </contour>
  </outline>
</glyph>
<glyph name="G" format="1">
  <advance width="753"/>
  <unicode hex="0047"/>
  <outline>
    <contour>
      <point x="658" y="29" type="curve" smooth="yes"/>
      <point x="658" y="200" type="line" smooth="yes"/>
      <point x="658" y="226"/>
      <point x="668" y="243"/>
      <point x="685" y="250" type="curve" smooth="yes"/>
      <point x="699" y="256" type="line" smooth="yes"/>
      <point x="721" y="265"/>
      <point x="727" y="272"/>
      <point x="727" y="286" type="curve" smooth="yes"/>
      <point x="727" y="302"/>
      <point x="713" y="311"/>
      <point x="692" y="311" type="curve" smooth="yes"/>
      <point x="458" y="311" type="line" smooth="yes"/>
      <point x="436" y="311"/>
      <point x="423" y="302"/>
      <point x="423" y="286" type="curve" smooth="yes"/>
      <point x="423" y="268"/>
      <point x="435" y="259"/>
      <point x="457" y="255" type="curve" smooth="yes"/>
      <point x="488" y="250" type="line" smooth="yes"/>
      <point x="515" y="245"/>
      <point x="531" y="230"/>
      <point x="531" y="207" type="curve" smooth="yes"/>
      <point x="531" y="121" type="line" smooth="yes"/>
      <point x="531" y="81"/>
      <point x="498" y="60"/>
      <point x="416" y="60" type="curve" smooth="yes"/>
      <point x="267" y="60"/>
      <point x="166" y="179"/>
      <point x="166" y="365" type="curve" smooth="yes"/>
      <point x="166" y="537"/>
      <point x="253" y="652"/>
      <point x="396" y="652" type="curve" smooth="yes"/>
      <point x="464" y="652"/>
      <point x="526" y="625"/>
      <point x="603" y="528" type="curve" smooth="yes"/>
      <point x="625" y="500"/>
      <point x="639" y="492"/>
      <point x="655" y="492" type="curve" smooth="yes"/>
      <point x="671" y="492"/>
      <point x="682" y="502"/>
      <point x="682" y="518" type="curve" smooth="yes"/>
      <point x="682" y="529"/>
      <point x="679" y="539"/>
      <point x="675" y="554" type="curve" smooth="yes"/>
      <point x="638" y="681" type="line" smooth="yes"/>
      <point x="631" y="706"/>
      <point x="622" y="713"/>
      <point x="607" y="713" type="curve" smooth="yes"/>
      <point x="586" y="713"/>
      <point x="573" y="683"/>
      <point x="549" y="683" type="curve" smooth="yes"/>
      <point x="529" y="683"/>
      <point x="491" y="713"/>
      <point x="409" y="713" type="curve" smooth="yes"/>
      <point x="181" y="713"/>
      <point x="34" y="551"/>
      <point x="34" y="330" type="curve" smooth="yes"/>
      <point x="34" y="122"/>
      <point x="172" y="-15"/>
      <point x="368" y="-15" type="curve" smooth="yes"/>
      <point x="458" y="-15"/>
      <point x="502" y="26"/>
      <point x="536" y="26" type="curve" smooth="yes"/>
      <point x="563" y="26"/>
      <point x="583" y="-15"/>
      <point x="613" y="-15" type="curve" smooth="yes"/>
      <point x="646" y="-15"/>
      <point x="658" y="3"/>
    </contour>
  </outline>
</glyph>
<glyph name="H" format="1">
  <advance width="818"/>
  <unicode hex="0048"/>
  <outline>
    <contour>
      <point x="189" y="365" type="line"/>
      <point x="189" y="300" type="line"/>
      <point x="633" y="300" type="line"/>
      <point x="633" y="365" type="line"/>
    </contour>
    <component base="I" xOffset="-1"/>
    <component base="I" xOffset="438"/>
  </outline>
</glyph>
<glyph name="I" format="1">
  <advance width="381"/>
  <unicode hex="0049"/>
  <outline>
    <contour>
      <point x="254" y="105" type="curve" smooth="yes"/>
      <point x="254" y="594" type="line" smooth="yes"/>
      <point x="254" y="621"/>
      <point x="266" y="634"/>
      <point x="291" y="639" type="curve" smooth="yes"/>
      <point x="315" y="645" type="line" smooth="yes"/>
      <point x="334" y="649"/>
      <point x="346" y="657"/>
      <point x="346" y="675" type="curve" smooth="yes"/>
      <point x="346" y="692"/>
      <point x="335" y="700"/>
      <point x="311" y="700" type="curve" smooth="yes"/>
      <point x="70" y="700" type="line" smooth="yes"/>
      <point x="45" y="700"/>
      <point x="35" y="692"/>
      <point x="35" y="675" type="curve" smooth="yes"/>
      <point x="35" y="657"/>
      <point x="45" y="649"/>
      <point x="65" y="645" type="curve" smooth="yes"/>
      <point x="90" y="639" type="line" smooth="yes"/>
      <point x="114" y="634"/>
      <point x="127" y="621"/>
      <point x="127" y="594" type="curve" smooth="yes"/>
      <point x="127" y="105" type="line" smooth="yes"/>
      <point x="127" y="79"/>
      <point x="114" y="66"/>
      <point x="90" y="61" type="curve" smooth="yes"/>
      <point x="68" y="55" type="line" smooth="yes"/>
      <point x="47" y="50"/>
      <point x="35" y="43"/>
      <point x="35" y="25" type="curve" smooth="yes"/>
      <point x="35" y="8"/>
      <point x="45" y="0"/>
      <point x="70" y="0" type="curve" smooth="yes"/>
      <point x="311" y="0" type="line" smooth="yes"/>
      <point x="335" y="0"/>
      <point x="346" y="8"/>
      <point x="346" y="25" type="curve" smooth="yes"/>
      <point x="346" y="43"/>
      <point x="335" y="51"/>
      <point x="315" y="55" type="curve" smooth="yes"/>
      <point x="291" y="61" type="line" smooth="yes"/>
      <point x="266" y="66"/>
      <point x="254" y="79"/>
    </contour>
  </outline>
</glyph>
<glyph name="J" format="1">
  <advance width="453"/>
  <unicode hex="004A"/>
  <outline>
    <contour>
      <point x="380" y="138" type="curve" smooth="yes"/>
      <point x="380" y="168"/>
      <point x="372" y="195"/>
      <point x="361" y="224" type="curve" smooth="yes"/>
      <point x="349" y="256"/>
      <point x="344" y="280"/>
      <point x="344" y="315" type="curve" smooth="yes"/>
      <point x="343" y="576" type="line" smooth="yes"/>
      <point x="343" y="614"/>
      <point x="353" y="634"/>
      <point x="373" y="640" type="curve" smooth="yes"/>
      <point x="393" y="645" type="line" smooth="yes"/>
      <point x="412" y="650"/>
      <point x="423" y="657"/>
      <point x="423" y="674" type="curve" smooth="yes"/>
      <point x="423" y="692"/>
      <point x="413" y="699"/>
      <point x="389" y="699" type="curve" smooth="yes"/>
      <point x="151" y="699" type="line" smooth="yes"/>
      <point x="129" y="699"/>
      <point x="118" y="692"/>
      <point x="118" y="674" type="curve" smooth="yes"/>
      <point x="118" y="657"/>
      <point x="129" y="649"/>
      <point x="149" y="645" type="curve" smooth="yes"/>
      <point x="170" y="640" type="line" smooth="yes"/>
      <point x="201" y="634"/>
      <point x="217" y="619"/>
      <point x="217" y="587" type="curve" smooth="yes"/>
      <point x="217" y="297" type="line" smooth="yes"/>
      <point x="217" y="257"/>
      <point x="224" y="221"/>
      <point x="244" y="184" type="curve" smooth="yes"/>
      <point x="262" y="151"/>
      <point x="273" y="126"/>
      <point x="273" y="96" type="curve" smooth="yes"/>
      <point x="273" y="57"/>
      <point x="246" y="34"/>
      <point x="204" y="34" type="curve" smooth="yes"/>
      <point x="169" y="34"/>
      <point x="156" y="54"/>
      <point x="156" y="85" type="curve" smooth="yes"/>
      <point x="156" y="118" type="line" smooth="yes"/>
      <point x="156" y="159"/>
      <point x="134" y="188"/>
      <point x="96" y="188" type="curve" smooth="yes"/>
      <point x="49" y="188"/>
      <point x="25" y="158"/>
      <point x="25" y="112" type="curve" smooth="yes"/>
      <point x="25" y="38"/>
      <point x="83" y="-17"/>
      <point x="189" y="-17" type="curve" smooth="yes"/>
      <point x="306" y="-17"/>
      <point x="380" y="45"/>
    </contour>
    <contour>
      <point x="271" y="732" type="move" name="center"/>
    </contour>
  </outline>
</glyph>
<glyph name="K" format="1">
  <advance width="734"/>
  <unicode hex="004B"/>
  <outline>
    <contour>
      <point x="186" y="212" type="line"/>
      <point x="232" y="188" type="line"/>
      <point x="573" y="553" type="line" smooth="yes"/>
      <point x="612" y="592"/>
      <point x="641" y="616"/>
      <point x="674" y="630" type="curve" smooth="yes"/>
      <point x="698" y="640"/>
      <point x="714" y="649"/>
      <point x="713" y="672" type="curve" smooth="yes"/>
      <point x="712" y="687"/>
      <point x="702" y="700"/>
      <point x="677" y="700" type="curve" smooth="yes"/>
      <point x="490" y="700" type="line" smooth="yes"/>
      <point x="470" y="700"/>
      <point x="456" y="692"/>
      <point x="456" y="676" type="curve" smooth="yes"/>
      <point x="456" y="663"/>
      <point x="463" y="655"/>
      <point x="478" y="647" type="curve" smooth="yes"/>
      <point x="500" y="634" type="line" smooth="yes"/>
      <point x="515" y="624"/>
      <point x="523" y="617"/>
      <point x="523" y="605" type="curve" smooth="yes"/>
      <point x="523" y="588"/>
      <point x="516" y="574"/>
      <point x="499" y="556" type="curve" smooth="yes"/>
    </contour>
    <contour>
      <point x="341" y="353" type="line"/>
      <point x="487" y="123" type="line" smooth="yes"/>
      <point x="496" y="108"/>
      <point x="502" y="100"/>
      <point x="502" y="84" type="curve" smooth="yes"/>
      <point x="502" y="71"/>
      <point x="498" y="64"/>
      <point x="480" y="53" type="curve" smooth="yes"/>
      <point x="466" y="45"/>
      <point x="456" y="39"/>
      <point x="456" y="24" type="curve" smooth="yes"/>
      <point x="456" y="8"/>
      <point x="468" y="0"/>
      <point x="489" y="0" type="curve" smooth="yes"/>
      <point x="691" y="0" type="line" smooth="yes"/>
      <point x="717" y="0"/>
      <point x="728" y="11"/>
      <point x="728" y="29" type="curve" smooth="yes"/>
      <point x="728" y="46"/>
      <point x="718" y="52"/>
      <point x="701" y="59" type="curve" smooth="yes"/>
      <point x="682" y="68"/>
      <point x="667" y="75"/>
      <point x="650" y="100" type="curve" smooth="yes"/>
      <point x="430" y="430" type="line"/>
    </contour>
    <component base="I"/>
  </outline>
</glyph>
<glyph name="L" format="1">
  <advance width="583"/>
  <unicode hex="004C"/>
  <outline>
    <contour>
      <point x="335" y="646" type="line" smooth="yes"/>
      <point x="354" y="650"/>
      <point x="363" y="661"/>
      <point x="363" y="673" type="curve" smooth="yes"/>
      <point x="363" y="691"/>
      <point x="348" y="700"/>
      <point x="331" y="700" type="curve" smooth="yes"/>
      <point x="69" y="700" type="line" smooth="yes"/>
      <point x="50" y="700"/>
      <point x="37" y="691"/>
      <point x="37" y="673" type="curve" smooth="yes"/>
      <point x="37" y="656"/>
      <point x="49" y="648"/>
      <point x="70" y="642" type="curve" smooth="yes"/>
      <point x="89" y="637" type="line" smooth="yes"/>
      <point x="115" y="629"/>
      <point x="127" y="615"/>
      <point x="127" y="585" type="curve" smooth="yes"/>
      <point x="127" y="99" type="line" smooth="yes"/>
      <point x="127" y="80"/>
      <point x="116" y="67"/>
      <point x="99" y="63" type="curve" smooth="yes"/>
      <point x="69" y="57" type="line" smooth="yes"/>
      <point x="49" y="52"/>
      <point x="37" y="45"/>
      <point x="37" y="27" type="curve" smooth="yes"/>
      <point x="37" y="9"/>
      <point x="48" y="0"/>
      <point x="68" y="0" type="curve" smooth="yes"/>
      <point x="432" y="0" type="line" smooth="yes"/>
      <point x="445" y="0"/>
      <point x="459" y="-4"/>
      <point x="471" y="-14" type="curve" smooth="yes"/>
      <point x="481" y="-23"/>
      <point x="490" y="-29"/>
      <point x="502" y="-29" type="curve" smooth="yes"/>
      <point x="521" y="-29"/>
      <point x="528" y="-19"/>
      <point x="534" y="2" type="curve" smooth="yes"/>
      <point x="577" y="150" type="line" smooth="yes"/>
      <point x="586" y="181"/>
      <point x="573" y="196"/>
      <point x="558" y="196" type="curve" smooth="yes"/>
      <point x="541" y="196"/>
      <point x="529" y="190"/>
      <point x="511" y="162" type="curve" smooth="yes"/>
      <point x="480" y="118" type="line" smooth="yes"/>
      <point x="452" y="79"/>
      <point x="418" y="61"/>
      <point x="376" y="61" type="curve" smooth="yes"/>
      <point x="327" y="61" type="line" smooth="yes"/>
      <point x="276" y="61"/>
      <point x="253" y="83"/>
      <point x="253" y="128" type="curve" smooth="yes"/>
      <point x="253" y="579" type="line" smooth="yes"/>
      <point x="253" y="614"/>
      <point x="268" y="630"/>
      <point x="297" y="637" type="curve" smooth="yes"/>
    </contour>
    <contour>
      <point x="199" y="742" type="move" name="center"/>
    </contour>
  </outline>
</glyph>
<glyph name="M" format="1">
  <advance width="912"/>
  <unicode hex="004D"/>
  <outline>
    <contour>
      <point x="490" y="188" type="line"/>
      <point x="282" y="655" type="line" smooth="yes"/>
      <point x="268" y="687"/>
      <point x="250" y="700"/>
      <point x="225" y="700" type="curve" smooth="yes"/>
      <point x="103" y="700" type="line" smooth="yes"/>
      <point x="82" y="700"/>
      <point x="68" y="692"/>
      <point x="68" y="675" type="curve" smooth="yes"/>
      <point x="68" y="661"/>
      <point x="78" y="647"/>
      <point x="96" y="640" type="curve" smooth="yes"/>
      <point x="115" y="633" type="line" smooth="yes"/>
      <point x="134" y="626"/>
      <point x="149" y="614"/>
      <point x="147" y="594" type="curve" smooth="yes"/>
      <point x="111" y="121" type="line" smooth="yes"/>
      <point x="109" y="94"/>
      <point x="94" y="81"/>
      <point x="70" y="70" type="curve" smooth="yes"/>
      <point x="52" y="62" type="line" smooth="yes"/>
      <point x="28" y="51"/>
      <point x="19" y="41"/>
      <point x="19" y="25" type="curve" smooth="yes"/>
      <point x="19" y="6"/>
      <point x="34" y="0"/>
      <point x="54" y="0" type="curve" smooth="yes"/>
      <point x="234" y="0" type="line" smooth="yes"/>
      <point x="257" y="0"/>
      <point x="273" y="10"/>
      <point x="273" y="26" type="curve" smooth="yes"/>
      <point x="273" y="44"/>
      <point x="266" y="52"/>
      <point x="250" y="58" type="curve" smooth="yes"/>
      <point x="213" y="72" type="line" smooth="yes"/>
      <point x="185" y="83"/>
      <point x="172" y="99"/>
      <point x="174" y="121" type="curve" smooth="yes"/>
      <point x="210" y="592" type="line"/>
      <point x="175" y="585" type="line"/>
      <point x="390" y="104" type="line" smooth="yes"/>
      <point x="405" y="70"/>
      <point x="417" y="61"/>
      <point x="438" y="61" type="curve" smooth="yes"/>
      <point x="456" y="61"/>
      <point x="473" y="78"/>
      <point x="488" y="112" type="curve" smooth="yes"/>
      <point x="698" y="608" type="line"/>
      <point x="654" y="607" type="line"/>
      <point x="693" y="103" type="line" smooth="yes"/>
      <point x="695" y="77"/>
      <point x="684" y="63"/>
      <point x="666" y="59" type="curve" smooth="yes"/>
      <point x="641" y="53" type="line" smooth="yes"/>
      <point x="623" y="49"/>
      <point x="613" y="42"/>
      <point x="613" y="25" type="curve" smooth="yes"/>
      <point x="613" y="8"/>
      <point x="622" y="0"/>
      <point x="644" y="0" type="curve" smooth="yes"/>
      <point x="866" y="0" type="line" smooth="yes"/>
      <point x="890" y="0"/>
      <point x="901" y="8"/>
      <point x="901" y="25" type="curve" smooth="yes"/>
      <point x="901" y="42"/>
      <point x="890" y="47"/>
      <point x="873" y="53" type="curve" smooth="yes"/>
      <point x="857" y="59" type="line" smooth="yes"/>
      <point x="833" y="68"/>
      <point x="823" y="77"/>
      <point x="821" y="103" type="curve" smooth="yes"/>
      <point x="781" y="593" type="line" smooth="yes"/>
      <point x="779" y="619"/>
      <point x="791" y="633"/>
      <point x="808" y="638" type="curve" smooth="yes"/>
      <point x="836" y="647" type="line" smooth="yes"/>
      <point x="853" y="652"/>
      <point x="862" y="658"/>
      <point x="862" y="677" type="curve" smooth="yes"/>
      <point x="862" y="693"/>
      <point x="851" y="700"/>
      <point x="824" y="700" type="curve" smooth="yes"/>
      <point x="824" y="700"/>
      <point x="730" y="700"/>
      <point x="713" y="700" type="curve" smooth="yes"/>
      <point x="687" y="700"/>
      <point x="667" y="684"/>
      <point x="654" y="653" type="curve" smooth="yes"/>
      <point x="453" y="184" type="line"/>
    </contour>
  </outline>
</glyph>
<glyph name="N" format="1">
  <advance width="795"/>
  <unicode hex="004E"/>
  <outline>
    <contour>
      <point x="298" y="28" type="curve" smooth="yes"/>
      <point x="298" y="46"/>
      <point x="290" y="53"/>
      <point x="273" y="62" type="curve" smooth="yes"/>
      <point x="248" y="75" type="line" smooth="yes"/>
      <point x="219" y="89"/>
      <point x="200" y="107"/>
      <point x="200" y="132" type="curve" smooth="yes"/>
      <point x="200" y="545" type="line"/>
      <point x="180" y="528" type="line"/>
      <point x="550" y="86" type="line" smooth="yes"/>
      <point x="564" y="69"/>
      <point x="575" y="55"/>
      <point x="575" y="36" type="curve" smooth="yes"/>
      <point x="575" y="17"/>
      <point x="589" y="0"/>
      <point x="612" y="0" type="curve" smooth="yes"/>
      <point x="707" y="0" type="line" smooth="yes"/>
      <point x="726" y="0"/>
      <point x="738" y="9"/>
      <point x="738" y="26" type="curve" smooth="yes"/>
      <point x="738" y="38"/>
      <point x="734" y="48"/>
      <point x="722" y="62" type="curve" smooth="yes"/>
      <point x="699" y="88" type="line" smooth="yes"/>
      <point x="686" y="103"/>
      <point x="674" y="122"/>
      <point x="674" y="147" type="curve" smooth="yes"/>
      <point x="674" y="555" type="line" smooth="yes"/>
      <point x="674" y="587"/>
      <point x="689" y="606"/>
      <point x="708" y="617" type="curve" smooth="yes"/>
      <point x="741" y="635" type="line" smooth="yes"/>
      <point x="762" y="647"/>
      <point x="767" y="656"/>
      <point x="767" y="671" type="curve" smooth="yes"/>
      <point x="767" y="688"/>
      <point x="755" y="700"/>
      <point x="736" y="700" type="curve" smooth="yes"/>
      <point x="530" y="700" type="line" smooth="yes"/>
      <point x="513" y="700"/>
      <point x="502" y="690"/>
      <point x="502" y="673" type="curve" smooth="yes"/>
      <point x="502" y="657"/>
      <point x="512" y="645"/>
      <point x="536" y="634" type="curve" smooth="yes"/>
      <point x="566" y="621" type="line" smooth="yes"/>
      <point x="595" y="608"/>
      <point x="605" y="593"/>
      <point x="605" y="560" type="curve" smooth="yes"/>
      <point x="605" y="149" type="line"/>
      <point x="626" y="182" type="line"/>
      <point x="228" y="660" type="line" smooth="yes"/>
      <point x="200" y="693"/>
      <point x="188" y="700"/>
      <point x="166" y="700" type="curve" smooth="yes"/>
      <point x="72" y="700" type="line" smooth="yes"/>
      <point x="53" y="700"/>
      <point x="41" y="692"/>
      <point x="41" y="674" type="curve" smooth="yes"/>
      <point x="41" y="658"/>
      <point x="48" y="649"/>
      <point x="64" y="635" type="curve" smooth="yes"/>
      <point x="102" y="601" type="line" smooth="yes"/>
      <point x="120" y="585"/>
      <point x="131" y="570"/>
      <point x="131" y="541" type="curve" smooth="yes"/>
      <point x="131" y="131" type="line" smooth="yes"/>
      <point x="131" y="105"/>
      <point x="114" y="85"/>
      <point x="92" y="75" type="curve" smooth="yes"/>
      <point x="66" y="63" type="line" smooth="yes"/>
      <point x="44" y="52"/>
      <point x="32" y="44"/>
      <point x="32" y="25" type="curve" smooth="yes"/>
      <point x="32" y="7"/>
      <point x="46" y="0"/>
      <point x="67" y="0" type="curve" smooth="yes"/>
      <point x="259" y="0" type="line" smooth="yes"/>
      <point x="283" y="0"/>
      <point x="298" y="10"/>
    </contour>
  </outline>
</glyph>
<glyph name="O" format="1">
  <advance width="790"/>
  <unicode hex="004F"/>
  <outline>
    <contour>
      <point x="395" y="713" type="curve" smooth="yes"/>
      <point x="180" y="713"/>
      <point x="34" y="558"/>
      <point x="34" y="354" type="curve" smooth="yes"/>
      <point x="34" y="139"/>
      <point x="182" y="-15"/>
      <point x="395" y="-15" type="curve" smooth="yes"/>
      <point x="608" y="-15"/>
      <point x="755" y="139"/>
      <point x="755" y="355" type="curve" smooth="yes"/>
      <point x="755" y="559"/>
      <point x="607" y="713"/>
    </contour>
    <contour>
      <point x="619" y="295" type="curve" smooth="yes"/>
      <point x="619" y="145"/>
      <point x="544" y="57"/>
      <point x="439" y="57" type="curve" smooth="yes"/>
      <point x="290" y="57"/>
      <point x="169" y="207"/>
      <point x="169" y="409" type="curve" smooth="yes"/>
      <point x="169" y="549"/>
      <point x="243" y="642"/>
      <point x="352" y="642" type="curve" smooth="yes"/>
      <point x="499" y="642"/>
      <point x="619" y="494"/>
    </contour>
  </outline>
</glyph>
<glyph name="P" format="1">
  <advance width="646"/>
  <unicode hex="0050"/>
  <outline>
    <contour>
      <point x="633" y="442" type="curve" smooth="yes"/>
      <point x="633" y="596"/>
      <point x="504" y="700"/>
      <point x="311" y="700" type="curve" smooth="yes"/>
      <point x="67" y="700" type="line" smooth="yes"/>
      <point x="47" y="700"/>
      <point x="36" y="691"/>
      <point x="36" y="675" type="curve" smooth="yes"/>
      <point x="36" y="660"/>
      <point x="45" y="650"/>
      <point x="64" y="646" type="curve" smooth="yes"/>
      <point x="89" y="640" type="line" smooth="yes"/>
      <point x="113" y="635"/>
      <point x="126" y="618"/>
      <point x="126" y="595" type="curve" smooth="yes"/>
      <point x="126" y="103" type="line" smooth="yes"/>
      <point x="126" y="81"/>
      <point x="113" y="65"/>
      <point x="89" y="59" type="curve" smooth="yes"/>
      <point x="64" y="53" type="line" smooth="yes"/>
      <point x="45" y="49"/>
      <point x="36" y="40"/>
      <point x="36" y="25" type="curve" smooth="yes"/>
      <point x="36" y="9"/>
      <point x="47" y="0"/>
      <point x="67" y="0" type="curve" smooth="yes"/>
      <point x="312" y="0" type="line" smooth="yes"/>
      <point x="331" y="0"/>
      <point x="343" y="9"/>
      <point x="343" y="25" type="curve" smooth="yes"/>
      <point x="343" y="40"/>
      <point x="333" y="49"/>
      <point x="315" y="53" type="curve" smooth="yes"/>
      <point x="290" y="59" type="line" smooth="yes"/>
      <point x="266" y="65"/>
      <point x="253" y="81"/>
      <point x="253" y="103" type="curve" smooth="yes"/>
      <point x="253" y="639" type="line"/>
      <point x="306" y="639" type="line" smooth="yes"/>
      <point x="419" y="639"/>
      <point x="500" y="563"/>
      <point x="500" y="458" type="curve" smooth="yes"/>
      <point x="500" y="347"/>
      <point x="428" y="280"/>
      <point x="328" y="280" type="curve" smooth="yes"/>
      <point x="252" y="280"/>
      <point x="216" y="294"/>
      <point x="176" y="315" type="curve"/>
      <point x="166" y="262" type="line"/>
      <point x="210" y="238"/>
      <point x="252" y="223"/>
      <point x="348" y="223" type="curve" smooth="yes"/>
      <point x="517" y="223"/>
      <point x="633" y="311"/>
    </contour>
  </outline>
</glyph>
<glyph name="Q" format="1">
  <advance width="792"/>
  <unicode hex="0051"/>
  <outline>
    <contour>
      <point x="405" y="175" type="curve" smooth="yes"/>
      <point x="462" y="-61"/>
      <point x="575" y="-163"/>
      <point x="693" y="-163" type="curve" smooth="yes"/>
      <point x="726" y="-163"/>
      <point x="739" y="-149"/>
      <point x="748" y="-128" type="curve" smooth="yes"/>
      <point x="765" y="-85" type="line" smooth="yes"/>
      <point x="771" y="-71"/>
      <point x="775" y="-61"/>
      <point x="775" y="-49" type="curve" smooth="yes"/>
      <point x="775" y="-36"/>
      <point x="765" y="-28"/>
      <point x="754" y="-28" type="curve" smooth="yes"/>
      <point x="733" y="-28"/>
      <point x="717" y="-43"/>
      <point x="676" y="-43" type="curve" smooth="yes"/>
      <point x="585" y="-43"/>
      <point x="511" y="13"/>
      <point x="457" y="188" type="curve" smooth="yes"/>
      <point x="450" y="209"/>
      <point x="440" y="222"/>
      <point x="425" y="222" type="curve" smooth="yes"/>
      <point x="413" y="222"/>
      <point x="402" y="212"/>
      <point x="402" y="197" type="curve" smooth="yes"/>
      <point x="402" y="189"/>
      <point x="403" y="183"/>
    </contour>
    <component base="O"/>
  </outline>
</glyph>
<glyph name="R" format="1">
  <advance width="697"/>
  <unicode hex="0052"/>
  <outline>
    <contour>
      <point x="628" y="457" type="curve" smooth="yes"/>
      <point x="628" y="604"/>
      <point x="489" y="700"/>
      <point x="304" y="700" type="curve" smooth="yes"/>
      <point x="68" y="700" type="line" smooth="yes"/>
      <point x="47" y="700"/>
      <point x="35" y="690"/>
      <point x="35" y="674" type="curve" smooth="yes"/>
      <point x="35" y="659"/>
      <point x="44" y="649"/>
      <point x="65" y="645" type="curve" smooth="yes"/>
      <point x="90" y="639" type="line" smooth="yes"/>
      <point x="114" y="634"/>
      <point x="127" y="617"/>
      <point x="127" y="594" type="curve" smooth="yes"/>
      <point x="127" y="104" type="line" smooth="yes"/>
      <point x="127" y="82"/>
      <point x="114" y="66"/>
      <point x="90" y="60" type="curve" smooth="yes"/>
      <point x="65" y="54" type="line" smooth="yes"/>
      <point x="44" y="50"/>
      <point x="35" y="40"/>
      <point x="35" y="25" type="curve" smooth="yes"/>
      <point x="35" y="10"/>
      <point x="47" y="0"/>
      <point x="68" y="0" type="curve" smooth="yes"/>
      <point x="303" y="0" type="line" smooth="yes"/>
      <point x="324" y="0"/>
      <point x="335" y="10"/>
      <point x="335" y="25" type="curve" smooth="yes"/>
      <point x="335" y="39"/>
      <point x="326" y="47"/>
      <point x="307" y="52" type="curve" smooth="yes"/>
      <point x="280" y="60" type="line" smooth="yes"/>
      <point x="263" y="65"/>
      <point x="253" y="79"/>
      <point x="253" y="104" type="curve" smooth="yes"/>
      <point x="253" y="639" type="line"/>
      <point x="298" y="639" type="line" smooth="yes"/>
      <point x="414" y="639"/>
      <point x="493" y="571"/>
      <point x="493" y="471" type="curve" smooth="yes"/>
      <point x="493" y="373"/>
      <point x="425" y="305"/>
      <point x="329" y="305" type="curve" smooth="yes"/>
      <point x="264" y="305"/>
      <point x="228" y="315"/>
      <point x="184" y="338" type="curve"/>
      <point x="174" y="284" type="line"/>
      <point x="223" y="257"/>
      <point x="263" y="246"/>
      <point x="344" y="246" type="curve" smooth="yes"/>
      <point x="514" y="246"/>
      <point x="628" y="330"/>
    </contour>
    <contour>
      <point x="341" y="272" type="line"/>
      <point x="462" y="105" type="line" smooth="yes"/>
      <point x="470" y="94"/>
      <point x="475" y="85"/>
      <point x="475" y="74" type="curve" smooth="yes"/>
      <point x="475" y="65"/>
      <point x="470" y="59"/>
      <point x="458" y="52" type="curve" smooth="yes"/>
      <point x="446" y="47"/>
      <point x="440" y="38"/>
      <point x="440" y="24" type="curve" smooth="yes"/>
      <point x="440" y="9"/>
      <point x="453" y="0"/>
      <point x="473" y="0" type="curve" smooth="yes"/>
      <point x="661" y="0" type="line" smooth="yes"/>
      <point x="684" y="0"/>
      <point x="693" y="10"/>
      <point x="693" y="27" type="curve" smooth="yes"/>
      <point x="693" y="40"/>
      <point x="684" y="46"/>
      <point x="671" y="52" type="curve" smooth="yes"/>
      <point x="642" y="66"/>
      <point x="623" y="77"/>
      <point x="606" y="99" type="curve" smooth="yes"/>
      <point x="469" y="283" type="line"/>
    </contour>
    <contour>
      <point x="313" y="738" type="move" name="center"/>
    </contour>
  </outline>
</glyph>
<glyph name="S" format="1">
  <advance width="578"/>
  <unicode hex="0053"/>
  <outline>
    <contour>
      <point x="301" y="-15" type="curve" smooth="yes"/>
      <point x="446" y="-15"/>
      <point x="532" y="73"/>
      <point x="532" y="185" type="curve" smooth="yes"/>
      <point x="532" y="275"/>
      <point x="475" y="343"/>
      <point x="328" y="393" type="curve" smooth="yes"/>
      <point x="206" y="435"/>
      <point x="162" y="478"/>
      <point x="162" y="545" type="curve" smooth="yes"/>
      <point x="162" y="606"/>
      <point x="210" y="651"/>
      <point x="275" y="651" type="curve" smooth="yes"/>
      <point x="336" y="651"/>
      <point x="388" y="623"/>
      <point x="458" y="524" type="curve" smooth="yes"/>
      <point x="476" y="498"/>
      <point x="491" y="486"/>
      <point x="511" y="486" type="curve" smooth="yes"/>
      <point x="530" y="486"/>
      <point x="539" y="498"/>
      <point x="539" y="514" type="curve" smooth="yes"/>
      <point x="539" y="531"/>
      <point x="535" y="544"/>
      <point x="530" y="557" type="curve" smooth="yes"/>
      <point x="488" y="683" type="line" smooth="yes"/>
      <point x="482" y="703"/>
      <point x="468" y="717"/>
      <point x="452" y="717" type="curve" smooth="yes"/>
      <point x="427" y="717"/>
      <point x="422" y="692"/>
      <point x="401" y="692" type="curve" smooth="yes"/>
      <point x="377" y="692"/>
      <point x="340" y="713"/>
      <point x="286" y="713" type="curve" smooth="yes"/>
      <point x="142" y="713"/>
      <point x="44" y="620"/>
      <point x="44" y="502" type="curve" smooth="yes"/>
      <point x="44" y="401"/>
      <point x="105" y="332"/>
      <point x="256" y="285" type="curve" smooth="yes"/>
      <point x="377" y="247"/>
      <point x="416" y="214"/>
      <point x="416" y="147" type="curve" smooth="yes"/>
      <point x="416" y="85"/>
      <point x="374" y="46"/>
      <point x="308" y="46" type="curve" smooth="yes"/>
      <point x="238" y="46"/>
      <point x="194" y="73"/>
      <point x="138" y="161" type="curve" smooth="yes"/>
      <point x="114" y="199"/>
      <point x="104" y="210"/>
      <point x="87" y="210" type="curve" smooth="yes"/>
      <point x="68" y="210"/>
      <point x="54" y="193"/>
      <point x="59" y="163" type="curve" smooth="yes"/>
      <point x="84" y="18" type="line" smooth="yes"/>
      <point x="88" y="-5"/>
      <point x="99" y="-19"/>
      <point x="119" y="-19" type="curve" smooth="yes"/>
      <point x="142" y="-19"/>
      <point x="150" y="10"/>
      <point x="169" y="10" type="curve" smooth="yes"/>
      <point x="194" y="10"/>
      <point x="234" y="-15"/>
    </contour>
  </outline>
</glyph>
<glyph name="T" format="1">
  <advance width="615"/>
  <unicode hex="0054"/>
  <outline>
    <contour>
      <point x="128" y="700" type="line" smooth="yes"/>
      <point x="119" y="700"/>
      <point x="107" y="704"/>
      <point x="100" y="713" type="curve" smooth="yes"/>
      <point x="90" y="724"/>
      <point x="81" y="729"/>
      <point x="69" y="729" type="curve" smooth="yes"/>
      <point x="51" y="729"/>
      <point x="44" y="722"/>
      <point x="39" y="702" type="curve" smooth="yes"/>
      <point x="4" y="565" type="line" smooth="yes"/>
      <point x="-3" y="538"/>
      <point x="8" y="526"/>
      <point x="23" y="526" type="curve" smooth="yes"/>
      <point x="40" y="526"/>
      <point x="52" y="533"/>
      <point x="72" y="563" type="curve" smooth="yes"/>
      <point x="110" y="617"/>
      <point x="149" y="644"/>
      <point x="189" y="644" type="curve" smooth="yes"/>
      <point x="243" y="644" type="line"/>
      <point x="243" y="115" type="line" smooth="yes"/>
      <point x="243" y="85"/>
      <point x="232" y="69"/>
      <point x="206" y="63" type="curve" smooth="yes"/>
      <point x="181" y="58" type="line" smooth="yes"/>
      <point x="157" y="53"/>
      <point x="144" y="44"/>
      <point x="144" y="27" type="curve" smooth="yes"/>
      <point x="144" y="9"/>
      <point x="159" y="0"/>
      <point x="179" y="0" type="curve" smooth="yes"/>
      <point x="435" y="0" type="line" smooth="yes"/>
      <point x="456" y="0"/>
      <point x="470" y="9"/>
      <point x="470" y="27" type="curve" smooth="yes"/>
      <point x="470" y="44"/>
      <point x="458" y="52"/>
      <point x="433" y="58" type="curve" smooth="yes"/>
      <point x="408" y="63" type="line" smooth="yes"/>
      <point x="382" y="69"/>
      <point x="371" y="85"/>
      <point x="371" y="115" type="curve" smooth="yes"/>
      <point x="371" y="644" type="line"/>
      <point x="426" y="644" type="line" smooth="yes"/>
      <point x="466" y="644"/>
      <point x="505" y="615"/>
      <point x="542" y="562" type="curve" smooth="yes"/>
      <point x="562" y="533"/>
      <point x="575" y="525"/>
      <point x="591" y="525" type="curve" smooth="yes"/>
      <point x="608" y="525"/>
      <point x="617" y="537"/>
      <point x="610" y="564" type="curve" smooth="yes"/>
      <point x="575" y="702" type="line" smooth="yes"/>
      <point x="570" y="722"/>
      <point x="563" y="730"/>
      <point x="545" y="730" type="curve" smooth="yes"/>
      <point x="534" y="730"/>
      <point x="524" y="724"/>
      <point x="514" y="713" type="curve" smooth="yes"/>
      <point x="506" y="704"/>
      <point x="494" y="700"/>
      <point x="485" y="700" type="curve"/>
    </contour>
  </outline>
</glyph>
<glyph name="U" format="1">
  <advance width="708"/>
  <unicode hex="0055"/>
  <outline>
    <contour>
      <point x="551" y="296" type="line" smooth="yes"/>
      <point x="552" y="271"/>
      <point x="555" y="247"/>
      <point x="555" y="203" type="curve" smooth="yes"/>
      <point x="555" y="112"/>
      <point x="495" y="58"/>
      <point x="390" y="58" type="curve" smooth="yes"/>
      <point x="276" y="58"/>
      <point x="208" y="117"/>
      <point x="208" y="229" type="curve" smooth="yes"/>
      <point x="208" y="252"/>
      <point x="210" y="285"/>
      <point x="212" y="324" type="curve" smooth="yes"/>
      <point x="228" y="594" type="line" smooth="yes"/>
      <point x="230" y="622"/>
      <point x="242" y="638"/>
      <point x="269" y="645" type="curve" smooth="yes"/>
      <point x="295" y="651" type="line" smooth="yes"/>
      <point x="313" y="655"/>
      <point x="323" y="661"/>
      <point x="323" y="677" type="curve" smooth="yes"/>
      <point x="323" y="693"/>
      <point x="314" y="700"/>
      <point x="293" y="700" type="curve" smooth="yes"/>
      <point x="48" y="700" type="line" smooth="yes"/>
      <point x="27" y="700"/>
      <point x="18" y="693"/>
      <point x="18" y="677" type="curve" smooth="yes"/>
      <point x="18" y="661"/>
      <point x="28" y="658"/>
      <point x="46" y="651" type="curve" smooth="yes"/>
      <point x="62" y="645" type="line" smooth="yes"/>
      <point x="87" y="635"/>
      <point x="103" y="617"/>
      <point x="101" y="586" type="curve" smooth="yes"/>
      <point x="84" y="326" type="line" smooth="yes"/>
      <point x="82" y="292"/>
      <point x="77" y="227"/>
      <point x="77" y="196" type="curve" smooth="yes"/>
      <point x="77" y="73"/>
      <point x="170" y="-15"/>
      <point x="348" y="-15" type="curve" smooth="yes"/>
      <point x="544" y="-15"/>
      <point x="634" y="79"/>
      <point x="634" y="199" type="curve" smooth="yes"/>
      <point x="634" y="233"/>
      <point x="631" y="264"/>
      <point x="629" y="297" type="curve" smooth="yes"/>
      <point x="608" y="583" type="line" smooth="yes"/>
      <point x="607" y="607"/>
      <point x="618" y="629"/>
      <point x="639" y="638" type="curve" smooth="yes"/>
      <point x="672" y="650" type="line" smooth="yes"/>
      <point x="690" y="656"/>
      <point x="696" y="663"/>
      <point x="696" y="678" type="curve" smooth="yes"/>
      <point x="696" y="691"/>
      <point x="686" y="700"/>
      <point x="673" y="700" type="curve" smooth="yes"/>
      <point x="460" y="700" type="line" smooth="yes"/>
      <point x="442" y="700"/>
      <point x="431" y="694"/>
      <point x="431" y="677" type="curve" smooth="yes"/>
      <point x="431" y="666"/>
      <point x="442" y="655"/>
      <point x="462" y="649" type="curve" smooth="yes"/>
      <point x="494" y="638" type="line" smooth="yes"/>
      <point x="523" y="627"/>
      <point x="532" y="614"/>
      <point x="534" y="583" type="curve" smooth="yes"/>
    </contour>
    <contour>
      <point x="364" y="730" type="move" name="center"/>
    </contour>
  </outline>
</glyph>
<glyph name="V" format="1">
  <advance width="707"/>
  <unicode hex="0056"/>
  <outline>
    <contour>
      <point x="465" y="672" type="curve" smooth="yes"/>
      <point x="465" y="656"/>
      <point x="477" y="644"/>
      <point x="497" y="634" type="curve" smooth="yes"/>
      <point x="528" y="618" type="line" smooth="yes"/>
      <point x="549" y="607"/>
      <point x="555" y="573"/>
      <point x="536" y="528" type="curve" smooth="yes"/>
      <point x="344" y="61" type="line"/>
      <point x="406" y="90" type="line"/>
      <point x="222" y="562" type="line" smooth="yes"/>
      <point x="208" y="596"/>
      <point x="220" y="623"/>
      <point x="245" y="632" type="curve" smooth="yes"/>
      <point x="263" y="638" type="line" smooth="yes"/>
      <point x="280" y="644"/>
      <point x="290" y="653"/>
      <point x="290" y="672" type="curve" smooth="yes"/>
      <point x="290" y="690"/>
      <point x="280" y="700"/>
      <point x="262" y="700" type="curve" smooth="yes"/>
      <point x="37" y="700" type="line" smooth="yes"/>
      <point x="15" y="700"/>
      <point x="2" y="691"/>
      <point x="2" y="674" type="curve" smooth="yes"/>
      <point x="2" y="659"/>
      <point x="10" y="650"/>
      <point x="29" y="638" type="curve" smooth="yes"/>
      <point x="42" y="630"/>
      <point x="61" y="614"/>
      <point x="77" y="576" type="curve" smooth="yes"/>
      <point x="267" y="111" type="line" smooth="yes"/>
      <point x="276" y="87"/>
      <point x="280" y="75"/>
      <point x="280" y="59" type="curve" smooth="yes"/>
      <point x="280" y="42" type="line" smooth="yes"/>
      <point x="280" y="16"/>
      <point x="295" y="0"/>
      <point x="317" y="0" type="curve" smooth="yes"/>
      <point x="384" y="0" type="line" smooth="yes"/>
      <point x="407" y="0"/>
      <point x="422" y="16"/>
      <point x="422" y="40" type="curve" smooth="yes"/>
      <point x="422" y="56" type="line" smooth="yes"/>
      <point x="422" y="78"/>
      <point x="425" y="96"/>
      <point x="434" y="117" type="curve" smooth="yes"/>
      <point x="617" y="550" type="line" smooth="yes"/>
      <point x="638" y="599"/>
      <point x="652" y="613"/>
      <point x="672" y="625" type="curve" smooth="yes"/>
      <point x="693" y="640"/>
      <point x="704" y="652"/>
      <point x="704" y="669" type="curve" smooth="yes"/>
      <point x="704" y="690"/>
      <point x="691" y="700"/>
      <point x="664" y="700" type="curve" smooth="yes"/>
      <point x="498" y="700" type="line" smooth="yes"/>
      <point x="476" y="700"/>
      <point x="465" y="689"/>
    </contour>
  </outline>
</glyph>
<glyph name="W" format="1">
  <advance width="1027"/>
  <unicode hex="0057"/>
  <outline>
    <contour>
      <point x="503" y="539" type="line"/>
      <point x="321" y="86" type="line"/>
      <point x="373" y="95" type="line"/>
      <point x="209" y="572" type="line" smooth="yes"/>
      <point x="196" y="610"/>
      <point x="210" y="632"/>
      <point x="235" y="638" type="curve" smooth="yes"/>
      <point x="250" y="642" type="line" smooth="yes"/>
      <point x="268" y="646"/>
      <point x="278" y="655"/>
      <point x="278" y="672" type="curve" smooth="yes"/>
      <point x="278" y="690"/>
      <point x="266" y="700"/>
      <point x="250" y="700" type="curve" smooth="yes"/>
      <point x="35" y="700" type="line" smooth="yes"/>
      <point x="14" y="700"/>
      <point x="2" y="690"/>
      <point x="2" y="673" type="curve" smooth="yes"/>
      <point x="2" y="656"/>
      <point x="8" y="643"/>
      <point x="35" y="632" type="curve" smooth="yes"/>
      <point x="54" y="624"/>
      <point x="65" y="611"/>
      <point x="77" y="576" type="curve" smooth="yes"/>
      <point x="233" y="145" type="line" smooth="yes"/>
      <point x="245" y="113"/>
      <point x="250" y="94"/>
      <point x="250" y="72" type="curve" smooth="yes"/>
      <point x="250" y="43" type="line" smooth="yes"/>
      <point x="250" y="17"/>
      <point x="268" y="0"/>
      <point x="289" y="0" type="curve" smooth="yes"/>
      <point x="352" y="0" type="line" smooth="yes"/>
      <point x="376" y="0"/>
      <point x="391" y="17"/>
      <point x="391" y="39" type="curve" smooth="yes"/>
      <point x="391" y="69" type="line" smooth="yes"/>
      <point x="391" y="93"/>
      <point x="397" y="118"/>
      <point x="409" y="148" type="curve" smooth="yes"/>
      <point x="547" y="483" type="line"/>
    </contour>
    <contour>
      <point x="793" y="669" type="curve" smooth="yes"/>
      <point x="793" y="653"/>
      <point x="804" y="642"/>
      <point x="824" y="632" type="curve" smooth="yes"/>
      <point x="862" y="614" type="line" smooth="yes"/>
      <point x="885" y="603"/>
      <point x="886" y="577"/>
      <point x="874" y="545" type="curve" smooth="yes"/>
      <point x="696" y="61" type="line"/>
      <point x="761" y="79" type="line"/>
      <point x="597" y="569" type="line" smooth="yes"/>
      <point x="584" y="606"/>
      <point x="596" y="634"/>
      <point x="613" y="638" type="curve" smooth="yes"/>
      <point x="628" y="642" type="line" smooth="yes"/>
      <point x="644" y="646"/>
      <point x="653" y="655"/>
      <point x="653" y="672" type="curve" smooth="yes"/>
      <point x="653" y="690"/>
      <point x="642" y="700"/>
      <point x="626" y="700" type="curve" smooth="yes"/>
      <point x="423" y="700" type="line" smooth="yes"/>
      <point x="403" y="700"/>
      <point x="390" y="691"/>
      <point x="390" y="674" type="curve" smooth="yes"/>
      <point x="390" y="660"/>
      <point x="398" y="651"/>
      <point x="416" y="639" type="curve" smooth="yes"/>
      <point x="432" y="629"/>
      <point x="452" y="614"/>
      <point x="465" y="578" type="curve" smooth="yes"/>
      <point x="619" y="134" type="line" smooth="yes"/>
      <point x="629" y="104"/>
      <point x="634" y="85"/>
      <point x="634" y="59" type="curve" smooth="yes"/>
      <point x="634" y="41" type="line" smooth="yes"/>
      <point x="634" y="19"/>
      <point x="651" y="0"/>
      <point x="672" y="0" type="curve" smooth="yes"/>
      <point x="737" y="0" type="line" smooth="yes"/>
      <point x="760" y="0"/>
      <point x="775" y="19"/>
      <point x="775" y="39" type="curve" smooth="yes"/>
      <point x="775" y="56" type="line" smooth="yes"/>
      <point x="775" y="79"/>
      <point x="779" y="105"/>
      <point x="790" y="132" type="curve" smooth="yes"/>
      <point x="947" y="555" type="line" smooth="yes"/>
      <point x="967" y="608"/>
      <point x="977" y="617"/>
      <point x="1000" y="633" type="curve" smooth="yes"/>
      <point x="1017" y="646"/>
      <point x="1024" y="654"/>
      <point x="1024" y="674" type="curve" smooth="yes"/>
      <point x="1024" y="692"/>
      <point x="1013" y="700"/>
      <point x="994" y="700" type="curve" smooth="yes"/>
      <point x="832" y="700" type="line" smooth="yes"/>
      <point x="807" y="700"/>
      <point x="793" y="688"/>
    </contour>
  </outline>
</glyph>
<glyph name="X" format="1">
  <advance width="713"/>
  <unicode hex="0058"/>
  <outline>
    <contour>
      <point x="630" y="99" type="curve" smooth="yes"/>
      <point x="259" y="587" type="line" smooth="yes"/>
      <point x="236" y="617"/>
      <point x="251" y="632"/>
      <point x="276" y="638" type="curve" smooth="yes"/>
      <point x="293" y="642" type="line" smooth="yes"/>
      <point x="308" y="646"/>
      <point x="318" y="655"/>
      <point x="318" y="672" type="curve" smooth="yes"/>
      <point x="318" y="690"/>
      <point x="307" y="700"/>
      <point x="288" y="700" type="curve" smooth="yes"/>
      <point x="40" y="700" type="line" smooth="yes"/>
      <point x="22" y="700"/>
      <point x="9" y="691"/>
      <point x="9" y="674" type="curve" smooth="yes"/>
      <point x="9" y="660"/>
      <point x="18" y="651"/>
      <point x="45" y="640" type="curve" smooth="yes"/>
      <point x="71" y="631"/>
      <point x="75" y="623"/>
      <point x="95" y="598" type="curve" smooth="yes"/>
      <point x="473" y="109" type="line" smooth="yes"/>
      <point x="499" y="76"/>
      <point x="480" y="66"/>
      <point x="444" y="61" type="curve" smooth="yes"/>
      <point x="424" y="59"/>
      <point x="413" y="49"/>
      <point x="413" y="29" type="curve" smooth="yes"/>
      <point x="413" y="12"/>
      <point x="428" y="0"/>
      <point x="449" y="0" type="curve" smooth="yes"/>
      <point x="677" y="0" type="line" smooth="yes"/>
      <point x="698" y="0"/>
      <point x="712" y="11"/>
      <point x="712" y="29" type="curve" smooth="yes"/>
      <point x="712" y="48"/>
      <point x="701" y="59"/>
      <point x="680" y="61" type="curve" smooth="yes"/>
      <point x="659" y="63"/>
      <point x="649" y="75"/>
    </contour>
    <contour>
      <point x="381" y="311" type="line"/>
      <point x="565" y="555" type="line" smooth="yes"/>
      <point x="599" y="600"/>
      <point x="631" y="621"/>
      <point x="650" y="629" type="curve" smooth="yes"/>
      <point x="686" y="642"/>
      <point x="700" y="651"/>
      <point x="700" y="673" type="curve" smooth="yes"/>
      <point x="701" y="690"/>
      <point x="691" y="700"/>
      <point x="671" y="700" type="curve" smooth="yes"/>
      <point x="463" y="700" type="line" smooth="yes"/>
      <point x="441" y="700"/>
      <point x="430" y="690"/>
      <point x="430" y="672" type="curve" smooth="yes"/>
      <point x="430" y="654"/>
      <point x="442" y="646"/>
      <point x="468" y="638" type="curve" smooth="yes"/>
      <point x="490" y="632" type="line" smooth="yes"/>
      <point x="514" y="625"/>
      <point x="514" y="588"/>
      <point x="494" y="561" type="curve" smooth="yes"/>
      <point x="336" y="346" type="line"/>
    </contour>
    <contour>
      <point x="335" y="390" type="line"/>
      <point x="145" y="145" type="line" smooth="yes"/>
      <point x="118" y="111"/>
      <point x="86" y="84"/>
      <point x="57" y="76" type="curve" smooth="yes"/>
      <point x="16" y="64"/>
      <point x="2" y="46"/>
      <point x="2" y="30" type="curve" smooth="yes"/>
      <point x="2" y="10"/>
      <point x="13" y="1"/>
      <point x="33" y="1" type="curve" smooth="yes"/>
      <point x="242" y="1" type="line" smooth="yes"/>
      <point x="263" y="1"/>
      <point x="274" y="11"/>
      <point x="274" y="27" type="curve" smooth="yes"/>
      <point x="274" y="40"/>
      <point x="268" y="51"/>
      <point x="237" y="64" type="curve" smooth="yes"/>
      <point x="210" y="76" type="line" smooth="yes"/>
      <point x="190" y="85"/>
      <point x="187" y="104"/>
      <point x="204" y="127" type="curve" smooth="yes"/>
      <point x="379" y="355" type="line"/>
    </contour>
  </outline>
</glyph>
<glyph name="Y" format="1">
  <advance width="655"/>
  <unicode hex="0059"/>
  <outline>
    <contour>
      <point x="258" y="246" type="line"/>
      <point x="258" y="104" type="line" smooth="yes"/>
      <point x="258" y="78"/>
      <point x="246" y="65"/>
      <point x="222" y="60" type="curve" smooth="yes"/>
      <point x="197" y="54" type="line" smooth="yes"/>
      <point x="179" y="50"/>
      <point x="169" y="43"/>
      <point x="169" y="25" type="curve" smooth="yes"/>
      <point x="169" y="8"/>
      <point x="181" y="0"/>
      <point x="203" y="0" type="curve" smooth="yes"/>
      <point x="441" y="0" type="line" smooth="yes"/>
      <point x="465" y="0"/>
      <point x="475" y="8"/>
      <point x="475" y="25" type="curve" smooth="yes"/>
      <point x="475" y="43"/>
      <point x="465" y="50"/>
      <point x="447" y="54" type="curve" smooth="yes"/>
      <point x="422" y="60" type="line" smooth="yes"/>
      <point x="398" y="65"/>
      <point x="386" y="78"/>
      <point x="386" y="104" type="curve" smooth="yes"/>
      <point x="386" y="246" type="line"/>
    </contour>
    <contour>
      <point x="372" y="205" type="line"/>
      <point x="551" y="555" type="line" smooth="yes"/>
      <point x="577" y="604"/>
      <point x="597" y="618"/>
      <point x="625" y="628" type="curve" smooth="yes"/>
      <point x="645" y="635"/>
      <point x="653" y="651"/>
      <point x="653" y="667" type="curve" smooth="yes"/>
      <point x="653" y="689"/>
      <point x="642" y="700"/>
      <point x="616" y="700" type="curve" smooth="yes"/>
      <point x="451" y="700" type="line" smooth="yes"/>
      <point x="430" y="700"/>
      <point x="418" y="689"/>
      <point x="418" y="672" type="curve" smooth="yes"/>
      <point x="418" y="657"/>
      <point x="430" y="644"/>
      <point x="453" y="636" type="curve" smooth="yes"/>
      <point x="487" y="623"/>
      <point x="494" y="609"/>
      <point x="495" y="594" type="curve" smooth="yes"/>
      <point x="495" y="583"/>
      <point x="491" y="569"/>
      <point x="483" y="553" type="curve" smooth="yes"/>
      <point x="335" y="253" type="line"/>
      <point x="367" y="273" type="line"/>
      <point x="211" y="576" type="line" smooth="yes"/>
      <point x="196" y="605"/>
      <point x="210" y="631"/>
      <point x="241" y="638" type="curve" smooth="yes"/>
      <point x="262" y="643" type="line" smooth="yes"/>
      <point x="278" y="647"/>
      <point x="286" y="655"/>
      <point x="286" y="672" type="curve" smooth="yes"/>
      <point x="286" y="690"/>
      <point x="275" y="700"/>
      <point x="258" y="700" type="curve" smooth="yes"/>
      <point x="37" y="700" type="line" smooth="yes"/>
      <point x="15" y="700"/>
      <point x="2" y="691"/>
      <point x="2" y="674" type="curve" smooth="yes"/>
      <point x="2" y="660"/>
      <point x="7" y="648"/>
      <point x="27" y="640" type="curve" smooth="yes"/>
      <point x="53" y="631"/>
      <point x="55" y="617"/>
      <point x="75" y="580" type="curve" smooth="yes"/>
      <point x="274" y="205" type="line"/>
      <point x="278" y="208" type="line"/>
      <point x="276" y="204" type="line"/>
    </contour>
    <contour>
      <point x="338" y="710" type="move" name="center"/>
    </contour>
  </outline>
</glyph>
<glyph name="Z" format="1">
  <advance width="612"/>
  <unicode hex="005A"/>
  <outline>
    <contour>
      <point x="557" y="628" type="line" smooth="yes"/>
      <point x="569" y="647"/>
      <point x="575" y="660"/>
      <point x="575" y="671" type="curve" smooth="yes"/>
      <point x="575" y="686"/>
      <point x="564" y="698"/>
      <point x="538" y="698" type="curve" smooth="yes"/>
      <point x="176" y="698" type="line" smooth="yes"/>
      <point x="149" y="698"/>
      <point x="126" y="721"/>
      <point x="101" y="721" type="curve" smooth="yes"/>
      <point x="83" y="721"/>
      <point x="74" y="706"/>
      <point x="67" y="677" type="curve" smooth="yes"/>
      <point x="44" y="568" type="line" smooth="yes"/>
      <point x="41" y="557"/>
      <point x="40" y="549"/>
      <point x="40" y="539" type="curve" smooth="yes"/>
      <point x="40" y="522"/>
      <point x="51" y="512"/>
      <point x="64" y="512" type="curve" smooth="yes"/>
      <point x="86" y="512"/>
      <point x="99" y="524"/>
      <point x="112" y="546" type="curve" smooth="yes"/>
      <point x="135" y="585" type="line" smooth="yes"/>
      <point x="155" y="620"/>
      <point x="174" y="640"/>
      <point x="211" y="640" type="curve" smooth="yes"/>
      <point x="451" y="640" type="line"/>
      <point x="440" y="664" type="line"/>
      <point x="52" y="72" type="line" smooth="yes"/>
      <point x="36" y="48"/>
      <point x="34" y="40"/>
      <point x="34" y="30" type="curve" smooth="yes"/>
      <point x="34" y="12"/>
      <point x="47" y="-3"/>
      <point x="77" y="-3" type="curve" smooth="yes"/>
      <point x="402" y="-3" type="line" smooth="yes"/>
      <point x="463" y="-3"/>
      <point x="492" y="-28"/>
      <point x="520" y="-28" type="curve" smooth="yes"/>
      <point x="541" y="-28"/>
      <point x="551" y="-17"/>
      <point x="557" y="13" type="curve" smooth="yes"/>
      <point x="580" y="139" type="line" smooth="yes"/>
      <point x="583" y="156"/>
      <point x="585" y="165"/>
      <point x="585" y="176" type="curve" smooth="yes"/>
      <point x="585" y="194"/>
      <point x="572" y="205"/>
      <point x="559" y="205" type="curve" smooth="yes"/>
      <point x="542" y="205"/>
      <point x="531" y="194"/>
      <point x="519" y="172" type="curve" smooth="yes"/>
      <point x="488" y="119" type="line" smooth="yes"/>
      <point x="463" y="72"/>
      <point x="430" y="56"/>
      <point x="387" y="56" type="curve" smooth="yes"/>
      <point x="130" y="56" type="line"/>
      <point x="165" y="30" type="line"/>
    </contour>
  </outline>
</glyph>
<glyph name="bracketleft" format="1">
  <advance width="365"/>
  <unicode hex="005B"/>
  <outline>
    <contour>
      <point x="212" y="668" type="line" smooth="yes"/>
      <point x="212" y="691"/>
      <point x="230" y="709"/>
      <point x="253" y="709" type="curve" smooth="yes"/>
      <point x="321" y="709" type="line" smooth="yes"/>
      <point x="344" y="709"/>
      <point x="352" y="716"/>
      <point x="352" y="731" type="curve" smooth="yes"/>
      <point x="352" y="744"/>
      <point x="344" y="756"/>
      <point x="323" y="756" type="curve" smooth="yes"/>
      <point x="160" y="756" type="line" smooth="yes"/>
      <point x="133" y="756"/>
      <point x="113" y="731"/>
      <point x="113" y="700" type="curve" smooth="yes"/>
      <point x="113" y="-121" type="line" smooth="yes"/>
      <point x="113" y="-152"/>
      <point x="133" y="-177"/>
      <point x="160" y="-177" type="curve" smooth="yes"/>
      <point x="323" y="-177" type="line" smooth="yes"/>
      <point x="344" y="-177"/>
      <point x="352" y="-164"/>
      <point x="352" y="-152" type="curve" smooth="yes"/>
      <point x="352" y="-137"/>
      <point x="344" y="-130"/>
      <point x="321" y="-130" type="curve" smooth="yes"/>
      <point x="253" y="-130" type="line" smooth="yes"/>
      <point x="230" y="-130"/>
      <point x="212" y="-112"/>
      <point x="212" y="-89" type="curve" smooth="yes"/>
    </contour>
  </outline>
</glyph>
<glyph name="backslash" format="1">
  <advance width="420"/>
  <unicode hex="005C"/>
  <outline>
    <contour>
      <point x="45" y="695" type="curve" smooth="yes"/>
      <point x="40" y="707"/>
      <point x="37" y="717"/>
      <point x="37" y="725" type="curve" smooth="yes"/>
      <point x="37" y="750"/>
      <point x="55" y="767"/>
      <point x="77" y="767" type="curve" smooth="yes"/>
      <point x="101" y="767"/>
      <point x="117" y="746"/>
      <point x="122" y="725" type="curve" smooth="yes"/>
      <point x="145" y="625"/>
      <point x="189" y="463"/>
      <point x="229" y="344" type="curve" smooth="yes"/>
      <point x="270" y="220"/>
      <point x="337" y="65"/>
      <point x="376" y="-31" type="curve" smooth="yes"/>
      <point x="383" y="-49"/>
      <point x="385" y="-60"/>
      <point x="385" y="-70" type="curve" smooth="yes"/>
      <point x="385" y="-87"/>
      <point x="368" y="-106"/>
      <point x="347" y="-106" type="curve" smooth="yes"/>
      <point x="324" y="-106"/>
      <point x="302" y="-91"/>
      <point x="294" y="-55" type="curve" smooth="yes"/>
      <point x="272" y="41"/>
      <point x="236" y="187"/>
      <point x="189" y="328" type="curve" smooth="yes"/>
      <point x="149" y="457"/>
      <point x="84" y="606"/>
    </contour>
  </outline>
</glyph>
<glyph name="asciicircum" format="1">
  <advance width="430"/>
  <unicode hex="005E"/>
  <outline>
    <contour>
      <point x="59" y="496" type="curve" smooth="yes"/>
      <point x="139" y="647" type="line" smooth="yes"/>
      <point x="166" y="699"/>
      <point x="185" y="715"/>
      <point x="216" y="715" type="curve" smooth="yes"/>
      <point x="244" y="715"/>
      <point x="264" y="699"/>
      <point x="291" y="649" type="curve" smooth="yes"/>
      <point x="373" y="496" type="line" smooth="yes"/>
      <point x="379" y="484"/>
      <point x="387" y="470"/>
      <point x="387" y="455" type="curve" smooth="yes"/>
      <point x="387" y="440"/>
      <point x="379" y="431"/>
      <point x="363" y="431" type="curve" smooth="yes"/>
      <point x="352" y="431"/>
      <point x="339" y="436"/>
      <point x="321" y="457" type="curve" smooth="yes"/>
      <point x="188" y="624" type="line"/>
      <point x="243" y="624" type="line"/>
      <point x="110" y="457" type="line" smooth="yes"/>
      <point x="93" y="436"/>
      <point x="80" y="431"/>
      <point x="69" y="431" type="curve" smooth="yes"/>
      <point x="52" y="431"/>
      <point x="44" y="440"/>
      <point x="44" y="454" type="curve" smooth="yes"/>
      <point x="44" y="469"/>
      <point x="52" y="483"/>
    </contour>
  </outline>
</glyph>
<glyph name="a" format="1">
  <advance width="501"/>
  <unicode hex="0061"/>
  <outline>
    <contour>
      <point x="50" y="346" type="curve" smooth="yes"/>
      <point x="50" y="303"/>
      <point x="75" y="282"/>
      <point x="111" y="282" type="curve" smooth="yes"/>
      <point x="151" y="282"/>
      <point x="180" y="311"/>
      <point x="180" y="351" type="curve" smooth="yes"/>
      <point x="180" y="377" type="line" smooth="yes"/>
      <point x="180" y="414"/>
      <point x="202" y="434"/>
      <point x="244" y="434" type="curve" smooth="yes"/>
      <point x="291" y="434"/>
      <point x="324" y="399"/>
      <point x="324" y="335" type="curve" smooth="yes"/>
      <point x="324" y="76" type="line" smooth="yes"/>
      <point x="324" y="13"/>
      <point x="368" y="-15"/>
      <point x="416" y="-15" type="curve" smooth="yes"/>
      <point x="465" y="-15"/>
      <point x="501" y="17"/>
      <point x="501" y="44" type="curve" smooth="yes"/>
      <point x="501" y="55"/>
      <point x="496" y="63"/>
      <point x="486" y="63" type="curve" smooth="yes"/>
      <point x="477" y="63"/>
      <point x="473" y="57"/>
      <point x="462" y="57" type="curve" smooth="yes"/>
      <point x="447" y="57"/>
      <point x="435" y="70"/>
      <point x="435" y="91" type="curve" smooth="yes"/>
      <point x="435" y="350" type="line" smooth="yes"/>
      <point x="435" y="437"/>
      <point x="378" y="483"/>
      <point x="282" y="483" type="curve" smooth="yes"/>
      <point x="137" y="483"/>
      <point x="50" y="406"/>
    </contour>
    <contour>
      <point x="352" y="183" type="curve"/>
      <point x="362" y="222" type="line"/>
      <point x="326" y="233"/>
      <point x="294" y="242"/>
      <point x="247" y="242" type="curve" smooth="yes"/>
      <point x="101" y="242"/>
      <point x="33" y="181"/>
      <point x="33" y="107" type="curve" smooth="yes"/>
      <point x="33" y="34"/>
      <point x="92" y="-15"/>
      <point x="174" y="-15" type="curve" smooth="yes"/>
      <point x="251" y="-15"/>
      <point x="319" y="18"/>
      <point x="362" y="74" type="curve"/>
      <point x="349" y="110" type="line"/>
      <point x="323" y="74"/>
      <point x="278" y="59"/>
      <point x="238" y="59" type="curve" smooth="yes"/>
      <point x="192" y="59"/>
      <point x="158" y="88"/>
      <point x="158" y="131" type="curve" smooth="yes"/>
      <point x="158" y="168"/>
      <point x="186" y="200"/>
      <point x="241" y="200" type="curve" smooth="yes"/>
      <point x="284" y="200"/>
      <point x="318" y="192"/>
    </contour>
    <contour>
      <point x="266" y="517" type="move" name="center"/>
    </contour>
  </outline>
</glyph>
<glyph name="b" format="1">
  <advance width="577"/>
  <unicode hex="0062"/>
  <outline>
    <contour>
      <point x="10" y="611" type="curve" smooth="yes"/>
      <point x="32" y="611" type="line" smooth="yes"/>
      <point x="52" y="611"/>
      <point x="66" y="599"/>
      <point x="66" y="572" type="curve" smooth="yes"/>
      <point x="66" y="16" type="line" smooth="yes"/>
      <point x="66" y="-2"/>
      <point x="76" y="-11"/>
      <point x="90" y="-11" type="curve" smooth="yes"/>
      <point x="105" y="-11"/>
      <point x="115" y="-8"/>
      <point x="133" y="1" type="curve" smooth="yes"/>
      <point x="179" y="26" type="line" smooth="yes"/>
      <point x="179" y="684" type="line" smooth="yes"/>
      <point x="179" y="704"/>
      <point x="170" y="719"/>
      <point x="155" y="719" type="curve" smooth="yes"/>
      <point x="134" y="719"/>
      <point x="119" y="710"/>
      <point x="95" y="698" type="curve" smooth="yes"/>
      <point x="19" y="662" type="line" smooth="yes"/>
      <point x="-6" y="649"/>
      <point x="-12" y="639"/>
      <point x="-12" y="629" type="curve" smooth="yes"/>
      <point x="-12" y="618"/>
      <point x="-5" y="611"/>
    </contour>
    <contour>
      <point x="141" y="343" type="line"/>
      <point x="184" y="384"/>
      <point x="227" y="400"/>
      <point x="274" y="400" type="curve" smooth="yes"/>
      <point x="370" y="400"/>
      <point x="432" y="324"/>
      <point x="432" y="219" type="curve" smooth="yes"/>
      <point x="432" y="117"/>
      <point x="372" y="48"/>
      <point x="285" y="48" type="curve" smooth="yes"/>
      <point x="226" y="48"/>
      <point x="179" y="69"/>
      <point x="149" y="115" type="curve"/>
      <point x="114" y="78" type="line"/>
      <point x="159" y="15"/>
      <point x="219" y="-14"/>
      <point x="297" y="-14" type="curve" smooth="yes"/>
      <point x="441" y="-14"/>
      <point x="550" y="99"/>
      <point x="550" y="254" type="curve" smooth="yes"/>
      <point x="550" y="387"/>
      <point x="462" y="484"/>
      <point x="345" y="484" type="curve" smooth="yes"/>
      <point x="255" y="484"/>
      <point x="190" y="443"/>
      <point x="122" y="370" type="curve"/>
    </contour>
  </outline>
</glyph>
<glyph name="c" format="1">
  <advance width="470"/>
  <unicode hex="0063"/>
  <outline>
    <contour>
      <point x="451" y="362" type="curve" smooth="yes"/>
      <point x="451" y="431"/>
      <point x="381" y="483"/>
      <point x="289" y="483" type="curve" smooth="yes"/>
      <point x="142" y="483"/>
      <point x="30" y="370"/>
      <point x="30" y="217" type="curve" smooth="yes"/>
      <point x="30" y="85"/>
      <point x="129" y="-15"/>
      <point x="258" y="-15" type="curve" smooth="yes"/>
      <point x="365" y="-15"/>
      <point x="446" y="54"/>
      <point x="446" y="114" type="curve" smooth="yes"/>
      <point x="446" y="127"/>
      <point x="438" y="136"/>
      <point x="428" y="136" type="curve" smooth="yes"/>
      <point x="419" y="136"/>
      <point x="409" y="131"/>
      <point x="395" y="117" type="curve" smooth="yes"/>
      <point x="373" y="97"/>
      <point x="345" y="84"/>
      <point x="298" y="84" type="curve" smooth="yes"/>
      <point x="205" y="84"/>
      <point x="129" y="159"/>
      <point x="129" y="265" type="curve" smooth="yes"/>
      <point x="129" y="352"/>
      <point x="183" y="419"/>
      <point x="255" y="419" type="curve" smooth="yes"/>
      <point x="296" y="419"/>
      <point x="320" y="402"/>
      <point x="320" y="380" type="curve" smooth="yes"/>
      <point x="320" y="364" type="line" smooth="yes"/>
      <point x="320" y="325"/>
      <point x="348" y="296"/>
      <point x="386" y="296" type="curve" smooth="yes"/>
      <point x="422" y="296"/>
      <point x="451" y="325"/>
    </contour>
    <contour>
      <point x="280" y="527" type="move" name="center"/>
    </contour>
  </outline>
</glyph>
<glyph name="d" format="1">
  <advance width="589"/>
  <unicode hex="0064"/>
  <outline>
    <contour>
      <point x="508" y="689" type="line" smooth="yes"/>
      <point x="508" y="708"/>
      <point x="498" y="718"/>
      <point x="483" y="718" type="curve" smooth="yes"/>
      <point x="470" y="718"/>
      <point x="459" y="713"/>
      <point x="439" y="705" type="curve" smooth="yes"/>
      <point x="344" y="666" type="line" smooth="yes"/>
      <point x="328" y="659"/>
      <point x="318" y="648"/>
      <point x="318" y="635" type="curve" smooth="yes"/>
      <point x="318" y="624"/>
      <point x="327" y="617"/>
      <point x="342" y="617" type="curve" smooth="yes"/>
      <point x="360" y="617" type="line" smooth="yes"/>
      <point x="381" y="617"/>
      <point x="395" y="607"/>
      <point x="395" y="582" type="curve" smooth="yes"/>
      <point x="395" y="59" type="line" smooth="yes"/>
      <point x="395" y="14"/>
      <point x="414" y="0"/>
      <point x="458" y="0" type="curve" smooth="yes"/>
      <point x="546" y="0" type="line" smooth="yes"/>
      <point x="571" y="0"/>
      <point x="579" y="9"/>
      <point x="579" y="24" type="curve" smooth="yes"/>
      <point x="579" y="38"/>
      <point x="570" y="46"/>
      <point x="550" y="52" type="curve" smooth="yes"/>
      <point x="537" y="56" type="line" smooth="yes"/>
      <point x="519" y="61"/>
      <point x="508" y="75"/>
      <point x="508" y="105" type="curve" smooth="yes"/>
    </contour>
    <contour>
      <point x="431" y="130" type="line"/>
      <point x="384" y="85"/>
      <point x="338" y="68"/>
      <point x="288" y="68" type="curve" smooth="yes"/>
      <point x="204" y="68"/>
      <point x="146" y="133"/>
      <point x="146" y="250" type="curve" smooth="yes"/>
      <point x="146" y="357"/>
      <point x="219" y="426"/>
      <point x="308" y="426" type="curve" smooth="yes"/>
      <point x="362" y="426"/>
      <point x="395" y="404"/>
      <point x="424" y="357" type="curve"/>
      <point x="456" y="395" type="line"/>
      <point x="411" y="456"/>
      <point x="358" y="484"/>
      <point x="282" y="484" type="curve" smooth="yes"/>
      <point x="142" y="484"/>
      <point x="29" y="373"/>
      <point x="29" y="216" type="curve" smooth="yes"/>
      <point x="29" y="81"/>
      <point x="121" y="-14"/>
      <point x="237" y="-14" type="curve" smooth="yes"/>
      <point x="325" y="-14"/>
      <point x="381" y="24"/>
      <point x="453" y="101" type="curve"/>
    </contour>
  </outline>
</glyph>
<glyph name="e" format="1">
  <advance width="492"/>
  <unicode hex="0065"/>
  <outline>
    <contour>
      <point x="462" y="307" type="curve" smooth="yes"/>
      <point x="462" y="411"/>
      <point x="386" y="483"/>
      <point x="279" y="483" type="curve" smooth="yes"/>
      <point x="127" y="483"/>
      <point x="27" y="371"/>
      <point x="27" y="220" type="curve" smooth="yes"/>
      <point x="27" y="86"/>
      <point x="122" y="-15"/>
      <point x="258" y="-15" type="curve" smooth="yes"/>
      <point x="374" y="-15"/>
      <point x="460" y="61"/>
      <point x="460" y="122" type="curve" smooth="yes"/>
      <point x="460" y="137"/>
      <point x="453" y="146"/>
      <point x="443" y="146" type="curve" smooth="yes"/>
      <point x="432" y="146"/>
      <point x="423" y="139"/>
      <point x="410" y="124" type="curve" smooth="yes"/>
      <point x="387" y="96"/>
      <point x="350" y="77"/>
      <point x="299" y="77" type="curve" smooth="yes"/>
      <point x="208" y="77"/>
      <point x="133" y="150"/>
      <point x="133" y="258" type="curve" smooth="yes"/>
      <point x="133" y="353"/>
      <point x="175" y="423"/>
      <point x="249" y="423" type="curve" smooth="yes"/>
      <point x="304" y="423"/>
      <point x="342" y="381"/>
      <point x="342" y="322" type="curve" smooth="yes"/>
      <point x="342" y="300"/>
      <point x="326" y="287"/>
      <point x="304" y="287" type="curve" smooth="yes"/>
      <point x="93" y="287" type="line"/>
      <point x="93" y="244" type="line"/>
      <point x="392" y="244" type="line" smooth="yes"/>
      <point x="434" y="244"/>
      <point x="462" y="267"/>
    </contour>
    <contour>
      <point x="270" y="527" type="move" name="center"/>
    </contour>
  </outline>
</glyph>
<glyph name="f" format="1">
  <advance width="365"/>
  <unicode hex="0066"/>
  <outline>
    <contour>
      <point x="227" y="112" type="curve" smooth="yes"/>
      <point x="227" y="411" type="line"/>
      <point x="318" y="411" type="line" smooth="yes"/>
      <point x="340" y="411"/>
      <point x="354" y="421"/>
      <point x="354" y="440" type="curve" smooth="yes"/>
      <point x="354" y="461"/>
      <point x="340" y="469"/>
      <point x="320" y="469" type="curve" smooth="yes"/>
      <point x="221" y="469" type="line"/>
      <point x="228" y="469" type="line" smooth="yes"/>
      <point x="228" y="495"/>
      <point x="220" y="513"/>
      <point x="201" y="538" type="curve" smooth="yes"/>
      <point x="178" y="565"/>
      <point x="168" y="588"/>
      <point x="168" y="611" type="curve" smooth="yes"/>
      <point x="168" y="641"/>
      <point x="187" y="663"/>
      <point x="217" y="663" type="curve" smooth="yes"/>
      <point x="236" y="663"/>
      <point x="249" y="652"/>
      <point x="249" y="633" type="curve" smooth="yes"/>
      <point x="249" y="617" type="line" smooth="yes"/>
      <point x="249" y="581"/>
      <point x="275" y="556"/>
      <point x="309" y="556" type="curve" smooth="yes"/>
      <point x="346" y="556"/>
      <point x="368" y="580"/>
      <point x="368" y="619" type="curve" smooth="yes"/>
      <point x="368" y="680"/>
      <point x="323" y="715"/>
      <point x="250" y="715" type="curve" smooth="yes"/>
      <point x="154" y="715"/>
      <point x="85" y="654"/>
      <point x="85" y="572" type="curve" smooth="yes"/>
      <point x="85" y="520"/>
      <point x="120" y="491"/>
      <point x="120" y="452" type="curve" smooth="yes"/>
      <point x="120" y="438" type="line"/>
      <point x="141" y="469" type="line"/>
      <point x="55" y="469" type="line" smooth="yes"/>
      <point x="39" y="469"/>
      <point x="28" y="460"/>
      <point x="28" y="446" type="curve" smooth="yes"/>
      <point x="28" y="432"/>
      <point x="41" y="421"/>
      <point x="58" y="416" type="curve" smooth="yes"/>
      <point x="84" y="408" type="line" smooth="yes"/>
      <point x="106" y="402"/>
      <point x="116" y="389"/>
      <point x="116" y="361" type="curve" smooth="yes"/>
      <point x="116" y="101" type="line" smooth="yes"/>
      <point x="116" y="75"/>
      <point x="103" y="62"/>
      <point x="87" y="58" type="curve" smooth="yes"/>
      <point x="68" y="53" type="line" smooth="yes"/>
      <point x="51" y="48"/>
      <point x="43" y="40"/>
      <point x="43" y="25" type="curve" smooth="yes"/>
      <point x="43" y="8"/>
      <point x="53" y="0"/>
      <point x="69" y="0" type="curve" smooth="yes"/>
      <point x="288" y="0" type="line" smooth="yes"/>
      <point x="311" y="0"/>
      <point x="319" y="8"/>
      <point x="319" y="25" type="curve" smooth="yes"/>
      <point x="319" y="41"/>
      <point x="307" y="48"/>
      <point x="290" y="53" type="curve" smooth="yes"/>
      <point x="266" y="59" type="line" smooth="yes"/>
      <point x="242" y="66"/>
      <point x="227" y="85"/>
    </contour>
  </outline>
</glyph>
<glyph name="g" format="1">
  <advance width="529"/>
  <unicode hex="0067"/>
  <outline>
    <contour>
      <point x="346" y="37" type="curve" smooth="yes"/>
      <point x="476" y="20"/>
      <point x="518" y="-25"/>
      <point x="518" y="-87" type="curve" smooth="yes"/>
      <point x="518" y="-179"/>
      <point x="422" y="-245"/>
      <point x="255" y="-245" type="curve" smooth="yes"/>
      <point x="94" y="-245"/>
      <point x="19" y="-192"/>
      <point x="19" y="-120" type="curve" smooth="yes"/>
      <point x="19" y="-56"/>
      <point x="67" y="-7"/>
      <point x="190" y="6" type="curve"/>
      <point x="208" y="-12" type="line"/>
      <point x="160" y="-18"/>
      <point x="135" y="-56"/>
      <point x="135" y="-91" type="curve" smooth="yes"/>
      <point x="135" y="-148"/>
      <point x="185" y="-186"/>
      <point x="289" y="-186" type="curve" smooth="yes"/>
      <point x="383" y="-186"/>
      <point x="419" y="-158"/>
      <point x="419" y="-117" type="curve" smooth="yes"/>
      <point x="419" y="-90"/>
      <point x="390" y="-68"/>
      <point x="287" y="-52" type="curve" smooth="yes"/>
      <point x="171" y="-33"/>
      <point x="132" y="3"/>
      <point x="132" y="50" type="curve" smooth="yes"/>
      <point x="132" y="94"/>
      <point x="166" y="128"/>
      <point x="229" y="141" type="curve"/>
      <point x="241" y="132" type="line"/>
      <point x="227" y="121"/>
      <point x="223" y="109"/>
      <point x="223" y="96" type="curve" smooth="yes"/>
      <point x="223" y="70"/>
      <point x="248" y="50"/>
    </contour>
    <contour>
      <point x="483" y="304" type="curve" smooth="yes"/>
      <point x="483" y="198"/>
      <point x="391" y="115"/>
      <point x="265" y="115" type="curve" smooth="yes"/>
      <point x="124" y="115"/>
      <point x="39" y="196"/>
      <point x="39" y="289" type="curve" smooth="yes"/>
      <point x="39" y="400"/>
      <point x="126" y="484"/>
      <point x="268" y="484" type="curve" smooth="yes"/>
      <point x="409" y="484"/>
      <point x="483" y="397"/>
    </contour>
    <contour>
      <point x="338" y="449" type="line" smooth="yes"/>
      <point x="349" y="473" type="line" smooth="yes"/>
      <point x="376" y="531"/>
      <point x="414" y="562"/>
      <point x="460" y="562" type="curve" smooth="yes"/>
      <point x="499" y="562"/>
      <point x="529" y="537"/>
      <point x="529" y="497" type="curve" smooth="yes"/>
      <point x="529" y="465"/>
      <point x="506" y="445"/>
      <point x="481" y="445" type="curve" smooth="yes"/>
      <point x="465" y="445"/>
      <point x="458" y="451"/>
      <point x="450" y="456" type="curve" smooth="yes"/>
      <point x="437" y="466"/>
      <point x="429" y="469"/>
      <point x="417" y="469" type="curve" smooth="yes"/>
      <point x="399" y="469"/>
      <point x="387" y="457"/>
      <point x="372" y="431" type="curve"/>
    </contour>
    <contour>
      <point x="244" y="426" type="curve" smooth="yes"/>
      <point x="190" y="426"/>
      <point x="151" y="386"/>
      <point x="151" y="328" type="curve" smooth="yes"/>
      <point x="151" y="242"/>
      <point x="204" y="173"/>
      <point x="277" y="173" type="curve" smooth="yes"/>
      <point x="328" y="173"/>
      <point x="368" y="206"/>
      <point x="368" y="267" type="curve" smooth="yes"/>
      <point x="368" y="359"/>
      <point x="315" y="426"/>
    </contour>
  </outline>
</glyph>
<glyph name="h" format="1">
  <advance width="615"/>
  <unicode hex="0068"/>
  <outline>
    <contour>
      <point x="196" y="336" type="line" smooth="yes"/>
      <point x="170" y="371" type="line"/>
      <point x="202" y="403" type="line" smooth="yes"/>
      <point x="257" y="456"/>
      <point x="312" y="484"/>
      <point x="379" y="484" type="curve" smooth="yes"/>
      <point x="447" y="484"/>
      <point x="502" y="438"/>
      <point x="513" y="349" type="curve" smooth="yes"/>
      <point x="545" y="93" type="line" smooth="yes"/>
      <point x="548" y="73"/>
      <point x="557" y="60"/>
      <point x="570" y="55" type="curve" smooth="yes"/>
      <point x="589" y="48" type="line" smooth="yes"/>
      <point x="599" y="44"/>
      <point x="607" y="37"/>
      <point x="607" y="23" type="curve" smooth="yes"/>
      <point x="607" y="10"/>
      <point x="598" y="0"/>
      <point x="580" y="0" type="curve" smooth="yes"/>
      <point x="382" y="0" type="line" smooth="yes"/>
      <point x="365" y="0"/>
      <point x="353" y="9"/>
      <point x="353" y="26" type="curve" smooth="yes"/>
      <point x="353" y="40"/>
      <point x="363" y="47"/>
      <point x="376" y="51" type="curve" smooth="yes"/>
      <point x="401" y="57" type="line" smooth="yes"/>
      <point x="422" y="61"/>
      <point x="431" y="74"/>
      <point x="428" y="102" type="curve" smooth="yes"/>
      <point x="403" y="318" type="line" smooth="yes"/>
      <point x="396" y="378"/>
      <point x="363" y="404"/>
      <point x="317" y="404" type="curve" smooth="yes"/>
      <point x="282" y="404"/>
      <point x="252" y="391"/>
      <point x="221" y="361" type="curve" smooth="yes"/>
    </contour>
    <component base="l" xOffset="-3"/>
  </outline>
</glyph>
<glyph name="k" format="1">
  <advance width="594"/>
  <unicode hex="006B"/>
  <outline>
    <contour>
      <point x="341" y="326" type="line"/>
      <point x="514" y="96" type="line" smooth="yes"/>
      <point x="533" y="70"/>
      <point x="551" y="59"/>
      <point x="570" y="54" type="curve" smooth="yes"/>
      <point x="583" y="49"/>
      <point x="591" y="41"/>
      <point x="591" y="26" type="curve" smooth="yes"/>
      <point x="591" y="11"/>
      <point x="580" y="0"/>
      <point x="555" y="0" type="curve" smooth="yes"/>
      <point x="378" y="0" type="line" smooth="yes"/>
      <point x="361" y="0"/>
      <point x="349" y="9"/>
      <point x="349" y="24" type="curve" smooth="yes"/>
      <point x="349" y="39"/>
      <point x="360" y="45"/>
      <point x="374" y="51" type="curve" smooth="yes"/>
      <point x="388" y="56"/>
      <point x="393" y="63"/>
      <point x="393" y="75" type="curve" smooth="yes"/>
      <point x="393" y="85"/>
      <point x="389" y="93"/>
      <point x="383" y="102" type="curve" smooth="yes"/>
      <point x="267" y="262" type="line"/>
    </contour>
    <contour>
      <point x="169" y="217" type="line"/>
      <point x="346" y="356" type="line" smooth="yes"/>
      <point x="370" y="374"/>
      <point x="375" y="386"/>
      <point x="375" y="399" type="curve" smooth="yes"/>
      <point x="375" y="410"/>
      <point x="370" y="414"/>
      <point x="355" y="420" type="curve" smooth="yes"/>
      <point x="340" y="425"/>
      <point x="332" y="433"/>
      <point x="332" y="447" type="curve" smooth="yes"/>
      <point x="332" y="463"/>
      <point x="344" y="469"/>
      <point x="363" y="469" type="curve" smooth="yes"/>
      <point x="532" y="469" type="line" smooth="yes"/>
      <point x="553" y="469"/>
      <point x="562" y="460"/>
      <point x="562" y="447" type="curve" smooth="yes"/>
      <point x="562" y="431"/>
      <point x="553" y="425"/>
      <point x="535" y="419" type="curve" smooth="yes"/>
      <point x="499" y="406"/>
      <point x="469" y="389"/>
      <point x="425" y="354" type="curve" smooth="yes"/>
      <point x="196" y="176" type="line"/>
    </contour>
    <component base="l"/>
  </outline>
</glyph>
<glyph name="l" format="1">
  <advance width="311"/>
  <unicode hex="006C"/>
  <outline>
    <contour>
      <point x="213" y="689" type="curve" smooth="yes"/>
      <point x="213" y="98" type="line" smooth="yes"/>
      <point x="213" y="73"/>
      <point x="225" y="59"/>
      <point x="242" y="55" type="curve" smooth="yes"/>
      <point x="256" y="51" type="line" smooth="yes"/>
      <point x="279" y="45"/>
      <point x="287" y="39"/>
      <point x="287" y="24" type="curve" smooth="yes"/>
      <point x="287" y="8"/>
      <point x="279" y="0"/>
      <point x="254" y="0" type="curve" smooth="yes"/>
      <point x="55" y="0" type="line" smooth="yes"/>
      <point x="41" y="0"/>
      <point x="29" y="9"/>
      <point x="29" y="25" type="curve" smooth="yes"/>
      <point x="29" y="39"/>
      <point x="39" y="46"/>
      <point x="53" y="51" type="curve" smooth="yes"/>
      <point x="70" y="55" type="line" smooth="yes"/>
      <point x="92" y="60"/>
      <point x="102" y="69"/>
      <point x="102" y="98" type="curve" smooth="yes"/>
      <point x="102" y="583" type="line" smooth="yes"/>
      <point x="102" y="608"/>
      <point x="87" y="618"/>
      <point x="67" y="618" type="curve" smooth="yes"/>
      <point x="50" y="618" type="line" smooth="yes"/>
      <point x="34" y="618"/>
      <point x="25" y="626"/>
      <point x="25" y="638" type="curve" smooth="yes"/>
      <point x="25" y="649"/>
      <point x="33" y="661"/>
      <point x="51" y="668" type="curve" smooth="yes"/>
      <point x="140" y="705" type="line" smooth="yes"/>
      <point x="161" y="713"/>
      <point x="174" y="719"/>
      <point x="187" y="719" type="curve" smooth="yes"/>
      <point x="203" y="719"/>
      <point x="213" y="708"/>
    </contour>
  </outline>
</glyph>
<glyph name="m" format="1">
  <advance width="927"/>
  <unicode hex="006D"/>
  <outline>
    <contour>
      <point x="74" y="55" type="curve" smooth="yes"/>
      <point x="59" y="51" type="line" smooth="yes"/>
      <point x="42" y="47"/>
      <point x="34" y="40"/>
      <point x="34" y="26" type="curve" smooth="yes"/>
      <point x="34" y="10"/>
      <point x="46" y="0"/>
      <point x="65" y="0" type="curve" smooth="yes"/>
      <point x="255" y="0" type="line" smooth="yes"/>
      <point x="277" y="0"/>
      <point x="289" y="8"/>
      <point x="289" y="25" type="curve" smooth="yes"/>
      <point x="289" y="40"/>
      <point x="279" y="47"/>
      <point x="260" y="52" type="curve" smooth="yes"/>
      <point x="245" y="56" type="line" smooth="yes"/>
      <point x="229" y="60"/>
      <point x="218" y="74"/>
      <point x="218" y="101" type="curve" smooth="yes"/>
      <point x="218" y="452" type="line" smooth="yes"/>
      <point x="218" y="471"/>
      <point x="208" y="484"/>
      <point x="192" y="484" type="curve" smooth="yes"/>
      <point x="178" y="484"/>
      <point x="164" y="479"/>
      <point x="143" y="469" type="curve" smooth="yes"/>
      <point x="54" y="427" type="line" smooth="yes"/>
      <point x="38" y="418"/>
      <point x="28" y="408"/>
      <point x="28" y="396" type="curve" smooth="yes"/>
      <point x="28" y="382"/>
      <point x="38" y="376"/>
      <point x="54" y="376" type="curve" smooth="yes"/>
      <point x="76" y="376" type="line" smooth="yes"/>
      <point x="90" y="376"/>
      <point x="106" y="365"/>
      <point x="106" y="339" type="curve" smooth="yes"/>
      <point x="106" y="98" type="line" smooth="yes"/>
      <point x="106" y="72"/>
      <point x="93" y="59"/>
    </contour>
    <contour>
      <point x="531" y="348" type="line" smooth="yes"/>
      <point x="531" y="432"/>
      <point x="465" y="484"/>
      <point x="389" y="484" type="curve" smooth="yes"/>
      <point x="317" y="484"/>
      <point x="254" y="450"/>
      <point x="201" y="391" type="curve"/>
      <point x="180" y="367" type="line"/>
      <point x="205" y="334" type="line"/>
      <point x="222" y="352" type="line" smooth="yes"/>
      <point x="256" y="389"/>
      <point x="294" y="405"/>
      <point x="330" y="405" type="curve" smooth="yes"/>
      <point x="377" y="405"/>
      <point x="422" y="379"/>
      <point x="422" y="303" type="curve" smooth="yes"/>
      <point x="422" y="103" type="line" smooth="yes"/>
      <point x="422" y="77"/>
      <point x="413" y="61"/>
      <point x="395" y="57" type="curve" smooth="yes"/>
      <point x="381" y="55" type="line" smooth="yes"/>
      <point x="363" y="51"/>
      <point x="352" y="42"/>
      <point x="352" y="28" type="curve" smooth="yes"/>
      <point x="352" y="9"/>
      <point x="363" y="0"/>
      <point x="379" y="0" type="curve" smooth="yes"/>
      <point x="575" y="0" type="line" smooth="yes"/>
      <point x="592" y="0"/>
      <point x="603" y="13"/>
      <point x="603" y="27" type="curve" smooth="yes"/>
      <point x="603" y="41"/>
      <point x="593" y="50"/>
      <point x="577" y="53" type="curve" smooth="yes"/>
      <point x="561" y="56" type="line" smooth="yes"/>
      <point x="543" y="59"/>
      <point x="531" y="77"/>
      <point x="531" y="103" type="curve" smooth="yes"/>
    </contour>
    <contour>
      <point x="508" y="335" type="line" smooth="yes"/>
      <point x="532" y="359" type="line" smooth="yes"/>
      <point x="567" y="394"/>
      <point x="598" y="404"/>
      <point x="632" y="404" type="curve" smooth="yes"/>
      <point x="676" y="404"/>
      <point x="707" y="379"/>
      <point x="715" y="316" type="curve" smooth="yes"/>
      <point x="740" y="109" type="line" smooth="yes"/>
      <point x="744" y="72"/>
      <point x="731" y="59"/>
      <point x="705" y="55" type="curve" smooth="yes"/>
      <point x="693" y="53" type="line" smooth="yes"/>
      <point x="677" y="51"/>
      <point x="665" y="44"/>
      <point x="665" y="27" type="curve" smooth="yes"/>
      <point x="665" y="9"/>
      <point x="677" y="0"/>
      <point x="694" y="0" type="curve" smooth="yes"/>
      <point x="889" y="0" type="line" smooth="yes"/>
      <point x="909" y="0"/>
      <point x="919" y="10"/>
      <point x="919" y="25" type="curve" smooth="yes"/>
      <point x="919" y="40"/>
      <point x="908" y="48"/>
      <point x="894" y="52" type="curve" smooth="yes"/>
      <point x="887" y="54" type="line" smooth="yes"/>
      <point x="871" y="58"/>
      <point x="860" y="71"/>
      <point x="857" y="95" type="curve" smooth="yes"/>
      <point x="825" y="349" type="line" smooth="yes"/>
      <point x="814" y="438"/>
      <point x="758" y="484"/>
      <point x="691" y="484" type="curve" smooth="yes"/>
      <point x="624" y="484"/>
      <point x="568" y="456"/>
      <point x="514" y="401" type="curve" smooth="yes"/>
      <point x="483" y="369" type="line"/>
    </contour>
  </outline>
</glyph>
<glyph name="n" format="1">
  <advance width="619"/>
  <unicode hex="006E"/>
  <outline>
    <contour>
      <point x="218" y="452" type="line" smooth="yes"/>
      <point x="218" y="471"/>
      <point x="208" y="484"/>
      <point x="192" y="484" type="curve" smooth="yes"/>
      <point x="178" y="484"/>
      <point x="164" y="478"/>
      <point x="143" y="469" type="curve" smooth="yes"/>
      <point x="54" y="430" type="line" smooth="yes"/>
      <point x="37" y="422"/>
      <point x="28" y="411"/>
      <point x="28" y="400" type="curve" smooth="yes"/>
      <point x="28" y="385"/>
      <point x="38" y="379"/>
      <point x="54" y="379" type="curve" smooth="yes"/>
      <point x="78" y="379" type="line" smooth="yes"/>
      <point x="94" y="379"/>
      <point x="106" y="368"/>
      <point x="106" y="346" type="curve" smooth="yes"/>
      <point x="106" y="95" type="line" smooth="yes"/>
      <point x="106" y="73"/>
      <point x="95" y="62"/>
      <point x="77" y="56" type="curve" smooth="yes"/>
      <point x="59" y="50" type="line" smooth="yes"/>
      <point x="42" y="45"/>
      <point x="34" y="39"/>
      <point x="34" y="26" type="curve" smooth="yes"/>
      <point x="34" y="10"/>
      <point x="46" y="0"/>
      <point x="65" y="0" type="curve" smooth="yes"/>
      <point x="255" y="0" type="line" smooth="yes"/>
      <point x="277" y="0"/>
      <point x="289" y="8"/>
      <point x="289" y="25" type="curve" smooth="yes"/>
      <point x="289" y="40"/>
      <point x="279" y="44"/>
      <point x="260" y="51" type="curve" smooth="yes"/>
      <point x="241" y="57" type="line" smooth="yes"/>
      <point x="227" y="62"/>
      <point x="218" y="75"/>
      <point x="218" y="97" type="curve" smooth="yes"/>
    </contour>
    <contour>
      <point x="200" y="337" type="line" smooth="yes"/>
      <point x="225" y="361" type="line" smooth="yes"/>
      <point x="256" y="391"/>
      <point x="287" y="403"/>
      <point x="322" y="403" type="curve" smooth="yes"/>
      <point x="367" y="403"/>
      <point x="400" y="378"/>
      <point x="407" y="316" type="curve" smooth="yes"/>
      <point x="432" y="102" type="line" smooth="yes"/>
      <point x="435" y="74"/>
      <point x="425" y="61"/>
      <point x="405" y="57" type="curve" smooth="yes"/>
      <point x="380" y="51" type="line" smooth="yes"/>
      <point x="367" y="47"/>
      <point x="357" y="40"/>
      <point x="357" y="26" type="curve" smooth="yes"/>
      <point x="357" y="9"/>
      <point x="369" y="0"/>
      <point x="386" y="0" type="curve" smooth="yes"/>
      <point x="584" y="0" type="line" smooth="yes"/>
      <point x="602" y="0"/>
      <point x="611" y="10"/>
      <point x="611" y="23" type="curve" smooth="yes"/>
      <point x="611" y="37"/>
      <point x="603" y="44"/>
      <point x="593" y="48" type="curve" smooth="yes"/>
      <point x="574" y="55" type="line" smooth="yes"/>
      <point x="561" y="60"/>
      <point x="551" y="73"/>
      <point x="549" y="93" type="curve" smooth="yes"/>
      <point x="517" y="349" type="line" smooth="yes"/>
      <point x="505" y="438"/>
      <point x="450" y="484"/>
      <point x="383" y="484" type="curve" smooth="yes"/>
      <point x="316" y="484"/>
      <point x="261" y="456"/>
      <point x="206" y="403" type="curve" smooth="yes"/>
      <point x="174" y="371" type="line"/>
    </contour>
  </outline>
</glyph>
<glyph name="o" format="1">
  <advance width="577"/>
  <unicode hex="006F"/>
  <outline>
    <contour>
      <point x="297" y="483" type="curve" smooth="yes"/>
      <point x="138" y="483"/>
      <point x="28" y="372"/>
      <point x="28" y="239" type="curve" smooth="yes"/>
      <point x="28" y="90"/>
      <point x="132" y="-15"/>
      <point x="279" y="-15" type="curve" smooth="yes"/>
      <point x="431" y="-15"/>
      <point x="550" y="90"/>
      <point x="550" y="239" type="curve" smooth="yes"/>
      <point x="550" y="381"/>
      <point x="445" y="483"/>
    </contour>
    <contour>
      <point x="430" y="193" type="curve" smooth="yes"/>
      <point x="430" y="102"/>
      <point x="385" y="51"/>
      <point x="313" y="51" type="curve" smooth="yes"/>
      <point x="222" y="51"/>
      <point x="148" y="149"/>
      <point x="148" y="271" type="curve" smooth="yes"/>
      <point x="148" y="364"/>
      <point x="196" y="419"/>
      <point x="267" y="419" type="curve" smooth="yes"/>
      <point x="358" y="419"/>
      <point x="430" y="317"/>
    </contour>
  </outline>
</glyph>
<glyph name="p" format="1">
  <advance width="601"/>
  <unicode hex="0070"/>
  <outline>
    <contour>
      <point x="203" y="449" type="line" smooth="yes"/>
      <point x="203" y="471"/>
      <point x="192" y="484"/>
      <point x="176" y="484" type="curve" smooth="yes"/>
      <point x="161" y="484"/>
      <point x="145" y="476"/>
      <point x="125" y="468" type="curve" smooth="yes"/>
      <point x="40" y="431" type="line" smooth="yes"/>
      <point x="26" y="425"/>
      <point x="16" y="412"/>
      <point x="16" y="402" type="curve" smooth="yes"/>
      <point x="16" y="390"/>
      <point x="23" y="381"/>
      <point x="39" y="381" type="curve" smooth="yes"/>
      <point x="54" y="381" type="line" smooth="yes"/>
      <point x="78" y="381"/>
      <point x="92" y="370"/>
      <point x="92" y="342" type="curve" smooth="yes"/>
      <point x="92" y="-142" type="line" smooth="yes"/>
      <point x="92" y="-162"/>
      <point x="84" y="-183"/>
      <point x="66" y="-188" type="curve" smooth="yes"/>
      <point x="48" y="-192" type="line" smooth="yes"/>
      <point x="31" y="-196"/>
      <point x="19" y="-201"/>
      <point x="18" y="-217" type="curve" smooth="yes"/>
      <point x="17" y="-235"/>
      <point x="27" y="-245"/>
      <point x="53" y="-245" type="curve" smooth="yes"/>
      <point x="262" y="-245" type="line" smooth="yes"/>
      <point x="282" y="-245"/>
      <point x="291" y="-234"/>
      <point x="291" y="-218" type="curve" smooth="yes"/>
      <point x="291" y="-204"/>
      <point x="280" y="-199"/>
      <point x="263" y="-195" type="curve" smooth="yes"/>
      <point x="245" y="-191" type="line" smooth="yes"/>
      <point x="218" y="-184"/>
      <point x="203" y="-171"/>
      <point x="203" y="-140" type="curve" smooth="yes"/>
    </contour>
    <contour>
      <point x="166" y="343" type="line"/>
      <point x="209" y="384"/>
      <point x="252" y="400"/>
      <point x="298" y="400" type="curve" smooth="yes"/>
      <point x="395" y="400"/>
      <point x="457" y="324"/>
      <point x="457" y="219" type="curve" smooth="yes"/>
      <point x="457" y="117"/>
      <point x="396" y="48"/>
      <point x="309" y="48" type="curve" smooth="yes"/>
      <point x="250" y="48"/>
      <point x="203" y="69"/>
      <point x="174" y="115" type="curve"/>
      <point x="138" y="78" type="line"/>
      <point x="183" y="15"/>
      <point x="244" y="-14"/>
      <point x="322" y="-14" type="curve" smooth="yes"/>
      <point x="465" y="-14"/>
      <point x="574" y="99"/>
      <point x="574" y="254" type="curve" smooth="yes"/>
      <point x="574" y="387"/>
      <point x="487" y="484"/>
      <point x="369" y="484" type="curve" smooth="yes"/>
      <point x="279" y="484"/>
      <point x="215" y="443"/>
      <point x="146" y="370" type="curve"/>
    </contour>
  </outline>
</glyph>
<glyph name="q" format="1">
  <advance width="569"/>
  <unicode hex="0071"/>
  <outline>
    <contour>
      <point x="507" y="-141" type="curve" smooth="yes"/>
      <point x="507" y="441" type="line" smooth="yes"/>
      <point x="507" y="461"/>
      <point x="498" y="472"/>
      <point x="484" y="472" type="curve" smooth="yes"/>
      <point x="469" y="472"/>
      <point x="456" y="468"/>
      <point x="440" y="460" type="curve" smooth="yes"/>
      <point x="392" y="435" type="line" smooth="yes"/>
      <point x="392" y="-139" type="line" smooth="yes"/>
      <point x="392" y="-170"/>
      <point x="377" y="-184"/>
      <point x="350" y="-190" type="curve" smooth="yes"/>
      <point x="331" y="-194" type="line" smooth="yes"/>
      <point x="316" y="-198"/>
      <point x="307" y="-204"/>
      <point x="307" y="-218" type="curve" smooth="yes"/>
      <point x="307" y="-234"/>
      <point x="315" y="-245"/>
      <point x="331" y="-245" type="curve" smooth="yes"/>
      <point x="544" y="-245" type="line" smooth="yes"/>
      <point x="567" y="-245"/>
      <point x="576" y="-235"/>
      <point x="575" y="-217" type="curve" smooth="yes"/>
      <point x="574" y="-201"/>
      <point x="563" y="-195"/>
      <point x="549" y="-191" type="curve" smooth="yes"/>
      <point x="533" y="-187" type="line" smooth="yes"/>
      <point x="516" y="-182"/>
      <point x="507" y="-161"/>
    </contour>
    <contour>
      <point x="428" y="130" type="line"/>
      <point x="383" y="86"/>
      <point x="345" y="70"/>
      <point x="297" y="70" type="curve" smooth="yes"/>
      <point x="208" y="70"/>
      <point x="145" y="141"/>
      <point x="145" y="251" type="curve" smooth="yes"/>
      <point x="145" y="357"/>
      <point x="210" y="424"/>
      <point x="296" y="424" type="curve" smooth="yes"/>
      <point x="354" y="424"/>
      <point x="395" y="401"/>
      <point x="424" y="354" type="curve"/>
      <point x="459" y="396" type="line"/>
      <point x="415" y="457"/>
      <point x="358" y="484"/>
      <point x="280" y="484" type="curve" smooth="yes"/>
      <point x="140" y="484"/>
      <point x="27" y="373"/>
      <point x="27" y="216" type="curve" smooth="yes"/>
      <point x="27" y="81"/>
      <point x="118" y="-14"/>
      <point x="231" y="-14" type="curve" smooth="yes"/>
      <point x="321" y="-14"/>
      <point x="379" y="24"/>
      <point x="451" y="101" type="curve"/>
    </contour>
  </outline>
</glyph>
<glyph name="r" format="1">
  <advance width="436"/>
  <unicode hex="0072"/>
  <outline>
    <contour>
      <point x="192" y="278" type="line"/>
      <point x="201" y="411"/>
      <point x="266" y="484"/>
      <point x="334" y="484" type="curve" smooth="yes"/>
      <point x="393" y="484"/>
      <point x="431" y="442"/>
      <point x="431" y="388" type="curve" smooth="yes"/>
      <point x="431" y="346"/>
      <point x="406" y="323"/>
      <point x="369" y="323" type="curve" smooth="yes"/>
      <point x="343" y="323"/>
      <point x="322" y="336"/>
      <point x="313" y="363" type="curve" smooth="yes"/>
      <point x="306" y="389"/>
      <point x="298" y="395"/>
      <point x="283" y="395" type="curve" smooth="yes"/>
      <point x="250" y="395"/>
      <point x="217" y="354"/>
      <point x="217" y="272" type="curve"/>
    </contour>
    <contour>
      <point x="217" y="454" type="curve" smooth="yes"/>
      <point x="217" y="115" type="line" smooth="yes"/>
      <point x="217" y="90"/>
      <point x="231" y="70"/>
      <point x="257" y="62" type="curve" smooth="yes"/>
      <point x="287" y="54" type="line" smooth="yes"/>
      <point x="305" y="48"/>
      <point x="315" y="41"/>
      <point x="315" y="27" type="curve" smooth="yes"/>
      <point x="315" y="9"/>
      <point x="305" y="0"/>
      <point x="285" y="0" type="curve" smooth="yes"/>
      <point x="61" y="0" type="line" smooth="yes"/>
      <point x="43" y="0"/>
      <point x="31" y="9"/>
      <point x="31" y="26" type="curve" smooth="yes"/>
      <point x="31" y="40"/>
      <point x="41" y="47"/>
      <point x="59" y="52" type="curve" smooth="yes"/>
      <point x="77" y="57" type="line" smooth="yes"/>
      <point x="93" y="62"/>
      <point x="106" y="77"/>
      <point x="106" y="102" type="curve" smooth="yes"/>
      <point x="106" y="347" type="line" smooth="yes"/>
      <point x="106" y="372"/>
      <point x="87" y="382"/>
      <point x="70" y="382" type="curve" smooth="yes"/>
      <point x="55" y="382" type="line" smooth="yes"/>
      <point x="40" y="382"/>
      <point x="31" y="390"/>
      <point x="31" y="404" type="curve" smooth="yes"/>
      <point x="31" y="414"/>
      <point x="40" y="426"/>
      <point x="58" y="433" type="curve" smooth="yes"/>
      <point x="143" y="469" type="line" smooth="yes"/>
      <point x="164" y="478"/>
      <point x="177" y="484"/>
      <point x="191" y="484" type="curve" smooth="yes"/>
      <point x="206" y="484"/>
      <point x="217" y="472"/>
    </contour>
  </outline>
</glyph>
<glyph name="s" format="1">
  <advance width="458"/>
  <unicode hex="0073"/>
  <outline>
    <contour>
      <point x="240" y="40" type="curve" smooth="yes"/>
      <point x="192" y="40"/>
      <point x="151" y="62"/>
      <point x="115" y="118" type="curve" smooth="yes"/>
      <point x="98" y="143"/>
      <point x="86" y="152"/>
      <point x="73" y="152" type="curve" smooth="yes"/>
      <point x="57" y="152"/>
      <point x="49" y="141"/>
      <point x="49" y="124" type="curve" smooth="yes"/>
      <point x="49" y="114"/>
      <point x="52" y="101"/>
      <point x="57" y="85" type="curve" smooth="yes"/>
      <point x="81" y="10" type="line" smooth="yes"/>
      <point x="86" y="-9"/>
      <point x="96" y="-15"/>
      <point x="108" y="-15" type="curve" smooth="yes"/>
      <point x="120" y="-15"/>
      <point x="129" y="2"/>
      <point x="142" y="2" type="curve" smooth="yes"/>
      <point x="156" y="2"/>
      <point x="190" y="-15"/>
      <point x="241" y="-15" type="curve" smooth="yes"/>
      <point x="344" y="-15"/>
      <point x="413" y="49"/>
      <point x="413" y="131" type="curve" smooth="yes"/>
      <point x="413" y="199"/>
      <point x="374" y="260"/>
      <point x="265" y="283" type="curve" smooth="yes"/>
      <point x="173" y="302"/>
      <point x="139" y="329"/>
      <point x="139" y="373" type="curve" smooth="yes"/>
      <point x="139" y="405"/>
      <point x="168" y="431"/>
      <point x="217" y="431" type="curve" smooth="yes"/>
      <point x="261" y="431"/>
      <point x="300" y="406"/>
      <point x="349" y="338" type="curve" smooth="yes"/>
      <point x="360" y="322"/>
      <point x="375" y="310"/>
      <point x="391" y="310" type="curve" smooth="yes"/>
      <point x="409" y="310"/>
      <point x="417" y="322"/>
      <point x="417" y="336" type="curve" smooth="yes"/>
      <point x="417" y="346"/>
      <point x="413" y="360"/>
      <point x="406" y="377" type="curve" smooth="yes"/>
      <point x="370" y="457" type="line" smooth="yes"/>
      <point x="362" y="476"/>
      <point x="354" y="484"/>
      <point x="341" y="484" type="curve" smooth="yes"/>
      <point x="329" y="484"/>
      <point x="322" y="466"/>
      <point x="307" y="466" type="curve" smooth="yes"/>
      <point x="291" y="466"/>
      <point x="262" y="483"/>
      <point x="216" y="483" type="curve" smooth="yes"/>
      <point x="102" y="483"/>
      <point x="35" y="412"/>
      <point x="35" y="333" type="curve" smooth="yes"/>
      <point x="35" y="259"/>
      <point x="83" y="207"/>
      <point x="190" y="184" type="curve" smooth="yes"/>
      <point x="277" y="164"/>
      <point x="307" y="136"/>
      <point x="307" y="97" type="curve" smooth="yes"/>
      <point x="307" y="65"/>
      <point x="282" y="40"/>
    </contour>
  </outline>
</glyph>
<glyph name="t" format="1">
  <advance width="350"/>
  <unicode hex="0074"/>
  <outline>
    <contour>
      <point x="52" y="400" type="line" smooth="yes"/>
      <point x="71" y="391"/>
      <point x="78" y="377"/>
      <point x="78" y="352" type="curve" smooth="yes"/>
      <point x="78" y="111" type="line" smooth="yes"/>
      <point x="78" y="34"/>
      <point x="125" y="-12"/>
      <point x="202" y="-12" type="curve" smooth="yes"/>
      <point x="277" y="-12"/>
      <point x="336" y="35"/>
      <point x="336" y="72" type="curve" smooth="yes"/>
      <point x="336" y="82"/>
      <point x="330" y="91"/>
      <point x="320" y="91" type="curve" smooth="yes"/>
      <point x="312" y="91"/>
      <point x="304" y="89"/>
      <point x="294" y="82" type="curve" smooth="yes"/>
      <point x="281" y="73"/>
      <point x="269" y="69"/>
      <point x="256" y="69" type="curve" smooth="yes"/>
      <point x="216" y="69"/>
      <point x="189" y="94"/>
      <point x="189" y="138" type="curve" smooth="yes"/>
      <point x="189" y="558" type="line" smooth="yes"/>
      <point x="189" y="577"/>
      <point x="178" y="588"/>
      <point x="162" y="588" type="curve" smooth="yes"/>
      <point x="150" y="588"/>
      <point x="135" y="579"/>
      <point x="124" y="559" type="curve" smooth="yes"/>
      <point x="88" y="492" type="line" smooth="yes"/>
      <point x="80" y="477"/>
      <point x="67" y="469"/>
      <point x="51" y="469" type="curve" smooth="yes"/>
      <point x="37" y="469" type="line" smooth="yes"/>
      <point x="17" y="469"/>
      <point x="5" y="457"/>
      <point x="5" y="442" type="curve" smooth="yes"/>
      <point x="5" y="429"/>
      <point x="15" y="418"/>
      <point x="34" y="408" type="curve" smooth="yes"/>
    </contour>
    <contour>
      <point x="120" y="407" type="line"/>
      <point x="120" y="407"/>
      <point x="266" y="407"/>
      <point x="294" y="407" type="curve" smooth="yes"/>
      <point x="316" y="407"/>
      <point x="330" y="416"/>
      <point x="330" y="438" type="curve" smooth="yes"/>
      <point x="330" y="459"/>
      <point x="316" y="469"/>
      <point x="292" y="469" type="curve" smooth="yes"/>
      <point x="273" y="469"/>
      <point x="127" y="469"/>
      <point x="127" y="469" type="curve"/>
    </contour>
  </outline>
</glyph>
<glyph name="u" format="1">
  <advance width="589"/>
  <unicode hex="0075"/>
  <outline>
    <contour>
      <point x="506" y="452" type="line" smooth="yes"/>
      <point x="506" y="472"/>
      <point x="496" y="483"/>
      <point x="478" y="483" type="curve" smooth="yes"/>
      <point x="466" y="483"/>
      <point x="454" y="479"/>
      <point x="433" y="473" type="curve" smooth="yes"/>
      <point x="348" y="447" type="line" smooth="yes"/>
      <point x="330" y="441"/>
      <point x="321" y="429"/>
      <point x="321" y="419" type="curve" smooth="yes"/>
      <point x="321" y="406"/>
      <point x="331" y="397"/>
      <point x="347" y="397" type="curve" smooth="yes"/>
      <point x="360" y="397" type="line" smooth="yes"/>
      <point x="382" y="397"/>
      <point x="392" y="386"/>
      <point x="392" y="360" type="curve" smooth="yes"/>
      <point x="392" y="57" type="line" smooth="yes"/>
      <point x="392" y="18"/>
      <point x="413" y="0"/>
      <point x="452" y="0" type="curve" smooth="yes"/>
      <point x="544" y="0" type="line" smooth="yes"/>
      <point x="568" y="0"/>
      <point x="577" y="12"/>
      <point x="577" y="28" type="curve" smooth="yes"/>
      <point x="577" y="44"/>
      <point x="565" y="50"/>
      <point x="550" y="54" type="curve" smooth="yes"/>
      <point x="536" y="57" type="line" smooth="yes"/>
      <point x="517" y="62"/>
      <point x="506" y="80"/>
      <point x="506" y="115" type="curve" smooth="yes"/>
    </contour>
    <contour>
      <point x="191" y="452" type="line" smooth="yes"/>
      <point x="191" y="472"/>
      <point x="182" y="483"/>
      <point x="167" y="483" type="curve" smooth="yes"/>
      <point x="154" y="483"/>
      <point x="143" y="479"/>
      <point x="121" y="473" type="curve" smooth="yes"/>
      <point x="38" y="448" type="line" smooth="yes"/>
      <point x="19" y="442"/>
      <point x="9" y="431"/>
      <point x="9" y="419" type="curve" smooth="yes"/>
      <point x="9" y="406"/>
      <point x="19" y="397"/>
      <point x="34" y="397" type="curve" smooth="yes"/>
      <point x="48" y="397" type="line" smooth="yes"/>
      <point x="70" y="397"/>
      <point x="81" y="386"/>
      <point x="81" y="360" type="curve" smooth="yes"/>
      <point x="81" y="143" type="line" smooth="yes"/>
      <point x="81" y="49"/>
      <point x="149" y="-9"/>
      <point x="235" y="-9" type="curve" smooth="yes"/>
      <point x="312" y="-9"/>
      <point x="371" y="23"/>
      <point x="423" y="90" type="curve"/>
      <point x="408" y="124" type="line"/>
      <point x="367" y="82"/>
      <point x="328" y="65"/>
      <point x="288" y="65" type="curve" smooth="yes"/>
      <point x="233" y="65"/>
      <point x="191" y="100"/>
      <point x="191" y="168" type="curve" smooth="yes"/>
    </contour>
  </outline>
</glyph>
<glyph name="v" format="1">
  <advance width="529"/>
  <unicode hex="0076"/>
  <outline>
    <contour>
      <point x="252" y="-10" type="curve" smooth="yes"/>
      <point x="283" y="-10" type="line" smooth="yes"/>
      <point x="299" y="-10"/>
      <point x="316" y="-2"/>
      <point x="327" y="24" type="curve" smooth="yes"/>
      <point x="464" y="342" type="line" smooth="yes"/>
      <point x="478" y="375"/>
      <point x="492" y="394"/>
      <point x="504" y="401" type="curve" smooth="yes"/>
      <point x="521" y="410"/>
      <point x="527" y="420"/>
      <point x="527" y="439" type="curve" smooth="yes"/>
      <point x="527" y="456"/>
      <point x="517" y="469"/>
      <point x="497" y="469" type="curve" smooth="yes"/>
      <point x="355" y="469" type="line" smooth="yes"/>
      <point x="336" y="469"/>
      <point x="326" y="460"/>
      <point x="326" y="446" type="curve" smooth="yes"/>
      <point x="326" y="432"/>
      <point x="336" y="424"/>
      <point x="354" y="417" type="curve" smooth="yes"/>
      <point x="383" y="405" type="line" smooth="yes"/>
      <point x="398" y="398"/>
      <point x="405" y="390"/>
      <point x="405" y="377" type="curve" smooth="yes"/>
      <point x="405" y="361"/>
      <point x="400" y="347"/>
      <point x="388" y="319" type="curve" smooth="yes"/>
      <point x="286" y="68" type="line" smooth="yes"/>
      <point x="309" y="63" type="line"/>
      <point x="188" y="357" type="line" smooth="yes"/>
      <point x="183" y="370"/>
      <point x="177" y="379"/>
      <point x="177" y="392" type="curve" smooth="yes"/>
      <point x="177" y="404"/>
      <point x="187" y="407"/>
      <point x="206" y="414" type="curve" smooth="yes"/>
      <point x="226" y="420" type="line" smooth="yes"/>
      <point x="243" y="425"/>
      <point x="253" y="434"/>
      <point x="253" y="448" type="curve" smooth="yes"/>
      <point x="253" y="460"/>
      <point x="244" y="469"/>
      <point x="225" y="469" type="curve" smooth="yes"/>
      <point x="31" y="469" type="line" smooth="yes"/>
      <point x="12" y="469"/>
      <point x="3" y="459"/>
      <point x="3" y="443" type="curve" smooth="yes"/>
      <point x="3" y="427"/>
      <point x="10" y="416"/>
      <point x="26" y="407" type="curve" smooth="yes"/>
      <point x="43" y="396"/>
      <point x="49" y="386"/>
      <point x="58" y="366" type="curve" smooth="yes"/>
      <point x="202" y="30" type="line" smooth="yes"/>
      <point x="214" y="1"/>
      <point x="231" y="-10"/>
    </contour>
  </outline>
</glyph>
<glyph name="w" format="1">
  <advance width="815"/>
  <unicode hex="0077"/>
  <outline>
    <contour>
      <point x="234" y="-10" type="curve" smooth="yes"/>
      <point x="265" y="-10" type="line" smooth="yes"/>
      <point x="284" y="-10"/>
      <point x="294" y="-1"/>
      <point x="305" y="25" type="curve" smooth="yes"/>
      <point x="439" y="322" type="line"/>
      <point x="400" y="381" type="line"/>
      <point x="266" y="68" type="line" smooth="yes"/>
      <point x="294" y="63" type="line"/>
      <point x="183" y="357" type="line" smooth="yes"/>
      <point x="178" y="371"/>
      <point x="173" y="380"/>
      <point x="173" y="392" type="curve" smooth="yes"/>
      <point x="173" y="404"/>
      <point x="182" y="409"/>
      <point x="201" y="414" type="curve" smooth="yes"/>
      <point x="224" y="420" type="line" smooth="yes"/>
      <point x="238" y="423"/>
      <point x="245" y="433"/>
      <point x="245" y="448" type="curve" smooth="yes"/>
      <point x="245" y="462"/>
      <point x="235" y="469"/>
      <point x="218" y="469" type="curve" smooth="yes"/>
      <point x="39" y="469" type="line" smooth="yes"/>
      <point x="15" y="469"/>
      <point x="6" y="458"/>
      <point x="6" y="442" type="curve" smooth="yes"/>
      <point x="6" y="428"/>
      <point x="17" y="419"/>
      <point x="34" y="407" type="curve" smooth="yes"/>
      <point x="44" y="400"/>
      <point x="54" y="391"/>
      <point x="60" y="374" type="curve" smooth="yes"/>
      <point x="190" y="29" type="line" smooth="yes"/>
      <point x="200" y="2"/>
      <point x="214" y="-10"/>
    </contour>
    <contour>
      <point x="584" y="-10" type="line" smooth="yes"/>
      <point x="602" y="-10"/>
      <point x="613" y="-3"/>
      <point x="623" y="21" type="curve" smooth="yes"/>
      <point x="746" y="342" type="line" smooth="yes"/>
      <point x="757" y="371"/>
      <point x="768" y="386"/>
      <point x="785" y="402" type="curve" smooth="yes"/>
      <point x="799" y="414"/>
      <point x="809" y="425"/>
      <point x="809" y="443" type="curve" smooth="yes"/>
      <point x="809" y="458"/>
      <point x="798" y="469"/>
      <point x="774" y="469" type="curve" smooth="yes"/>
      <point x="637" y="469" type="line" smooth="yes"/>
      <point x="620" y="469"/>
      <point x="611" y="461"/>
      <point x="611" y="446" type="curve" smooth="yes"/>
      <point x="611" y="432"/>
      <point x="620" y="424"/>
      <point x="634" y="416" type="curve" smooth="yes"/>
      <point x="661" y="403" type="line" smooth="yes"/>
      <point x="680" y="393"/>
      <point x="683" y="383"/>
      <point x="683" y="370" type="curve" smooth="yes"/>
      <point x="683" y="352"/>
      <point x="678" y="337"/>
      <point x="667" y="309" type="curve" smooth="yes"/>
      <point x="583" y="68" type="line" smooth="yes"/>
      <point x="612" y="63" type="line"/>
      <point x="492" y="350" type="line" smooth="yes"/>
      <point x="485" y="368"/>
      <point x="484" y="376"/>
      <point x="484" y="386" type="curve" smooth="yes"/>
      <point x="484" y="399"/>
      <point x="490" y="407"/>
      <point x="505" y="414" type="curve" smooth="yes"/>
      <point x="522" y="421" type="line" smooth="yes"/>
      <point x="535" y="427"/>
      <point x="542" y="434"/>
      <point x="542" y="448" type="curve" smooth="yes"/>
      <point x="542" y="462"/>
      <point x="531" y="469"/>
      <point x="511" y="469" type="curve" smooth="yes"/>
      <point x="324" y="469" type="line" smooth="yes"/>
      <point x="309" y="469"/>
      <point x="302" y="460"/>
      <point x="302" y="448" type="curve" smooth="yes"/>
      <point x="302" y="436"/>
      <point x="310" y="427"/>
      <point x="330" y="417" type="curve" smooth="yes"/>
      <point x="347" y="408"/>
      <point x="361" y="390"/>
      <point x="368" y="374" type="curve" smooth="yes"/>
      <point x="516" y="26" type="line" smooth="yes"/>
      <point x="527" y="0"/>
      <point x="540" y="-10"/>
      <point x="556" y="-10" type="curve" smooth="yes"/>
    </contour>
  </outline>
</glyph>
<glyph name="x" format="1">
  <advance width="540"/>
  <unicode hex="0078"/>
  <outline>
    <contour>
      <point x="223" y="238" type="line"/>
      <point x="134" y="136" type="line" smooth="yes"/>
      <point x="104" y="100"/>
      <point x="86" y="82"/>
      <point x="53" y="70" type="curve" smooth="yes"/>
      <point x="23" y="60"/>
      <point x="6" y="50"/>
      <point x="6" y="29" type="curve" smooth="yes"/>
      <point x="6" y="11"/>
      <point x="16" y="0"/>
      <point x="40" y="0" type="curve" smooth="yes"/>
      <point x="183" y="0" type="line" smooth="yes"/>
      <point x="202" y="0"/>
      <point x="215" y="8"/>
      <point x="215" y="25" type="curve" smooth="yes"/>
      <point x="215" y="38"/>
      <point x="210" y="44"/>
      <point x="200" y="49" type="curve" smooth="yes"/>
      <point x="186" y="56" type="line" smooth="yes"/>
      <point x="172" y="63"/>
      <point x="167" y="70"/>
      <point x="167" y="80" type="curve" smooth="yes"/>
      <point x="167" y="91"/>
      <point x="176" y="105"/>
      <point x="189" y="121" type="curve" smooth="yes"/>
      <point x="261" y="208" type="line"/>
    </contour>
    <contour>
      <point x="226" y="363" type="line" smooth="yes"/>
      <point x="215" y="376"/>
      <point x="212" y="382"/>
      <point x="212" y="392" type="curve" smooth="yes"/>
      <point x="212" y="404"/>
      <point x="219" y="410"/>
      <point x="226" y="414" type="curve" smooth="yes"/>
      <point x="236" y="420" type="line" smooth="yes"/>
      <point x="249" y="427"/>
      <point x="258" y="432"/>
      <point x="258" y="448" type="curve" smooth="yes"/>
      <point x="258" y="462"/>
      <point x="246" y="468"/>
      <point x="228" y="468" type="curve" smooth="yes"/>
      <point x="40" y="468" type="line" smooth="yes"/>
      <point x="18" y="468"/>
      <point x="8" y="459"/>
      <point x="8" y="443" type="curve" smooth="yes"/>
      <point x="8" y="428"/>
      <point x="17" y="418"/>
      <point x="30" y="415" type="curve" smooth="yes"/>
      <point x="44" y="411"/>
      <point x="60" y="401"/>
      <point x="86" y="371" type="curve"/>
      <point x="314" y="104" type="line" smooth="yes"/>
      <point x="324" y="91"/>
      <point x="328" y="82"/>
      <point x="328" y="74" type="curve" smooth="yes"/>
      <point x="328" y="66"/>
      <point x="325" y="60"/>
      <point x="316" y="55" type="curve" smooth="yes"/>
      <point x="304" y="50" type="line" smooth="yes"/>
      <point x="290" y="43"/>
      <point x="281" y="36"/>
      <point x="281" y="22" type="curve" smooth="yes"/>
      <point x="281" y="7"/>
      <point x="292" y="0"/>
      <point x="309" y="0" type="curve" smooth="yes"/>
      <point x="507" y="0" type="line" smooth="yes"/>
      <point x="529" y="0"/>
      <point x="539" y="11"/>
      <point x="539" y="25" type="curve" smooth="yes"/>
      <point x="539" y="36"/>
      <point x="530" y="48"/>
      <point x="510" y="55" type="curve" smooth="yes"/>
      <point x="494" y="59"/>
      <point x="480" y="67"/>
      <point x="457" y="92" type="curve" smooth="yes"/>
    </contour>
    <contour>
      <point x="310" y="210" type="line"/>
      <point x="438" y="359" type="line" smooth="yes"/>
      <point x="463" y="388"/>
      <point x="479" y="404"/>
      <point x="499" y="412" type="curve" smooth="yes"/>
      <point x="520" y="422"/>
      <point x="532" y="428"/>
      <point x="532" y="443" type="curve" smooth="yes"/>
      <point x="532" y="458"/>
      <point x="521" y="468"/>
      <point x="499" y="468" type="curve" smooth="yes"/>
      <point x="357" y="468" type="line" smooth="yes"/>
      <point x="338" y="468"/>
      <point x="327" y="462"/>
      <point x="327" y="449" type="curve" smooth="yes"/>
      <point x="327" y="438"/>
      <point x="332" y="430"/>
      <point x="344" y="423" type="curve" smooth="yes"/>
      <point x="363" y="413" type="line" smooth="yes"/>
      <point x="375" y="407"/>
      <point x="379" y="397"/>
      <point x="379" y="386" type="curve" smooth="yes"/>
      <point x="379" y="370"/>
      <point x="370" y="357"/>
      <point x="357" y="341" type="curve" smooth="yes"/>
      <point x="275" y="240" type="line"/>
    </contour>
  </outline>
</glyph>
<glyph name="y" format="1">
  <advance width="549"/>
  <unicode hex="0079"/>
  <outline>
    <contour>
      <point x="323" y="66" type="line"/>
      <point x="196" y="346" type="line" smooth="yes"/>
      <point x="190" y="360"/>
      <point x="188" y="369"/>
      <point x="188" y="381" type="curve" smooth="yes"/>
      <point x="188" y="396"/>
      <point x="197" y="405"/>
      <point x="214" y="410" type="curve" smooth="yes"/>
      <point x="234" y="414" type="line" smooth="yes"/>
      <point x="248" y="419"/>
      <point x="257" y="430"/>
      <point x="257" y="446" type="curve" smooth="yes"/>
      <point x="257" y="462"/>
      <point x="244" y="469"/>
      <point x="224" y="469" type="curve" smooth="yes"/>
      <point x="31" y="469" type="line" smooth="yes"/>
      <point x="10" y="469"/>
      <point x="-2" y="458"/>
      <point x="-2" y="440" type="curve" smooth="yes"/>
      <point x="-2" y="425"/>
      <point x="9" y="413"/>
      <point x="26" y="405" type="curve" smooth="yes"/>
      <point x="45" y="396"/>
      <point x="55" y="386"/>
      <point x="63" y="367" type="curve" smooth="yes"/>
      <point x="263" y="-66" type="line"/>
    </contour>
    <contour>
      <point x="229" y="-106" type="line" smooth="yes"/>
      <point x="210" y="-152"/>
      <point x="195" y="-166"/>
      <point x="174" y="-166" type="curve" smooth="yes"/>
      <point x="159" y="-166"/>
      <point x="149" y="-156"/>
      <point x="140" y="-142" type="curve" smooth="yes"/>
      <point x="127" y="-117" type="line" smooth="yes"/>
      <point x="110" y="-89"/>
      <point x="93" y="-78"/>
      <point x="65" y="-78" type="curve" smooth="yes"/>
      <point x="34" y="-78"/>
      <point x="10" y="-101"/>
      <point x="10" y="-142" type="curve" smooth="yes"/>
      <point x="10" y="-201"/>
      <point x="52" y="-245"/>
      <point x="127" y="-245" type="curve" smooth="yes"/>
      <point x="199" y="-245"/>
      <point x="251" y="-208"/>
      <point x="288" y="-115" type="curve" smooth="yes"/>
      <point x="465" y="311" type="line" smooth="yes"/>
      <point x="485" y="359"/>
      <point x="500" y="380"/>
      <point x="519" y="392" type="curve" smooth="yes"/>
      <point x="537" y="404"/>
      <point x="549" y="418"/>
      <point x="549" y="434" type="curve" smooth="yes"/>
      <point x="549" y="457"/>
      <point x="537" y="469"/>
      <point x="511" y="469" type="curve" smooth="yes"/>
      <point x="367" y="469" type="line" smooth="yes"/>
      <point x="350" y="469"/>
      <point x="339" y="460"/>
      <point x="339" y="446" type="curve" smooth="yes"/>
      <point x="339" y="431"/>
      <point x="348" y="422"/>
      <point x="364" y="412" type="curve" smooth="yes"/>
      <point x="383" y="403" type="line" smooth="yes"/>
      <point x="401" y="393"/>
      <point x="410" y="382"/>
      <point x="410" y="359" type="curve" smooth="yes"/>
      <point x="410" y="345"/>
      <point x="410" y="332"/>
      <point x="394" y="294" type="curve" smooth="yes"/>
    </contour>
    <contour>
      <point x="290" y="510" type="move" name="center"/>
    </contour>
  </outline>
</glyph>
<glyph name="z" format="1">
  <advance width="482"/>
  <unicode hex="007A"/>
  <outline>
    <contour>
      <point x="409" y="381" type="line" smooth="yes"/>
      <point x="431" y="411"/>
      <point x="436" y="426"/>
      <point x="436" y="437" type="curve" smooth="yes"/>
      <point x="436" y="456"/>
      <point x="423" y="469"/>
      <point x="397" y="469" type="curve" smooth="yes"/>
      <point x="155" y="469" type="line" smooth="yes"/>
      <point x="133" y="469"/>
      <point x="114" y="484"/>
      <point x="94" y="484" type="curve" smooth="yes"/>
      <point x="78" y="484"/>
      <point x="68" y="475"/>
      <point x="60" y="446" type="curve" smooth="yes"/>
      <point x="42" y="377" type="line" smooth="yes"/>
      <point x="40" y="367"/>
      <point x="38" y="359"/>
      <point x="38" y="350" type="curve" smooth="yes"/>
      <point x="38" y="335"/>
      <point x="49" y="326"/>
      <point x="62" y="326" type="curve" smooth="yes"/>
      <point x="79" y="326"/>
      <point x="91" y="336"/>
      <point x="108" y="359" type="curve" smooth="yes"/>
      <point x="123" y="380" type="line" smooth="yes"/>
      <point x="142" y="407"/>
      <point x="157" y="416"/>
      <point x="184" y="416" type="curve" smooth="yes"/>
      <point x="327" y="416" type="line"/>
      <point x="318" y="438" type="line"/>
      <point x="54" y="81" type="line" smooth="yes"/>
      <point x="40" y="61"/>
      <point x="36" y="46"/>
      <point x="36" y="34" type="curve" smooth="yes"/>
      <point x="36" y="16"/>
      <point x="51" y="-1"/>
      <point x="79" y="-1" type="curve" smooth="yes"/>
      <point x="291" y="-1" type="line" smooth="yes"/>
      <point x="345" y="-1"/>
      <point x="367" y="-15"/>
      <point x="392" y="-15" type="curve" smooth="yes"/>
      <point x="414" y="-15"/>
      <point x="425" y="-5"/>
      <point x="432" y="22" type="curve" smooth="yes"/>
      <point x="452" y="107" type="line" smooth="yes"/>
      <point x="455" y="120"/>
      <point x="456" y="127"/>
      <point x="456" y="135" type="curve" smooth="yes"/>
      <point x="456" y="152"/>
      <point x="445" y="163"/>
      <point x="430" y="163" type="curve" smooth="yes"/>
      <point x="415" y="163"/>
      <point x="404" y="152"/>
      <point x="391" y="132" type="curve" smooth="yes"/>
      <point x="374" y="104" type="line" smooth="yes"/>
      <point x="354" y="71"/>
      <point x="333" y="53"/>
      <point x="291" y="53" type="curve" smooth="yes"/>
      <point x="139" y="53" type="line"/>
      <point x="151" y="29" type="line"/>
    </contour>
  </outline>
</glyph>
<glyph name="braceleft" format="1">
  <advance width="420"/>
  <unicode hex="007B"/>
  <outline>
    <contour>
      <point x="224" y="289" type="curve" smooth="yes"/>
      <point x="224" y="297"/>
      <point x="230" y="303"/>
      <point x="239" y="303" type="curve" smooth="yes"/>
      <point x="273" y="303"/>
      <point x="296" y="335"/>
      <point x="296" y="381" type="curve" smooth="yes"/>
      <point x="296" y="459"/>
      <point x="242" y="527"/>
      <point x="242" y="598" type="curve" smooth="yes"/>
      <point x="242" y="659"/>
      <point x="285" y="708"/>
      <point x="336" y="708" type="curve" smooth="yes"/>
      <point x="375" y="708" type="line" smooth="yes"/>
      <point x="393" y="708"/>
      <point x="405" y="716"/>
      <point x="405" y="732" type="curve" smooth="yes"/>
      <point x="405" y="745"/>
      <point x="396" y="755"/>
      <point x="377" y="755" type="curve" smooth="yes"/>
      <point x="317" y="755" type="line" smooth="yes"/>
      <point x="206" y="755"/>
      <point x="127" y="692"/>
      <point x="127" y="600" type="curve" smooth="yes"/>
      <point x="127" y="506"/>
      <point x="210" y="445"/>
      <point x="210" y="368" type="curve" smooth="yes"/>
      <point x="210" y="342"/>
      <point x="187" y="327"/>
      <point x="161" y="327" type="curve" smooth="yes"/>
      <point x="138" y="327"/>
      <point x="119" y="342"/>
      <point x="94" y="342" type="curve" smooth="yes"/>
      <point x="69" y="342"/>
      <point x="47" y="316"/>
      <point x="47" y="290" type="curve" smooth="yes"/>
      <point x="47" y="261"/>
      <point x="67" y="238"/>
      <point x="96" y="238" type="curve" smooth="yes"/>
      <point x="120" y="238"/>
      <point x="141" y="253"/>
      <point x="162" y="253" type="curve" smooth="yes"/>
      <point x="190" y="253"/>
      <point x="210" y="235"/>
      <point x="210" y="207" type="curve" smooth="yes"/>
      <point x="210" y="135"/>
      <point x="127" y="72"/>
      <point x="127" y="-30" type="curve" smooth="yes"/>
      <point x="127" y="-120"/>
      <point x="206" y="-185"/>
      <point x="317" y="-185" type="curve" smooth="yes"/>
      <point x="377" y="-185" type="line" smooth="yes"/>
      <point x="396" y="-185"/>
      <point x="405" y="-172"/>
      <point x="405" y="-162" type="curve" smooth="yes"/>
      <point x="405" y="-144"/>
      <point x="393" y="-138"/>
      <point x="375" y="-138" type="curve" smooth="yes"/>
      <point x="336" y="-138" type="line" smooth="yes"/>
      <point x="285" y="-138"/>
      <point x="242" y="-87"/>
      <point x="242" y="-28" type="curve" smooth="yes"/>
      <point x="242" y="48"/>
      <point x="296" y="120"/>
      <point x="296" y="195" type="curve" smooth="yes"/>
      <point x="296" y="240"/>
      <point x="276" y="276"/>
      <point x="239" y="276" type="curve" smooth="yes"/>
      <point x="230" y="276"/>
      <point x="224" y="280"/>
    </contour>
  </outline>
</glyph>
<glyph name="bar" format="1">
  <advance width="357"/>
  <unicode hex="007C"/>
  <outline>
    <contour>
      <point x="130" y="700" type="curve" smooth="yes"/>
      <point x="141" y="583"/>
      <point x="152" y="345"/>
      <point x="152" y="265" type="curve" smooth="yes"/>
      <point x="152" y="170"/>
      <point x="141" y="-58"/>
      <point x="130" y="-176" type="curve" smooth="yes"/>
      <point x="129" y="-184"/>
      <point x="129" y="-191"/>
      <point x="129" y="-199" type="curve" smooth="yes"/>
      <point x="129" y="-231"/>
      <point x="149" y="-250"/>
      <point x="178" y="-250" type="curve" smooth="yes"/>
      <point x="207" y="-250"/>
      <point x="224" y="-231"/>
      <point x="224" y="-202" type="curve" smooth="yes"/>
      <point x="224" y="-193"/>
      <point x="224" y="-184"/>
      <point x="223" y="-173" type="curve" smooth="yes"/>
      <point x="216" y="-54"/>
      <point x="203" y="164"/>
      <point x="203" y="263" type="curve" smooth="yes"/>
      <point x="203" y="337"/>
      <point x="212" y="584"/>
      <point x="219" y="699" type="curve" smooth="yes"/>
      <point x="220" y="713"/>
      <point x="220" y="714"/>
      <point x="220" y="716" type="curve" smooth="yes"/>
      <point x="220" y="743"/>
      <point x="203" y="765"/>
      <point x="175" y="765" type="curve" smooth="yes"/>
      <point x="148" y="765"/>
      <point x="130" y="746"/>
      <point x="130" y="714" type="curve" smooth="yes"/>
      <point x="130" y="710"/>
      <point x="130" y="705"/>
    </contour>
  </outline>
</glyph>
<glyph name="cent" format="1">
  <advance width="432"/>
  <unicode hex="00A2"/>
  <outline>
    <contour>
      <point x="193" y="29" type="curve" smooth="yes"/>
      <point x="193" y="-2"/>
      <point x="212" y="-17"/>
      <point x="232" y="-17" type="curve" smooth="yes"/>
      <point x="256" y="-17"/>
      <point x="273" y="1"/>
      <point x="273" y="29" type="curve" smooth="yes"/>
      <point x="274" y="66"/>
      <point x="249" y="110"/>
      <point x="249" y="334" type="curve" smooth="yes"/>
      <point x="249" y="537"/>
      <point x="274" y="575"/>
      <point x="274" y="610" type="curve" smooth="yes"/>
      <point x="274" y="640"/>
      <point x="254" y="656"/>
      <point x="234" y="656" type="curve" smooth="yes"/>
      <point x="212" y="656"/>
      <point x="192" y="641"/>
      <point x="192" y="612" type="curve" smooth="yes"/>
      <point x="192" y="580"/>
      <point x="218" y="541"/>
      <point x="218" y="334" type="curve" smooth="yes"/>
      <point x="218" y="112"/>
      <point x="193" y="66"/>
    </contour>
    <contour>
      <point x="396" y="433" type="curve" smooth="yes"/>
      <point x="396" y="493"/>
      <point x="337" y="539"/>
      <point x="259" y="539" type="curve" smooth="yes"/>
      <point x="132" y="539"/>
      <point x="36" y="442"/>
      <point x="36" y="312" type="curve" smooth="yes"/>
      <point x="36" y="198"/>
      <point x="121" y="113"/>
      <point x="231" y="113" type="curve" smooth="yes"/>
      <point x="323" y="113"/>
      <point x="392" y="172"/>
      <point x="392" y="223" type="curve" smooth="yes"/>
      <point x="392" y="235"/>
      <point x="386" y="242"/>
      <point x="377" y="242" type="curve" smooth="yes"/>
      <point x="369" y="242"/>
      <point x="361" y="238"/>
      <point x="348" y="227" type="curve" smooth="yes"/>
      <point x="330" y="209"/>
      <point x="306" y="197"/>
      <point x="266" y="197" type="curve" smooth="yes"/>
      <point x="186" y="197"/>
      <point x="121" y="261"/>
      <point x="121" y="353" type="curve" smooth="yes"/>
      <point x="121" y="427"/>
      <point x="168" y="485"/>
      <point x="232" y="485" type="curve" smooth="yes"/>
      <point x="272" y="485"/>
      <point x="296" y="468"/>
      <point x="296" y="445" type="curve" smooth="yes"/>
      <point x="296" y="432" type="line" smooth="yes"/>
      <point x="296" y="401"/>
      <point x="319" y="379"/>
      <point x="347" y="379" type="curve" smooth="yes"/>
      <point x="374" y="379"/>
      <point x="396" y="403"/>
    </contour>
  </outline>
</glyph>
<glyph name="sterling" format="1">
  <advance width="548"/>
  <unicode hex="00A3"/>
  <outline>
    <contour>
      <point x="58" y="313" type="curve" smooth="yes"/>
      <point x="58" y="298"/>
      <point x="66" y="289"/>
      <point x="82" y="289" type="curve" smooth="yes"/>
      <point x="362" y="289" type="line" smooth="yes"/>
      <point x="377" y="289"/>
      <point x="388" y="298"/>
      <point x="388" y="313" type="curve" smooth="yes"/>
      <point x="388" y="328"/>
      <point x="377" y="338"/>
      <point x="362" y="338" type="curve" smooth="yes"/>
      <point x="83" y="338" type="line" smooth="yes"/>
      <point x="68" y="338"/>
      <point x="58" y="328"/>
    </contour>
    <contour>
      <point x="129" y="77" type="curve" smooth="yes"/>
      <point x="160" y="77"/>
      <point x="199" y="7"/>
      <point x="266" y="16" type="curve" smooth="yes"/>
      <point x="312" y="23"/>
      <point x="346" y="56"/>
      <point x="354" y="109" type="curve" smooth="yes"/>
      <point x="379" y="119"/>
      <point x="408" y="81"/>
      <point x="451" y="81" type="curve" smooth="yes"/>
      <point x="476" y="81"/>
      <point x="493" y="98"/>
      <point x="491" y="132" type="curve" smooth="yes"/>
      <point x="484" y="124"/>
      <point x="468" y="119"/>
      <point x="433" y="119" type="curve" smooth="yes"/>
      <point x="384" y="119"/>
      <point x="321" y="167"/>
      <point x="262" y="159" type="curve" smooth="yes"/>
      <point x="216" y="146"/>
      <point x="179" y="115"/>
      <point x="158" y="82" type="curve" smooth="yes"/>
      <point x="135" y="52"/>
      <point x="124" y="58"/>
      <point x="129" y="58" type="curve" smooth="yes"/>
      <point x="137" y="58"/>
      <point x="155" y="68"/>
      <point x="155" y="96" type="curve" smooth="yes"/>
      <point x="155" y="142"/>
      <point x="155" y="212"/>
      <point x="183" y="298" type="curve" smooth="yes"/>
      <point x="207" y="351"/>
      <point x="254" y="390"/>
      <point x="287" y="428" type="curve" smooth="yes"/>
      <point x="308" y="468"/>
      <point x="313" y="500"/>
      <point x="313" y="526" type="curve" smooth="yes"/>
      <point x="313" y="561"/>
      <point x="323" y="560"/>
      <point x="341" y="560" type="curve" smooth="yes"/>
      <point x="352" y="538"/>
      <point x="376" y="516"/>
      <point x="395" y="501" type="curve" smooth="yes"/>
      <point x="416" y="501"/>
      <point x="430" y="506"/>
      <point x="430" y="529" type="curve" smooth="yes"/>
      <point x="430" y="554"/>
      <point x="414" y="573"/>
      <point x="364" y="573" type="curve" smooth="yes"/>
      <point x="313" y="573"/>
      <point x="273" y="537"/>
      <point x="273" y="480" type="curve" smooth="yes"/>
      <point x="273" y="430"/>
      <point x="299" y="374"/>
      <point x="248" y="315" type="curve" smooth="yes"/>
      <point x="197" y="280"/>
      <point x="144" y="233"/>
      <point x="121" y="184" type="curve" smooth="yes"/>
      <point x="97" y="142"/>
      <point x="124" y="112"/>
      <point x="124" y="90" type="curve" smooth="yes"/>
      <point x="124" y="74"/>
      <point x="120" y="77"/>
    </contour>
  </outline>
</glyph>
